G04 EAGLE Gerber RS-274X export*
G75*
%MOMM*%
%FSLAX34Y34*%
%LPD*%
%INTop Copper*%
%IPPOS*%
%AMOC8*
5,1,8,0,0,1.08239X$1,22.5*%
G01*
%ADD10R,1.000000X1.100000*%
%ADD11R,0.600000X1.200000*%
%ADD12R,1.100000X1.000000*%
%ADD13R,0.300000X0.660000*%
%ADD14P,1.451614X8X112.500000*%
%ADD15R,0.600000X1.450000*%
%ADD16R,0.300000X1.450000*%
%ADD17C,1.000000*%
%ADD18R,1.200000X0.800000*%
%ADD19R,0.550000X1.200000*%
%ADD20C,0.300000*%
%ADD21C,0.152400*%
%ADD22C,0.508000*%
%ADD23C,0.254000*%
%ADD24C,0.756400*%
%ADD25C,0.355600*%

G36*
X225250Y10937D02*
X225250Y10937D01*
X225341Y10945D01*
X225371Y10957D01*
X225403Y10962D01*
X225484Y11005D01*
X225568Y11041D01*
X225600Y11067D01*
X225620Y11078D01*
X225643Y11101D01*
X225699Y11146D01*
X288854Y74301D01*
X288907Y74375D01*
X288967Y74445D01*
X288979Y74475D01*
X288998Y74501D01*
X289025Y74588D01*
X289059Y74673D01*
X289063Y74714D01*
X289070Y74736D01*
X289069Y74768D01*
X289077Y74840D01*
X289077Y325160D01*
X289063Y325250D01*
X289055Y325341D01*
X289043Y325371D01*
X289038Y325403D01*
X288995Y325484D01*
X288959Y325568D01*
X288933Y325600D01*
X288922Y325620D01*
X288899Y325643D01*
X288854Y325699D01*
X225699Y388854D01*
X225625Y388907D01*
X225555Y388967D01*
X225525Y388979D01*
X225499Y388998D01*
X225412Y389025D01*
X225327Y389059D01*
X225286Y389063D01*
X225264Y389070D01*
X225232Y389069D01*
X225160Y389077D01*
X195833Y389077D01*
X195762Y389066D01*
X195690Y389064D01*
X195641Y389046D01*
X195590Y389038D01*
X195527Y389004D01*
X195459Y388979D01*
X195419Y388947D01*
X195373Y388922D01*
X195323Y388870D01*
X195267Y388826D01*
X195239Y388782D01*
X195203Y388744D01*
X195173Y388679D01*
X195134Y388619D01*
X195122Y388568D01*
X195100Y388521D01*
X195092Y388450D01*
X195074Y388380D01*
X195078Y388328D01*
X195073Y388277D01*
X195088Y388206D01*
X195093Y388135D01*
X195114Y388087D01*
X195125Y388036D01*
X195162Y387975D01*
X195190Y387909D01*
X195235Y387853D01*
X195251Y387825D01*
X195269Y387810D01*
X195295Y387778D01*
X201595Y381478D01*
X203455Y379618D01*
X203455Y374869D01*
X203466Y374798D01*
X203468Y374726D01*
X203486Y374677D01*
X203494Y374626D01*
X203528Y374563D01*
X203553Y374495D01*
X203585Y374455D01*
X203610Y374409D01*
X203662Y374359D01*
X203706Y374303D01*
X203750Y374275D01*
X203788Y374239D01*
X203853Y374209D01*
X203913Y374170D01*
X203964Y374158D01*
X204011Y374136D01*
X204082Y374128D01*
X204152Y374110D01*
X204204Y374114D01*
X204255Y374109D01*
X204326Y374124D01*
X204397Y374129D01*
X204445Y374150D01*
X204496Y374161D01*
X204557Y374198D01*
X204623Y374226D01*
X204679Y374270D01*
X204707Y374287D01*
X204722Y374305D01*
X204754Y374331D01*
X209670Y379246D01*
X211977Y379246D01*
X211977Y370762D01*
X211980Y370742D01*
X211978Y370723D01*
X212000Y370621D01*
X212017Y370519D01*
X212026Y370502D01*
X212030Y370482D01*
X212083Y370393D01*
X212132Y370302D01*
X212146Y370288D01*
X212156Y370271D01*
X212235Y370204D01*
X212310Y370133D01*
X212328Y370124D01*
X212343Y370111D01*
X212439Y370073D01*
X212533Y370029D01*
X212553Y370027D01*
X212571Y370019D01*
X212738Y370001D01*
X213501Y370001D01*
X213501Y369999D01*
X212738Y369999D01*
X212718Y369996D01*
X212699Y369998D01*
X212597Y369976D01*
X212495Y369959D01*
X212478Y369950D01*
X212458Y369946D01*
X212369Y369893D01*
X212278Y369844D01*
X212264Y369830D01*
X212247Y369820D01*
X212180Y369741D01*
X212109Y369666D01*
X212100Y369648D01*
X212087Y369633D01*
X212048Y369537D01*
X212005Y369443D01*
X212003Y369423D01*
X211995Y369405D01*
X211977Y369238D01*
X211977Y360754D01*
X209670Y360754D01*
X204754Y365669D01*
X204696Y365711D01*
X204644Y365761D01*
X204597Y365783D01*
X204555Y365813D01*
X204486Y365834D01*
X204421Y365864D01*
X204369Y365870D01*
X204319Y365885D01*
X204248Y365884D01*
X204177Y365891D01*
X204126Y365880D01*
X204074Y365879D01*
X204006Y365854D01*
X203936Y365839D01*
X203891Y365812D01*
X203843Y365795D01*
X203787Y365750D01*
X203725Y365713D01*
X203691Y365673D01*
X203651Y365641D01*
X203612Y365581D01*
X203565Y365526D01*
X203546Y365478D01*
X203518Y365434D01*
X203500Y365364D01*
X203473Y365298D01*
X203465Y365227D01*
X203457Y365195D01*
X203459Y365172D01*
X203455Y365131D01*
X203455Y341833D01*
X203469Y341743D01*
X203477Y341652D01*
X203489Y341622D01*
X203494Y341590D01*
X203537Y341509D01*
X203573Y341426D01*
X203599Y341393D01*
X203610Y341373D01*
X203633Y341351D01*
X203678Y341295D01*
X216835Y328138D01*
X218695Y326278D01*
X218695Y306182D01*
X199278Y286765D01*
X181722Y286765D01*
X179862Y288625D01*
X179786Y288701D01*
X179734Y288754D01*
X179718Y288765D01*
X179705Y288781D01*
X179618Y288837D01*
X179534Y288897D01*
X179515Y288903D01*
X179498Y288914D01*
X179398Y288939D01*
X179299Y288970D01*
X179279Y288969D01*
X179260Y288974D01*
X179157Y288966D01*
X179053Y288963D01*
X179035Y288956D01*
X179015Y288955D01*
X178920Y288914D01*
X178822Y288879D01*
X178807Y288866D01*
X178788Y288859D01*
X178657Y288754D01*
X169049Y279145D01*
X113142Y279145D01*
X98705Y293582D01*
X98705Y302714D01*
X98702Y302734D01*
X98704Y302753D01*
X98682Y302855D01*
X98666Y302957D01*
X98656Y302974D01*
X98652Y302994D01*
X98599Y303083D01*
X98550Y303174D01*
X98536Y303188D01*
X98526Y303205D01*
X98447Y303272D01*
X98372Y303344D01*
X98354Y303352D01*
X98339Y303365D01*
X98243Y303404D01*
X98149Y303447D01*
X98129Y303449D01*
X98111Y303457D01*
X97944Y303475D01*
X95368Y303475D01*
X94475Y304368D01*
X94475Y315632D01*
X95368Y316525D01*
X106238Y316525D01*
X106258Y316528D01*
X106277Y316526D01*
X106379Y316548D01*
X106481Y316564D01*
X106498Y316574D01*
X106518Y316578D01*
X106607Y316631D01*
X106698Y316680D01*
X106712Y316694D01*
X106729Y316704D01*
X106796Y316783D01*
X106868Y316858D01*
X106876Y316876D01*
X106889Y316891D01*
X106928Y316987D01*
X106971Y317081D01*
X106973Y317101D01*
X106981Y317119D01*
X106999Y317286D01*
X106999Y331932D01*
X111310Y336243D01*
X111363Y336317D01*
X111423Y336386D01*
X111435Y336416D01*
X111454Y336442D01*
X111481Y336529D01*
X111515Y336614D01*
X111519Y336655D01*
X111526Y336677D01*
X111525Y336710D01*
X111533Y336781D01*
X111533Y340018D01*
X112099Y340584D01*
X112141Y340642D01*
X112190Y340694D01*
X112212Y340741D01*
X112242Y340783D01*
X112264Y340852D01*
X112294Y340917D01*
X112299Y340969D01*
X112315Y341019D01*
X112313Y341090D01*
X112321Y341161D01*
X112310Y341212D01*
X112308Y341264D01*
X112284Y341332D01*
X112269Y341402D01*
X112242Y341447D01*
X112224Y341495D01*
X112179Y341551D01*
X112142Y341613D01*
X112103Y341647D01*
X112070Y341687D01*
X112010Y341726D01*
X111955Y341773D01*
X111907Y341792D01*
X111863Y341820D01*
X111794Y341838D01*
X111727Y341865D01*
X111656Y341873D01*
X111625Y341881D01*
X111602Y341879D01*
X111561Y341883D01*
X104851Y341883D01*
X104761Y341869D01*
X104670Y341861D01*
X104640Y341849D01*
X104608Y341844D01*
X104528Y341801D01*
X104444Y341765D01*
X104412Y341739D01*
X104391Y341728D01*
X104369Y341705D01*
X104313Y341660D01*
X86838Y324185D01*
X86785Y324111D01*
X86725Y324042D01*
X86713Y324012D01*
X86694Y323986D01*
X86667Y323899D01*
X86633Y323814D01*
X86629Y323773D01*
X86622Y323751D01*
X86623Y323718D01*
X86615Y323647D01*
X86615Y230073D01*
X86629Y229983D01*
X86637Y229892D01*
X86649Y229862D01*
X86654Y229830D01*
X86697Y229750D01*
X86733Y229666D01*
X86759Y229634D01*
X86770Y229613D01*
X86793Y229591D01*
X86838Y229535D01*
X105075Y211298D01*
X105149Y211245D01*
X105218Y211185D01*
X105248Y211173D01*
X105274Y211154D01*
X105361Y211127D01*
X105446Y211093D01*
X105487Y211089D01*
X105509Y211082D01*
X105542Y211083D01*
X105613Y211075D01*
X125872Y211075D01*
X146445Y190502D01*
X146445Y186286D01*
X146448Y186266D01*
X146446Y186247D01*
X146468Y186145D01*
X146484Y186043D01*
X146494Y186026D01*
X146498Y186006D01*
X146551Y185917D01*
X146600Y185826D01*
X146614Y185812D01*
X146624Y185795D01*
X146703Y185728D01*
X146778Y185656D01*
X146796Y185648D01*
X146811Y185635D01*
X146907Y185596D01*
X147001Y185553D01*
X147021Y185551D01*
X147039Y185543D01*
X147206Y185525D01*
X147282Y185525D01*
X148175Y184632D01*
X148175Y171368D01*
X147282Y170475D01*
X140018Y170475D01*
X139125Y171368D01*
X139125Y184632D01*
X140018Y185525D01*
X140094Y185525D01*
X140114Y185528D01*
X140133Y185526D01*
X140235Y185548D01*
X140337Y185564D01*
X140354Y185574D01*
X140374Y185578D01*
X140463Y185631D01*
X140554Y185680D01*
X140568Y185694D01*
X140585Y185704D01*
X140652Y185783D01*
X140724Y185858D01*
X140732Y185876D01*
X140745Y185891D01*
X140784Y185987D01*
X140827Y186081D01*
X140829Y186101D01*
X140837Y186119D01*
X140855Y186286D01*
X140855Y187871D01*
X140841Y187961D01*
X140833Y188052D01*
X140821Y188082D01*
X140816Y188114D01*
X140773Y188194D01*
X140737Y188278D01*
X140711Y188310D01*
X140700Y188331D01*
X140677Y188353D01*
X140632Y188409D01*
X123779Y205262D01*
X123705Y205315D01*
X123636Y205375D01*
X123606Y205387D01*
X123580Y205406D01*
X123493Y205433D01*
X123408Y205467D01*
X123367Y205471D01*
X123345Y205478D01*
X123312Y205477D01*
X123241Y205485D01*
X117805Y205485D01*
X117734Y205474D01*
X117662Y205472D01*
X117613Y205454D01*
X117562Y205446D01*
X117499Y205412D01*
X117431Y205387D01*
X117391Y205355D01*
X117345Y205330D01*
X117295Y205278D01*
X117239Y205234D01*
X117211Y205190D01*
X117175Y205152D01*
X117145Y205087D01*
X117106Y205027D01*
X117094Y204976D01*
X117072Y204929D01*
X117064Y204858D01*
X117046Y204788D01*
X117050Y204736D01*
X117045Y204685D01*
X117060Y204614D01*
X117065Y204543D01*
X117086Y204495D01*
X117097Y204444D01*
X117134Y204383D01*
X117162Y204317D01*
X117207Y204261D01*
X117223Y204233D01*
X117241Y204218D01*
X117267Y204186D01*
X124938Y196515D01*
X133745Y187708D01*
X133745Y186286D01*
X133748Y186266D01*
X133746Y186247D01*
X133768Y186145D01*
X133784Y186043D01*
X133794Y186026D01*
X133798Y186006D01*
X133851Y185917D01*
X133900Y185826D01*
X133914Y185812D01*
X133924Y185795D01*
X134003Y185728D01*
X134078Y185656D01*
X134096Y185648D01*
X134111Y185635D01*
X134207Y185596D01*
X134301Y185553D01*
X134321Y185551D01*
X134339Y185543D01*
X134506Y185525D01*
X134582Y185525D01*
X135475Y184632D01*
X135475Y171368D01*
X134582Y170475D01*
X127318Y170475D01*
X126425Y171368D01*
X126425Y184632D01*
X127132Y185339D01*
X127144Y185355D01*
X127160Y185367D01*
X127216Y185455D01*
X127276Y185538D01*
X127282Y185557D01*
X127293Y185574D01*
X127318Y185675D01*
X127348Y185773D01*
X127348Y185793D01*
X127353Y185813D01*
X127345Y185916D01*
X127342Y186019D01*
X127335Y186038D01*
X127334Y186058D01*
X127293Y186153D01*
X127257Y186250D01*
X127245Y186266D01*
X127237Y186284D01*
X127132Y186415D01*
X112349Y201198D01*
X112275Y201251D01*
X112206Y201311D01*
X112176Y201323D01*
X112150Y201342D01*
X112063Y201369D01*
X111978Y201403D01*
X111937Y201407D01*
X111915Y201414D01*
X111882Y201413D01*
X111811Y201421D01*
X101299Y201421D01*
X72897Y229823D01*
X72897Y324246D01*
X100696Y352045D01*
X142037Y352045D01*
X142127Y352059D01*
X142218Y352067D01*
X142248Y352079D01*
X142280Y352084D01*
X142360Y352127D01*
X142444Y352163D01*
X142476Y352189D01*
X142497Y352200D01*
X142519Y352223D01*
X142575Y352268D01*
X146842Y356535D01*
X146895Y356609D01*
X146955Y356678D01*
X146967Y356708D01*
X146986Y356734D01*
X147013Y356821D01*
X147047Y356906D01*
X147051Y356947D01*
X147058Y356969D01*
X147057Y357002D01*
X147065Y357073D01*
X147065Y377078D01*
X157002Y387015D01*
X157765Y387778D01*
X157807Y387836D01*
X157857Y387888D01*
X157879Y387935D01*
X157909Y387977D01*
X157930Y388046D01*
X157960Y388111D01*
X157966Y388163D01*
X157981Y388213D01*
X157979Y388284D01*
X157987Y388355D01*
X157976Y388406D01*
X157975Y388458D01*
X157950Y388526D01*
X157935Y388596D01*
X157908Y388641D01*
X157890Y388689D01*
X157846Y388745D01*
X157809Y388807D01*
X157769Y388841D01*
X157737Y388881D01*
X157676Y388920D01*
X157622Y388967D01*
X157574Y388986D01*
X157530Y389014D01*
X157460Y389032D01*
X157394Y389059D01*
X157323Y389067D01*
X157291Y389075D01*
X157268Y389073D01*
X157227Y389077D01*
X129793Y389077D01*
X129722Y389066D01*
X129650Y389064D01*
X129601Y389046D01*
X129550Y389038D01*
X129487Y389004D01*
X129419Y388979D01*
X129379Y388947D01*
X129333Y388922D01*
X129283Y388871D01*
X129227Y388826D01*
X129199Y388782D01*
X129163Y388744D01*
X129133Y388679D01*
X129094Y388619D01*
X129082Y388568D01*
X129060Y388521D01*
X129052Y388450D01*
X129034Y388380D01*
X129038Y388328D01*
X129033Y388277D01*
X129048Y388206D01*
X129053Y388135D01*
X129074Y388087D01*
X129085Y388036D01*
X129122Y387975D01*
X129150Y387909D01*
X129195Y387853D01*
X129211Y387825D01*
X129229Y387810D01*
X129255Y387778D01*
X138579Y378453D01*
X138653Y378400D01*
X138722Y378341D01*
X138753Y378329D01*
X138779Y378310D01*
X138866Y378283D01*
X138951Y378249D01*
X138992Y378244D01*
X139014Y378237D01*
X139046Y378238D01*
X139117Y378230D01*
X140709Y378230D01*
X145530Y373409D01*
X145530Y366591D01*
X140709Y361770D01*
X133891Y361770D01*
X129070Y366591D01*
X129070Y373409D01*
X131856Y376195D01*
X131867Y376211D01*
X131883Y376224D01*
X131939Y376311D01*
X131999Y376395D01*
X132005Y376414D01*
X132016Y376431D01*
X132041Y376531D01*
X132072Y376630D01*
X132071Y376650D01*
X132076Y376669D01*
X132068Y376772D01*
X132065Y376876D01*
X132058Y376895D01*
X132057Y376915D01*
X132017Y377009D01*
X131981Y377107D01*
X131968Y377123D01*
X131961Y377141D01*
X131856Y377272D01*
X125049Y384078D01*
X124975Y384131D01*
X124906Y384191D01*
X124876Y384203D01*
X124850Y384222D01*
X124763Y384249D01*
X124678Y384283D01*
X124637Y384287D01*
X124615Y384294D01*
X124582Y384293D01*
X124511Y384301D01*
X111201Y384301D01*
X111130Y384290D01*
X111058Y384288D01*
X111009Y384270D01*
X110958Y384262D01*
X110895Y384228D01*
X110827Y384203D01*
X110787Y384171D01*
X110741Y384146D01*
X110691Y384094D01*
X110635Y384050D01*
X110607Y384006D01*
X110571Y383968D01*
X110541Y383903D01*
X110502Y383843D01*
X110490Y383792D01*
X110468Y383745D01*
X110460Y383674D01*
X110442Y383604D01*
X110446Y383552D01*
X110441Y383501D01*
X110456Y383430D01*
X110461Y383359D01*
X110482Y383311D01*
X110493Y383260D01*
X110530Y383199D01*
X110558Y383133D01*
X110603Y383077D01*
X110619Y383049D01*
X110637Y383034D01*
X110663Y383002D01*
X112835Y380830D01*
X114697Y378967D01*
X114696Y378952D01*
X114718Y378851D01*
X114734Y378749D01*
X114744Y378731D01*
X114748Y378712D01*
X114801Y378623D01*
X114850Y378531D01*
X114864Y378518D01*
X114874Y378501D01*
X114953Y378433D01*
X115028Y378362D01*
X115046Y378354D01*
X115061Y378341D01*
X115157Y378302D01*
X115251Y378258D01*
X115271Y378256D01*
X115289Y378249D01*
X115291Y378249D01*
X120130Y373409D01*
X120130Y366591D01*
X115309Y361770D01*
X108491Y361770D01*
X103670Y366591D01*
X103670Y373409D01*
X107472Y377211D01*
X107483Y377227D01*
X107499Y377240D01*
X107555Y377327D01*
X107615Y377411D01*
X107621Y377430D01*
X107632Y377447D01*
X107657Y377547D01*
X107688Y377646D01*
X107687Y377666D01*
X107692Y377685D01*
X107684Y377788D01*
X107681Y377892D01*
X107674Y377911D01*
X107673Y377931D01*
X107633Y378025D01*
X107597Y378123D01*
X107584Y378139D01*
X107577Y378157D01*
X107472Y378288D01*
X105745Y380014D01*
X105671Y380067D01*
X105602Y380127D01*
X105572Y380139D01*
X105546Y380158D01*
X105458Y380185D01*
X105374Y380219D01*
X105333Y380223D01*
X105311Y380230D01*
X105278Y380229D01*
X105207Y380237D01*
X82912Y380237D01*
X82822Y380223D01*
X82731Y380215D01*
X82702Y380203D01*
X82670Y380198D01*
X82589Y380155D01*
X82505Y380119D01*
X82473Y380093D01*
X82452Y380082D01*
X82430Y380059D01*
X82374Y380014D01*
X63018Y360658D01*
X62965Y360584D01*
X62905Y360515D01*
X62893Y360484D01*
X62874Y360458D01*
X62847Y360371D01*
X62813Y360286D01*
X62809Y360245D01*
X62802Y360223D01*
X62803Y360191D01*
X62795Y360120D01*
X62795Y348585D01*
X62806Y348514D01*
X62808Y348442D01*
X62826Y348393D01*
X62834Y348342D01*
X62868Y348279D01*
X62893Y348211D01*
X62925Y348171D01*
X62950Y348125D01*
X63001Y348075D01*
X63046Y348019D01*
X63090Y347991D01*
X63128Y347955D01*
X63193Y347925D01*
X63253Y347886D01*
X63304Y347874D01*
X63351Y347852D01*
X63422Y347844D01*
X63492Y347826D01*
X63544Y347830D01*
X63595Y347825D01*
X63666Y347840D01*
X63737Y347845D01*
X63785Y347866D01*
X63836Y347877D01*
X63897Y347914D01*
X63963Y347942D01*
X64019Y347987D01*
X64047Y348003D01*
X64062Y348021D01*
X64094Y348047D01*
X79916Y363868D01*
X79927Y363884D01*
X79943Y363897D01*
X79999Y363984D01*
X80059Y364068D01*
X80065Y364087D01*
X80076Y364104D01*
X80101Y364204D01*
X80132Y364303D01*
X80131Y364323D01*
X80136Y364342D01*
X80128Y364445D01*
X80125Y364549D01*
X80118Y364568D01*
X80117Y364587D01*
X80077Y364682D01*
X80041Y364780D01*
X80028Y364796D01*
X80021Y364814D01*
X79916Y364945D01*
X78270Y366591D01*
X78270Y373409D01*
X83091Y378230D01*
X89909Y378230D01*
X94730Y373409D01*
X94730Y366591D01*
X89909Y361770D01*
X86037Y361770D01*
X85947Y361755D01*
X85856Y361748D01*
X85827Y361735D01*
X85795Y361730D01*
X85714Y361687D01*
X85630Y361652D01*
X85598Y361626D01*
X85577Y361615D01*
X85555Y361591D01*
X85499Y361547D01*
X33018Y309065D01*
X32965Y308991D01*
X32905Y308922D01*
X32893Y308892D01*
X32874Y308866D01*
X32847Y308779D01*
X32813Y308694D01*
X32809Y308653D01*
X32802Y308631D01*
X32803Y308598D01*
X32795Y308527D01*
X32795Y186286D01*
X32798Y186266D01*
X32796Y186247D01*
X32818Y186145D01*
X32834Y186043D01*
X32844Y186026D01*
X32848Y186006D01*
X32901Y185917D01*
X32950Y185826D01*
X32964Y185812D01*
X32974Y185795D01*
X33053Y185728D01*
X33128Y185656D01*
X33146Y185648D01*
X33161Y185635D01*
X33257Y185596D01*
X33351Y185553D01*
X33371Y185551D01*
X33389Y185543D01*
X33556Y185525D01*
X35632Y185525D01*
X36525Y184632D01*
X36525Y182056D01*
X36528Y182036D01*
X36526Y182017D01*
X36548Y181915D01*
X36564Y181813D01*
X36574Y181796D01*
X36578Y181776D01*
X36631Y181687D01*
X36680Y181596D01*
X36694Y181582D01*
X36704Y181565D01*
X36783Y181498D01*
X36858Y181426D01*
X36876Y181418D01*
X36891Y181405D01*
X36987Y181366D01*
X37081Y181323D01*
X37101Y181321D01*
X37119Y181313D01*
X37286Y181295D01*
X52714Y181295D01*
X52734Y181298D01*
X52753Y181296D01*
X52855Y181318D01*
X52957Y181334D01*
X52974Y181344D01*
X52994Y181348D01*
X53083Y181401D01*
X53174Y181450D01*
X53188Y181464D01*
X53205Y181474D01*
X53272Y181553D01*
X53344Y181628D01*
X53352Y181646D01*
X53365Y181661D01*
X53404Y181757D01*
X53447Y181851D01*
X53449Y181871D01*
X53457Y181889D01*
X53475Y182056D01*
X53475Y184632D01*
X54368Y185525D01*
X65632Y185525D01*
X66525Y184632D01*
X66525Y182056D01*
X66528Y182036D01*
X66526Y182017D01*
X66548Y181915D01*
X66564Y181813D01*
X66574Y181796D01*
X66578Y181776D01*
X66631Y181687D01*
X66680Y181596D01*
X66694Y181582D01*
X66704Y181565D01*
X66783Y181498D01*
X66858Y181426D01*
X66876Y181418D01*
X66891Y181405D01*
X66987Y181366D01*
X67081Y181323D01*
X67101Y181321D01*
X67119Y181313D01*
X67286Y181295D01*
X100264Y181295D01*
X100284Y181298D01*
X100303Y181296D01*
X100405Y181318D01*
X100507Y181334D01*
X100524Y181344D01*
X100544Y181348D01*
X100633Y181401D01*
X100724Y181450D01*
X100738Y181464D01*
X100755Y181474D01*
X100822Y181553D01*
X100894Y181628D01*
X100902Y181646D01*
X100915Y181661D01*
X100954Y181757D01*
X100997Y181851D01*
X100999Y181871D01*
X101007Y181889D01*
X101025Y182056D01*
X101025Y184632D01*
X101918Y185525D01*
X109182Y185525D01*
X110075Y184632D01*
X110075Y171368D01*
X109182Y170475D01*
X101918Y170475D01*
X101025Y171368D01*
X101025Y174944D01*
X101022Y174964D01*
X101024Y174983D01*
X101002Y175085D01*
X100986Y175187D01*
X100976Y175204D01*
X100972Y175224D01*
X100919Y175313D01*
X100870Y175404D01*
X100856Y175418D01*
X100846Y175435D01*
X100767Y175502D01*
X100692Y175574D01*
X100674Y175582D01*
X100659Y175595D01*
X100563Y175634D01*
X100469Y175677D01*
X100449Y175679D01*
X100431Y175687D01*
X100264Y175705D01*
X67286Y175705D01*
X67266Y175702D01*
X67247Y175704D01*
X67145Y175682D01*
X67043Y175666D01*
X67026Y175656D01*
X67006Y175652D01*
X66917Y175599D01*
X66826Y175550D01*
X66812Y175536D01*
X66795Y175526D01*
X66728Y175447D01*
X66656Y175372D01*
X66648Y175354D01*
X66635Y175339D01*
X66596Y175243D01*
X66553Y175149D01*
X66551Y175129D01*
X66543Y175111D01*
X66525Y174944D01*
X66525Y172368D01*
X65632Y171475D01*
X54368Y171475D01*
X53475Y172368D01*
X53475Y174944D01*
X53472Y174964D01*
X53474Y174983D01*
X53452Y175085D01*
X53436Y175187D01*
X53426Y175204D01*
X53422Y175224D01*
X53369Y175313D01*
X53320Y175404D01*
X53306Y175418D01*
X53296Y175435D01*
X53217Y175502D01*
X53142Y175574D01*
X53124Y175582D01*
X53109Y175595D01*
X53013Y175634D01*
X52919Y175677D01*
X52899Y175679D01*
X52881Y175687D01*
X52714Y175705D01*
X37286Y175705D01*
X37266Y175702D01*
X37247Y175704D01*
X37145Y175682D01*
X37043Y175666D01*
X37026Y175656D01*
X37006Y175652D01*
X36917Y175599D01*
X36826Y175550D01*
X36812Y175536D01*
X36795Y175526D01*
X36728Y175447D01*
X36656Y175372D01*
X36648Y175354D01*
X36635Y175339D01*
X36596Y175243D01*
X36553Y175149D01*
X36551Y175129D01*
X36543Y175111D01*
X36525Y174944D01*
X36525Y172368D01*
X35632Y171475D01*
X25762Y171475D01*
X25742Y171472D01*
X25723Y171474D01*
X25621Y171452D01*
X25519Y171436D01*
X25502Y171426D01*
X25482Y171422D01*
X25393Y171369D01*
X25302Y171320D01*
X25288Y171306D01*
X25271Y171296D01*
X25204Y171217D01*
X25132Y171142D01*
X25124Y171124D01*
X25111Y171109D01*
X25072Y171013D01*
X25029Y170919D01*
X25027Y170899D01*
X25019Y170881D01*
X25001Y170714D01*
X25001Y169286D01*
X25004Y169266D01*
X25002Y169247D01*
X25024Y169145D01*
X25040Y169043D01*
X25050Y169026D01*
X25054Y169006D01*
X25107Y168917D01*
X25156Y168826D01*
X25170Y168812D01*
X25180Y168795D01*
X25259Y168728D01*
X25334Y168656D01*
X25352Y168648D01*
X25367Y168635D01*
X25463Y168596D01*
X25557Y168553D01*
X25577Y168551D01*
X25595Y168543D01*
X25762Y168525D01*
X35632Y168525D01*
X36525Y167632D01*
X36525Y155368D01*
X35632Y154475D01*
X33556Y154475D01*
X33536Y154472D01*
X33517Y154474D01*
X33415Y154452D01*
X33313Y154436D01*
X33296Y154426D01*
X33276Y154422D01*
X33187Y154369D01*
X33096Y154320D01*
X33082Y154306D01*
X33065Y154296D01*
X32998Y154217D01*
X32926Y154142D01*
X32918Y154124D01*
X32905Y154109D01*
X32866Y154013D01*
X32823Y153919D01*
X32821Y153899D01*
X32813Y153881D01*
X32795Y153714D01*
X32795Y146056D01*
X32798Y146036D01*
X32796Y146017D01*
X32818Y145915D01*
X32834Y145813D01*
X32844Y145796D01*
X32848Y145776D01*
X32901Y145687D01*
X32950Y145596D01*
X32964Y145582D01*
X32974Y145565D01*
X33053Y145498D01*
X33128Y145426D01*
X33146Y145418D01*
X33161Y145405D01*
X33257Y145366D01*
X33351Y145323D01*
X33371Y145321D01*
X33389Y145313D01*
X33556Y145295D01*
X34753Y145295D01*
X36525Y143523D01*
X36525Y134017D01*
X34753Y132245D01*
X29242Y132245D01*
X29172Y132234D01*
X29100Y132232D01*
X29051Y132214D01*
X29000Y132206D01*
X28936Y132172D01*
X28869Y132147D01*
X28828Y132115D01*
X28782Y132090D01*
X28733Y132039D01*
X28677Y131994D01*
X28649Y131950D01*
X28613Y131912D01*
X28583Y131847D01*
X28544Y131787D01*
X28531Y131736D01*
X28509Y131689D01*
X28501Y131618D01*
X28484Y131548D01*
X28488Y131496D01*
X28482Y131445D01*
X28497Y131374D01*
X28503Y131303D01*
X28523Y131255D01*
X28534Y131204D01*
X28571Y131143D01*
X28599Y131077D01*
X28644Y131021D01*
X28660Y130993D01*
X28678Y130978D01*
X28704Y130946D01*
X31672Y127978D01*
X31746Y127925D01*
X31815Y127865D01*
X31846Y127853D01*
X31872Y127834D01*
X31959Y127807D01*
X32044Y127773D01*
X32085Y127769D01*
X32107Y127762D01*
X32139Y127763D01*
X32210Y127755D01*
X34753Y127755D01*
X36551Y125956D01*
X36556Y125943D01*
X36564Y125892D01*
X36598Y125829D01*
X36623Y125761D01*
X36655Y125721D01*
X36680Y125675D01*
X36732Y125625D01*
X36776Y125569D01*
X36820Y125541D01*
X36858Y125505D01*
X36923Y125475D01*
X36983Y125436D01*
X37034Y125424D01*
X37081Y125402D01*
X37152Y125394D01*
X37222Y125376D01*
X37274Y125380D01*
X37325Y125375D01*
X37396Y125390D01*
X37467Y125395D01*
X37515Y125416D01*
X37566Y125427D01*
X37627Y125464D01*
X37693Y125492D01*
X37749Y125537D01*
X37777Y125553D01*
X37792Y125571D01*
X37824Y125597D01*
X45998Y133771D01*
X52714Y133771D01*
X52734Y133774D01*
X52753Y133772D01*
X52855Y133794D01*
X52957Y133810D01*
X52974Y133820D01*
X52994Y133824D01*
X53083Y133877D01*
X53174Y133926D01*
X53188Y133940D01*
X53205Y133950D01*
X53272Y134029D01*
X53344Y134104D01*
X53352Y134122D01*
X53365Y134137D01*
X53404Y134233D01*
X53447Y134327D01*
X53449Y134347D01*
X53457Y134365D01*
X53475Y134532D01*
X53475Y143523D01*
X55247Y145295D01*
X56444Y145295D01*
X56464Y145298D01*
X56483Y145296D01*
X56585Y145318D01*
X56687Y145334D01*
X56704Y145344D01*
X56724Y145348D01*
X56813Y145401D01*
X56904Y145450D01*
X56918Y145464D01*
X56935Y145474D01*
X57002Y145553D01*
X57074Y145628D01*
X57082Y145646D01*
X57095Y145661D01*
X57134Y145757D01*
X57177Y145851D01*
X57179Y145871D01*
X57187Y145889D01*
X57205Y146056D01*
X57205Y153714D01*
X57202Y153734D01*
X57204Y153753D01*
X57182Y153855D01*
X57166Y153957D01*
X57156Y153974D01*
X57152Y153994D01*
X57099Y154083D01*
X57050Y154174D01*
X57036Y154188D01*
X57026Y154205D01*
X56947Y154272D01*
X56872Y154344D01*
X56854Y154352D01*
X56839Y154365D01*
X56743Y154404D01*
X56649Y154447D01*
X56629Y154449D01*
X56611Y154457D01*
X56444Y154475D01*
X54368Y154475D01*
X53475Y155368D01*
X53475Y167632D01*
X54368Y168525D01*
X65632Y168525D01*
X66525Y167632D01*
X66525Y155368D01*
X65632Y154475D01*
X63556Y154475D01*
X63536Y154472D01*
X63517Y154474D01*
X63415Y154452D01*
X63313Y154436D01*
X63296Y154426D01*
X63276Y154422D01*
X63187Y154369D01*
X63096Y154320D01*
X63082Y154306D01*
X63065Y154296D01*
X62998Y154217D01*
X62926Y154142D01*
X62918Y154124D01*
X62905Y154109D01*
X62866Y154013D01*
X62823Y153919D01*
X62821Y153899D01*
X62813Y153881D01*
X62795Y153714D01*
X62795Y146056D01*
X62798Y146036D01*
X62796Y146017D01*
X62818Y145915D01*
X62834Y145813D01*
X62844Y145796D01*
X62848Y145776D01*
X62901Y145687D01*
X62950Y145596D01*
X62964Y145582D01*
X62974Y145565D01*
X63053Y145498D01*
X63128Y145426D01*
X63146Y145418D01*
X63161Y145405D01*
X63257Y145366D01*
X63351Y145323D01*
X63371Y145321D01*
X63389Y145313D01*
X63556Y145295D01*
X64753Y145295D01*
X66525Y143523D01*
X66525Y138012D01*
X66536Y137942D01*
X66538Y137870D01*
X66556Y137821D01*
X66564Y137770D01*
X66598Y137706D01*
X66623Y137639D01*
X66655Y137598D01*
X66680Y137552D01*
X66732Y137503D01*
X66776Y137447D01*
X66820Y137419D01*
X66858Y137383D01*
X66923Y137353D01*
X66983Y137314D01*
X67034Y137301D01*
X67081Y137279D01*
X67152Y137271D01*
X67222Y137254D01*
X67274Y137258D01*
X67325Y137252D01*
X67396Y137267D01*
X67467Y137273D01*
X67515Y137293D01*
X67566Y137304D01*
X67627Y137341D01*
X67693Y137369D01*
X67749Y137414D01*
X67777Y137430D01*
X67792Y137448D01*
X67824Y137474D01*
X76065Y145715D01*
X77925Y147575D01*
X125618Y147575D01*
X133745Y139448D01*
X133745Y137713D01*
X133756Y137643D01*
X133758Y137571D01*
X133776Y137522D01*
X133784Y137471D01*
X133818Y137407D01*
X133843Y137340D01*
X133875Y137299D01*
X133900Y137253D01*
X133952Y137204D01*
X133996Y137148D01*
X134040Y137120D01*
X134078Y137084D01*
X134143Y137054D01*
X134203Y137015D01*
X134254Y137002D01*
X134301Y136980D01*
X134372Y136972D01*
X134442Y136955D01*
X134494Y136959D01*
X134545Y136953D01*
X134616Y136968D01*
X134687Y136974D01*
X134735Y136994D01*
X134786Y137005D01*
X134847Y137042D01*
X134913Y137070D01*
X134969Y137115D01*
X134997Y137132D01*
X135012Y137149D01*
X135044Y137175D01*
X153572Y155703D01*
X212188Y155703D01*
X226823Y141068D01*
X226823Y140665D01*
X226837Y140575D01*
X226845Y140484D01*
X226857Y140454D01*
X226862Y140422D01*
X226905Y140342D01*
X226941Y140258D01*
X226967Y140226D01*
X226978Y140205D01*
X227001Y140183D01*
X227046Y140127D01*
X231160Y136013D01*
X231218Y135971D01*
X231270Y135921D01*
X231317Y135899D01*
X231359Y135869D01*
X231428Y135848D01*
X231493Y135818D01*
X231545Y135812D01*
X231595Y135797D01*
X231666Y135799D01*
X231737Y135791D01*
X231788Y135802D01*
X231840Y135803D01*
X231908Y135828D01*
X231978Y135843D01*
X232023Y135870D01*
X232071Y135888D01*
X232127Y135932D01*
X232189Y135969D01*
X232223Y136009D01*
X232263Y136041D01*
X232302Y136102D01*
X232349Y136156D01*
X232368Y136204D01*
X232396Y136248D01*
X232414Y136318D01*
X232441Y136384D01*
X232449Y136456D01*
X232457Y136487D01*
X232455Y136510D01*
X232459Y136551D01*
X232459Y136977D01*
X239238Y136977D01*
X239258Y136980D01*
X239277Y136978D01*
X239379Y137000D01*
X239481Y137017D01*
X239498Y137026D01*
X239518Y137030D01*
X239607Y137083D01*
X239698Y137132D01*
X239712Y137146D01*
X239729Y137156D01*
X239796Y137235D01*
X239867Y137310D01*
X239876Y137328D01*
X239889Y137343D01*
X239928Y137439D01*
X239971Y137533D01*
X239973Y137553D01*
X239981Y137571D01*
X239999Y137738D01*
X239999Y138501D01*
X240001Y138501D01*
X240001Y137738D01*
X240004Y137718D01*
X240002Y137699D01*
X240024Y137597D01*
X240041Y137495D01*
X240050Y137478D01*
X240054Y137458D01*
X240107Y137369D01*
X240156Y137278D01*
X240170Y137264D01*
X240180Y137247D01*
X240259Y137180D01*
X240334Y137109D01*
X240352Y137100D01*
X240367Y137087D01*
X240463Y137048D01*
X240557Y137005D01*
X240577Y137003D01*
X240595Y136995D01*
X240762Y136977D01*
X247541Y136977D01*
X247541Y133096D01*
X247544Y133076D01*
X247542Y133057D01*
X247564Y132955D01*
X247580Y132853D01*
X247590Y132836D01*
X247594Y132816D01*
X247647Y132727D01*
X247696Y132636D01*
X247710Y132622D01*
X247720Y132605D01*
X247799Y132538D01*
X247874Y132466D01*
X247892Y132458D01*
X247907Y132445D01*
X248003Y132406D01*
X248097Y132363D01*
X248117Y132361D01*
X248135Y132353D01*
X248302Y132335D01*
X251714Y132335D01*
X251734Y132338D01*
X251753Y132336D01*
X251855Y132358D01*
X251957Y132374D01*
X251974Y132384D01*
X251994Y132388D01*
X252083Y132441D01*
X252174Y132490D01*
X252188Y132504D01*
X252205Y132514D01*
X252272Y132593D01*
X252344Y132668D01*
X252352Y132686D01*
X252365Y132701D01*
X252404Y132797D01*
X252447Y132891D01*
X252449Y132911D01*
X252457Y132929D01*
X252475Y133096D01*
X252475Y152941D01*
X252461Y153031D01*
X252453Y153122D01*
X252441Y153152D01*
X252436Y153184D01*
X252393Y153264D01*
X252357Y153348D01*
X252331Y153380D01*
X252320Y153401D01*
X252297Y153423D01*
X252252Y153479D01*
X248519Y157212D01*
X248445Y157265D01*
X248376Y157325D01*
X248346Y157337D01*
X248320Y157356D01*
X248233Y157383D01*
X248148Y157417D01*
X248107Y157421D01*
X248084Y157428D01*
X248052Y157427D01*
X247981Y157435D01*
X247286Y157435D01*
X247266Y157432D01*
X247247Y157434D01*
X247145Y157412D01*
X247043Y157396D01*
X247026Y157386D01*
X247006Y157382D01*
X246917Y157329D01*
X246826Y157280D01*
X246812Y157266D01*
X246795Y157256D01*
X246728Y157177D01*
X246656Y157102D01*
X246648Y157084D01*
X246635Y157069D01*
X246596Y156973D01*
X246553Y156879D01*
X246551Y156859D01*
X246543Y156841D01*
X246525Y156674D01*
X246525Y155368D01*
X245632Y154475D01*
X234368Y154475D01*
X233475Y155368D01*
X233475Y156674D01*
X233472Y156694D01*
X233474Y156713D01*
X233452Y156815D01*
X233436Y156917D01*
X233426Y156934D01*
X233422Y156954D01*
X233369Y157043D01*
X233320Y157134D01*
X233306Y157148D01*
X233296Y157165D01*
X233217Y157232D01*
X233142Y157304D01*
X233124Y157312D01*
X233109Y157325D01*
X233013Y157364D01*
X232919Y157407D01*
X232899Y157409D01*
X232881Y157417D01*
X232714Y157435D01*
X225436Y157435D01*
X214375Y168496D01*
X214375Y183421D01*
X214361Y183511D01*
X214353Y183602D01*
X214341Y183632D01*
X214336Y183664D01*
X214293Y183744D01*
X214257Y183828D01*
X214231Y183860D01*
X214220Y183881D01*
X214197Y183903D01*
X214152Y183959D01*
X196659Y201452D01*
X196585Y201505D01*
X196516Y201565D01*
X196486Y201577D01*
X196460Y201596D01*
X196373Y201623D01*
X196288Y201657D01*
X196247Y201661D01*
X196224Y201668D01*
X196192Y201667D01*
X196121Y201675D01*
X169075Y201675D01*
X166471Y204279D01*
X163760Y206991D01*
X163744Y207002D01*
X163731Y207018D01*
X163644Y207074D01*
X163560Y207134D01*
X163541Y207140D01*
X163524Y207151D01*
X163424Y207176D01*
X163325Y207207D01*
X163305Y207206D01*
X163286Y207211D01*
X163183Y207203D01*
X163079Y207200D01*
X163060Y207194D01*
X163040Y207192D01*
X162946Y207152D01*
X162848Y207116D01*
X162832Y207103D01*
X162814Y207096D01*
X162683Y206991D01*
X160955Y205262D01*
X156098Y200405D01*
X143622Y200405D01*
X137705Y206322D01*
X137705Y208713D01*
X137702Y208733D01*
X137704Y208752D01*
X137682Y208854D01*
X137666Y208956D01*
X137656Y208973D01*
X137652Y208993D01*
X137599Y209082D01*
X137550Y209173D01*
X137536Y209187D01*
X137526Y209204D01*
X137447Y209271D01*
X137372Y209343D01*
X137354Y209351D01*
X137339Y209364D01*
X137243Y209403D01*
X137149Y209446D01*
X137146Y209446D01*
X136225Y210367D01*
X136225Y212344D01*
X136222Y212364D01*
X136224Y212383D01*
X136202Y212485D01*
X136186Y212587D01*
X136176Y212604D01*
X136172Y212624D01*
X136119Y212713D01*
X136070Y212804D01*
X136056Y212818D01*
X136046Y212835D01*
X135967Y212902D01*
X135892Y212974D01*
X135874Y212982D01*
X135859Y212995D01*
X135763Y213034D01*
X135669Y213077D01*
X135649Y213079D01*
X135631Y213087D01*
X135464Y213105D01*
X133462Y213105D01*
X128824Y217743D01*
X128766Y217785D01*
X128714Y217835D01*
X128667Y217857D01*
X128625Y217887D01*
X128556Y217908D01*
X128491Y217938D01*
X128439Y217944D01*
X128389Y217959D01*
X128318Y217957D01*
X128247Y217965D01*
X128196Y217954D01*
X128144Y217953D01*
X128076Y217928D01*
X128006Y217913D01*
X127961Y217886D01*
X127913Y217868D01*
X127857Y217824D01*
X127795Y217787D01*
X127761Y217747D01*
X127721Y217715D01*
X127682Y217654D01*
X127635Y217600D01*
X127616Y217552D01*
X127588Y217508D01*
X127570Y217438D01*
X127543Y217372D01*
X127535Y217300D01*
X127527Y217269D01*
X127529Y217246D01*
X127525Y217205D01*
X127525Y216368D01*
X126632Y215475D01*
X113368Y215475D01*
X112475Y216368D01*
X112475Y217444D01*
X112472Y217464D01*
X112474Y217483D01*
X112452Y217585D01*
X112436Y217687D01*
X112426Y217704D01*
X112422Y217724D01*
X112369Y217813D01*
X112320Y217904D01*
X112306Y217918D01*
X112296Y217935D01*
X112217Y218002D01*
X112142Y218074D01*
X112124Y218082D01*
X112109Y218095D01*
X112013Y218134D01*
X111919Y218177D01*
X111899Y218179D01*
X111881Y218187D01*
X111714Y218205D01*
X110582Y218205D01*
X98805Y229982D01*
X98805Y260238D01*
X111362Y272795D01*
X133714Y272795D01*
X133734Y272798D01*
X133753Y272796D01*
X133855Y272818D01*
X133957Y272834D01*
X133974Y272844D01*
X133994Y272848D01*
X134083Y272901D01*
X134174Y272950D01*
X134188Y272964D01*
X134205Y272974D01*
X134272Y273053D01*
X134344Y273128D01*
X134352Y273146D01*
X134365Y273161D01*
X134404Y273257D01*
X134447Y273351D01*
X134449Y273371D01*
X134457Y273389D01*
X134475Y273556D01*
X134475Y275632D01*
X135368Y276525D01*
X147632Y276525D01*
X148525Y275632D01*
X148525Y264368D01*
X147632Y263475D01*
X135368Y263475D01*
X134475Y264368D01*
X134475Y266444D01*
X134472Y266464D01*
X134474Y266483D01*
X134452Y266585D01*
X134436Y266687D01*
X134426Y266704D01*
X134422Y266724D01*
X134369Y266813D01*
X134320Y266904D01*
X134306Y266918D01*
X134296Y266935D01*
X134217Y267002D01*
X134142Y267074D01*
X134124Y267082D01*
X134109Y267095D01*
X134013Y267134D01*
X133919Y267177D01*
X133899Y267179D01*
X133881Y267187D01*
X133714Y267205D01*
X113993Y267205D01*
X113903Y267191D01*
X113812Y267183D01*
X113782Y267171D01*
X113750Y267166D01*
X113670Y267123D01*
X113586Y267087D01*
X113554Y267061D01*
X113533Y267050D01*
X113511Y267027D01*
X113455Y266982D01*
X104618Y258145D01*
X104565Y258071D01*
X104505Y258002D01*
X104493Y257972D01*
X104474Y257946D01*
X104447Y257859D01*
X104413Y257774D01*
X104409Y257733D01*
X104402Y257711D01*
X104403Y257678D01*
X104395Y257607D01*
X104395Y232613D01*
X104409Y232523D01*
X104417Y232432D01*
X104429Y232402D01*
X104434Y232370D01*
X104477Y232290D01*
X104513Y232206D01*
X104539Y232174D01*
X104550Y232153D01*
X104573Y232131D01*
X104618Y232075D01*
X111230Y225463D01*
X111246Y225451D01*
X111258Y225435D01*
X111346Y225379D01*
X111429Y225319D01*
X111448Y225313D01*
X111465Y225302D01*
X111566Y225277D01*
X111665Y225247D01*
X111684Y225247D01*
X111704Y225242D01*
X111807Y225250D01*
X111910Y225253D01*
X111929Y225260D01*
X111949Y225261D01*
X112044Y225302D01*
X112141Y225338D01*
X112157Y225350D01*
X112175Y225358D01*
X112306Y225463D01*
X113368Y226525D01*
X126632Y226525D01*
X127525Y225632D01*
X127525Y224556D01*
X127528Y224536D01*
X127526Y224517D01*
X127548Y224415D01*
X127564Y224313D01*
X127574Y224296D01*
X127578Y224276D01*
X127631Y224187D01*
X127680Y224096D01*
X127694Y224082D01*
X127704Y224065D01*
X127783Y223998D01*
X127858Y223926D01*
X127876Y223918D01*
X127891Y223905D01*
X127987Y223866D01*
X128081Y223823D01*
X128101Y223821D01*
X128119Y223813D01*
X128286Y223795D01*
X130678Y223795D01*
X134926Y219547D01*
X134984Y219505D01*
X135036Y219455D01*
X135083Y219433D01*
X135125Y219403D01*
X135194Y219382D01*
X135259Y219352D01*
X135311Y219346D01*
X135361Y219331D01*
X135432Y219333D01*
X135503Y219325D01*
X135554Y219336D01*
X135606Y219337D01*
X135674Y219362D01*
X135744Y219377D01*
X135789Y219404D01*
X135837Y219422D01*
X135893Y219466D01*
X135955Y219503D01*
X135989Y219543D01*
X136029Y219575D01*
X136068Y219636D01*
X136115Y219690D01*
X136134Y219738D01*
X136162Y219782D01*
X136180Y219852D01*
X136207Y219918D01*
X136215Y219990D01*
X136223Y220021D01*
X136221Y220044D01*
X136225Y220085D01*
X136225Y223631D01*
X137118Y224524D01*
X143882Y224524D01*
X144014Y224392D01*
X144109Y224323D01*
X144206Y224252D01*
X144210Y224250D01*
X144213Y224248D01*
X144327Y224213D01*
X144440Y224177D01*
X144445Y224177D01*
X144448Y224176D01*
X144567Y224179D01*
X144686Y224181D01*
X144690Y224182D01*
X144694Y224182D01*
X144805Y224223D01*
X144918Y224262D01*
X144921Y224265D01*
X144925Y224266D01*
X145018Y224341D01*
X145112Y224414D01*
X145115Y224418D01*
X145117Y224420D01*
X145125Y224432D01*
X145211Y224549D01*
X145217Y224559D01*
X145690Y225032D01*
X146269Y225367D01*
X146916Y225540D01*
X148626Y225540D01*
X148626Y217612D01*
X148629Y217593D01*
X148627Y217573D01*
X148649Y217471D01*
X148665Y217369D01*
X148675Y217352D01*
X148679Y217332D01*
X148732Y217243D01*
X148781Y217152D01*
X148795Y217138D01*
X148805Y217121D01*
X148884Y217054D01*
X148941Y217000D01*
X148927Y216992D01*
X148913Y216978D01*
X148896Y216968D01*
X148829Y216889D01*
X148757Y216814D01*
X148749Y216796D01*
X148736Y216781D01*
X148697Y216684D01*
X148654Y216591D01*
X148652Y216571D01*
X148644Y216553D01*
X148626Y216386D01*
X148626Y208458D01*
X146916Y208458D01*
X146269Y208631D01*
X145690Y208966D01*
X145217Y209439D01*
X145211Y209449D01*
X145137Y209540D01*
X145062Y209634D01*
X145058Y209636D01*
X145055Y209639D01*
X144956Y209701D01*
X144855Y209767D01*
X144851Y209768D01*
X144847Y209770D01*
X144732Y209797D01*
X144616Y209827D01*
X144612Y209826D01*
X144608Y209827D01*
X144489Y209817D01*
X144371Y209808D01*
X144367Y209806D01*
X144363Y209806D01*
X144253Y209758D01*
X144145Y209711D01*
X144141Y209708D01*
X144138Y209707D01*
X144127Y209697D01*
X144014Y209606D01*
X143708Y209301D01*
X143697Y209285D01*
X143681Y209272D01*
X143625Y209185D01*
X143565Y209101D01*
X143559Y209082D01*
X143548Y209065D01*
X143523Y208965D01*
X143492Y208866D01*
X143493Y208846D01*
X143488Y208827D01*
X143496Y208724D01*
X143499Y208620D01*
X143505Y208601D01*
X143507Y208582D01*
X143547Y208487D01*
X143583Y208389D01*
X143596Y208373D01*
X143603Y208355D01*
X143708Y208224D01*
X145715Y206218D01*
X145789Y206165D01*
X145858Y206105D01*
X145888Y206093D01*
X145914Y206074D01*
X146001Y206047D01*
X146086Y206013D01*
X146127Y206009D01*
X146149Y206002D01*
X146182Y206003D01*
X146253Y205995D01*
X153467Y205995D01*
X153557Y206009D01*
X153648Y206017D01*
X153678Y206029D01*
X153710Y206034D01*
X153790Y206077D01*
X153874Y206113D01*
X153907Y206139D01*
X153927Y206150D01*
X153949Y206173D01*
X154005Y206218D01*
X156152Y208364D01*
X156163Y208380D01*
X156179Y208393D01*
X156235Y208480D01*
X156295Y208564D01*
X156301Y208583D01*
X156312Y208600D01*
X156337Y208700D01*
X156368Y208799D01*
X156367Y208819D01*
X156372Y208838D01*
X156364Y208941D01*
X156361Y209045D01*
X156355Y209064D01*
X156353Y209083D01*
X156313Y209179D01*
X156277Y209276D01*
X156265Y209292D01*
X156257Y209310D01*
X156152Y209441D01*
X155986Y209606D01*
X155891Y209675D01*
X155794Y209746D01*
X155790Y209748D01*
X155787Y209750D01*
X155673Y209785D01*
X155560Y209821D01*
X155556Y209821D01*
X155552Y209822D01*
X155433Y209819D01*
X155314Y209817D01*
X155310Y209816D01*
X155306Y209816D01*
X155194Y209775D01*
X155082Y209736D01*
X155079Y209733D01*
X155075Y209732D01*
X154981Y209657D01*
X154888Y209584D01*
X154885Y209580D01*
X154883Y209578D01*
X154875Y209566D01*
X154789Y209449D01*
X154783Y209439D01*
X154310Y208966D01*
X153731Y208631D01*
X153084Y208458D01*
X151374Y208458D01*
X151374Y216386D01*
X151371Y216405D01*
X151373Y216425D01*
X151351Y216527D01*
X151335Y216629D01*
X151325Y216646D01*
X151321Y216666D01*
X151268Y216755D01*
X151219Y216846D01*
X151205Y216860D01*
X151195Y216877D01*
X151116Y216944D01*
X151059Y216998D01*
X151073Y217006D01*
X151087Y217020D01*
X151104Y217030D01*
X151171Y217109D01*
X151243Y217184D01*
X151251Y217202D01*
X151264Y217217D01*
X151303Y217314D01*
X151346Y217407D01*
X151348Y217427D01*
X151356Y217445D01*
X151374Y217612D01*
X151374Y225540D01*
X153084Y225540D01*
X153731Y225367D01*
X154310Y225032D01*
X154783Y224559D01*
X154789Y224549D01*
X154864Y224458D01*
X154938Y224364D01*
X154942Y224362D01*
X154945Y224359D01*
X155044Y224296D01*
X155145Y224231D01*
X155149Y224230D01*
X155153Y224228D01*
X155268Y224200D01*
X155384Y224171D01*
X155388Y224172D01*
X155392Y224171D01*
X155511Y224181D01*
X155629Y224190D01*
X155633Y224192D01*
X155637Y224192D01*
X155745Y224240D01*
X155855Y224287D01*
X155859Y224290D01*
X155862Y224291D01*
X155872Y224300D01*
X155986Y224392D01*
X156118Y224524D01*
X162882Y224524D01*
X163775Y223631D01*
X163775Y218788D01*
X163789Y218698D01*
X163797Y218607D01*
X163809Y218577D01*
X163814Y218545D01*
X163857Y218465D01*
X163893Y218381D01*
X163919Y218349D01*
X163930Y218328D01*
X163953Y218306D01*
X163998Y218250D01*
X172220Y210028D01*
X172294Y209975D01*
X172363Y209915D01*
X172393Y209903D01*
X172419Y209884D01*
X172506Y209857D01*
X172591Y209823D01*
X172632Y209819D01*
X172655Y209812D01*
X172687Y209813D01*
X172758Y209805D01*
X199804Y209805D01*
X222505Y187104D01*
X222505Y172179D01*
X222519Y172089D01*
X222527Y171998D01*
X222539Y171968D01*
X222544Y171936D01*
X222587Y171856D01*
X222623Y171772D01*
X222649Y171740D01*
X222660Y171719D01*
X222683Y171697D01*
X222728Y171641D01*
X228581Y165788D01*
X228655Y165735D01*
X228724Y165675D01*
X228754Y165663D01*
X228780Y165644D01*
X228867Y165617D01*
X228952Y165583D01*
X228993Y165579D01*
X229016Y165572D01*
X229048Y165573D01*
X229119Y165565D01*
X232714Y165565D01*
X232734Y165568D01*
X232753Y165566D01*
X232855Y165588D01*
X232957Y165604D01*
X232974Y165614D01*
X232994Y165618D01*
X233083Y165671D01*
X233174Y165720D01*
X233188Y165734D01*
X233205Y165744D01*
X233272Y165823D01*
X233344Y165898D01*
X233352Y165916D01*
X233365Y165931D01*
X233404Y166027D01*
X233447Y166121D01*
X233449Y166141D01*
X233457Y166159D01*
X233475Y166326D01*
X233475Y167632D01*
X234368Y168525D01*
X245632Y168525D01*
X246525Y167632D01*
X246525Y166326D01*
X246528Y166306D01*
X246526Y166287D01*
X246548Y166185D01*
X246564Y166083D01*
X246574Y166066D01*
X246578Y166046D01*
X246631Y165957D01*
X246680Y165866D01*
X246694Y165852D01*
X246704Y165835D01*
X246783Y165768D01*
X246858Y165696D01*
X246876Y165688D01*
X246891Y165675D01*
X246987Y165636D01*
X247081Y165593D01*
X247101Y165591D01*
X247119Y165583D01*
X247286Y165565D01*
X251664Y165565D01*
X260605Y156624D01*
X260605Y110076D01*
X245524Y94995D01*
X217899Y94995D01*
X217809Y94981D01*
X217718Y94973D01*
X217688Y94961D01*
X217656Y94956D01*
X217576Y94913D01*
X217492Y94877D01*
X217459Y94851D01*
X217439Y94840D01*
X217417Y94817D01*
X217361Y94772D01*
X215108Y92519D01*
X212504Y89915D01*
X187419Y89915D01*
X187329Y89901D01*
X187238Y89893D01*
X187208Y89881D01*
X187176Y89876D01*
X187096Y89833D01*
X187012Y89797D01*
X186980Y89771D01*
X186959Y89760D01*
X186937Y89737D01*
X186881Y89692D01*
X178788Y81599D01*
X178735Y81525D01*
X178675Y81456D01*
X178663Y81426D01*
X178644Y81400D01*
X178617Y81313D01*
X178583Y81228D01*
X178579Y81187D01*
X178572Y81164D01*
X178573Y81132D01*
X178565Y81061D01*
X178565Y77602D01*
X178568Y77582D01*
X178566Y77563D01*
X178588Y77461D01*
X178604Y77359D01*
X178614Y77342D01*
X178618Y77322D01*
X178671Y77233D01*
X178720Y77142D01*
X178734Y77128D01*
X178744Y77111D01*
X178823Y77044D01*
X178898Y76972D01*
X178916Y76964D01*
X178931Y76951D01*
X179027Y76912D01*
X179121Y76869D01*
X179141Y76867D01*
X179159Y76859D01*
X179326Y76841D01*
X181001Y76841D01*
X181001Y68549D01*
X179786Y68549D01*
X179766Y68546D01*
X179747Y68548D01*
X179645Y68526D01*
X179543Y68510D01*
X179526Y68500D01*
X179506Y68496D01*
X179417Y68443D01*
X179326Y68394D01*
X179312Y68380D01*
X179295Y68370D01*
X179228Y68291D01*
X179156Y68216D01*
X179148Y68198D01*
X179135Y68183D01*
X179096Y68087D01*
X179053Y67993D01*
X179051Y67973D01*
X179043Y67955D01*
X179025Y67788D01*
X179025Y66772D01*
X179028Y66752D01*
X179026Y66733D01*
X179048Y66631D01*
X179064Y66529D01*
X179074Y66512D01*
X179078Y66492D01*
X179131Y66403D01*
X179180Y66312D01*
X179194Y66298D01*
X179204Y66281D01*
X179283Y66214D01*
X179358Y66142D01*
X179376Y66134D01*
X179391Y66121D01*
X179487Y66082D01*
X179581Y66039D01*
X179601Y66037D01*
X179619Y66029D01*
X179786Y66011D01*
X181642Y66011D01*
X181710Y65995D01*
X181756Y65999D01*
X181801Y65994D01*
X181877Y66011D01*
X181955Y66018D01*
X181997Y66036D01*
X182042Y66046D01*
X182108Y66086D01*
X182179Y66118D01*
X182213Y66149D01*
X182253Y66172D01*
X182303Y66231D01*
X182361Y66284D01*
X182383Y66324D01*
X182413Y66359D01*
X182442Y66432D01*
X182477Y66496D01*
X182477Y66312D01*
X182480Y66292D01*
X182478Y66272D01*
X182500Y66171D01*
X182517Y66069D01*
X182526Y66052D01*
X182530Y66032D01*
X182583Y65943D01*
X182632Y65852D01*
X182646Y65838D01*
X182656Y65821D01*
X182735Y65754D01*
X182810Y65682D01*
X182828Y65674D01*
X182843Y65661D01*
X182940Y65622D01*
X183033Y65579D01*
X183053Y65577D01*
X183071Y65569D01*
X183238Y65551D01*
X188041Y65551D01*
X188041Y62740D01*
X188055Y62650D01*
X188063Y62559D01*
X188075Y62529D01*
X188080Y62497D01*
X188123Y62417D01*
X188159Y62333D01*
X188185Y62301D01*
X188196Y62280D01*
X188219Y62258D01*
X188264Y62202D01*
X190269Y60197D01*
X192311Y55268D01*
X192311Y49932D01*
X190269Y45003D01*
X186497Y41231D01*
X181568Y39189D01*
X180215Y39189D01*
X180144Y39178D01*
X180072Y39176D01*
X180023Y39158D01*
X179972Y39150D01*
X179909Y39116D01*
X179841Y39091D01*
X179801Y39059D01*
X179755Y39034D01*
X179705Y38982D01*
X179649Y38938D01*
X179621Y38894D01*
X179585Y38856D01*
X179555Y38791D01*
X179516Y38731D01*
X179504Y38680D01*
X179482Y38633D01*
X179474Y38562D01*
X179456Y38492D01*
X179460Y38440D01*
X179455Y38389D01*
X179470Y38318D01*
X179475Y38247D01*
X179496Y38199D01*
X179507Y38148D01*
X179544Y38087D01*
X179572Y38021D01*
X179617Y37965D01*
X179633Y37937D01*
X179651Y37922D01*
X179677Y37890D01*
X182701Y34866D01*
X182775Y34813D01*
X182844Y34753D01*
X182874Y34741D01*
X182900Y34722D01*
X182988Y34695D01*
X183072Y34661D01*
X183113Y34657D01*
X183135Y34650D01*
X183168Y34651D01*
X183239Y34643D01*
X228875Y34643D01*
X228965Y34657D01*
X229056Y34665D01*
X229086Y34677D01*
X229118Y34682D01*
X229198Y34725D01*
X229282Y34761D01*
X229314Y34787D01*
X229335Y34798D01*
X229357Y34821D01*
X229413Y34866D01*
X233252Y38705D01*
X233305Y38779D01*
X233365Y38848D01*
X233377Y38878D01*
X233396Y38904D01*
X233423Y38991D01*
X233457Y39076D01*
X233461Y39117D01*
X233468Y39139D01*
X233467Y39172D01*
X233475Y39243D01*
X233475Y47632D01*
X234368Y48525D01*
X245632Y48525D01*
X246525Y47632D01*
X246525Y35368D01*
X245632Y34475D01*
X237243Y34475D01*
X237153Y34461D01*
X237062Y34453D01*
X237032Y34441D01*
X237000Y34436D01*
X236920Y34393D01*
X236836Y34357D01*
X236804Y34331D01*
X236783Y34320D01*
X236761Y34297D01*
X236705Y34252D01*
X231506Y29053D01*
X180608Y29053D01*
X164705Y44956D01*
X164705Y57514D01*
X164702Y57534D01*
X164704Y57553D01*
X164682Y57655D01*
X164666Y57757D01*
X164656Y57774D01*
X164652Y57794D01*
X164599Y57883D01*
X164550Y57974D01*
X164536Y57988D01*
X164526Y58005D01*
X164447Y58072D01*
X164372Y58144D01*
X164354Y58152D01*
X164339Y58165D01*
X164243Y58204D01*
X164149Y58247D01*
X164129Y58249D01*
X164111Y58257D01*
X163944Y58275D01*
X160264Y58275D01*
X160202Y58291D01*
X160103Y58321D01*
X160083Y58321D01*
X160064Y58326D01*
X159961Y58318D01*
X159858Y58315D01*
X159839Y58308D01*
X159819Y58307D01*
X159745Y58275D01*
X156056Y58275D01*
X156036Y58272D01*
X156017Y58274D01*
X155915Y58252D01*
X155813Y58236D01*
X155796Y58226D01*
X155776Y58222D01*
X155687Y58169D01*
X155596Y58120D01*
X155582Y58106D01*
X155565Y58096D01*
X155498Y58017D01*
X155426Y57942D01*
X155418Y57924D01*
X155405Y57909D01*
X155366Y57813D01*
X155323Y57719D01*
X155321Y57699D01*
X155313Y57681D01*
X155295Y57514D01*
X155295Y53362D01*
X151018Y49085D01*
X143622Y49085D01*
X141762Y50945D01*
X141594Y51113D01*
X141536Y51155D01*
X141484Y51205D01*
X141437Y51227D01*
X141395Y51257D01*
X141326Y51278D01*
X141261Y51308D01*
X141209Y51314D01*
X141160Y51329D01*
X141088Y51327D01*
X141017Y51335D01*
X140966Y51324D01*
X140914Y51323D01*
X140846Y51298D01*
X140776Y51283D01*
X140731Y51256D01*
X140683Y51239D01*
X140627Y51194D01*
X140565Y51157D01*
X140531Y51117D01*
X140491Y51085D01*
X140452Y51025D01*
X140405Y50970D01*
X140386Y50922D01*
X140358Y50878D01*
X140340Y50808D01*
X140313Y50742D01*
X140305Y50671D01*
X140297Y50639D01*
X140299Y50616D01*
X140295Y50575D01*
X140295Y42362D01*
X125716Y27783D01*
X62906Y27783D01*
X57205Y33484D01*
X57205Y33714D01*
X57202Y33734D01*
X57204Y33753D01*
X57182Y33855D01*
X57166Y33957D01*
X57156Y33974D01*
X57152Y33994D01*
X57099Y34083D01*
X57050Y34174D01*
X57036Y34188D01*
X57026Y34205D01*
X56947Y34272D01*
X56872Y34344D01*
X56854Y34352D01*
X56839Y34365D01*
X56743Y34404D01*
X56649Y34447D01*
X56629Y34449D01*
X56611Y34457D01*
X56444Y34475D01*
X54368Y34475D01*
X53475Y35368D01*
X53475Y47632D01*
X54368Y48525D01*
X65632Y48525D01*
X66525Y47632D01*
X66525Y35368D01*
X65829Y34672D01*
X65787Y34614D01*
X65737Y34562D01*
X65715Y34515D01*
X65685Y34473D01*
X65664Y34404D01*
X65634Y34339D01*
X65628Y34287D01*
X65613Y34237D01*
X65615Y34166D01*
X65607Y34095D01*
X65618Y34044D01*
X65619Y33992D01*
X65644Y33924D01*
X65659Y33854D01*
X65686Y33809D01*
X65703Y33761D01*
X65748Y33705D01*
X65785Y33643D01*
X65825Y33609D01*
X65857Y33569D01*
X65917Y33530D01*
X65972Y33483D01*
X66020Y33464D01*
X66064Y33436D01*
X66134Y33418D01*
X66200Y33391D01*
X66271Y33383D01*
X66303Y33375D01*
X66326Y33377D01*
X66367Y33373D01*
X123085Y33373D01*
X123175Y33387D01*
X123266Y33395D01*
X123296Y33407D01*
X123328Y33412D01*
X123408Y33455D01*
X123492Y33491D01*
X123524Y33517D01*
X123545Y33528D01*
X123567Y33551D01*
X123623Y33596D01*
X134482Y44455D01*
X134535Y44529D01*
X134595Y44598D01*
X134607Y44628D01*
X134626Y44654D01*
X134653Y44741D01*
X134687Y44826D01*
X134691Y44867D01*
X134698Y44889D01*
X134697Y44922D01*
X134705Y44993D01*
X134705Y46575D01*
X134690Y46671D01*
X134680Y46768D01*
X134670Y46792D01*
X134666Y46818D01*
X134620Y46904D01*
X134580Y46993D01*
X134563Y47012D01*
X134550Y47035D01*
X134480Y47102D01*
X134414Y47174D01*
X134391Y47187D01*
X134372Y47205D01*
X134284Y47246D01*
X134198Y47293D01*
X134173Y47297D01*
X134149Y47308D01*
X134052Y47319D01*
X133956Y47336D01*
X133930Y47332D01*
X133905Y47335D01*
X133809Y47315D01*
X133713Y47300D01*
X133690Y47289D01*
X133664Y47283D01*
X133581Y47233D01*
X133494Y47189D01*
X133475Y47170D01*
X133453Y47157D01*
X133390Y47083D01*
X133322Y47013D01*
X133306Y46985D01*
X133293Y46970D01*
X133281Y46939D01*
X133241Y46866D01*
X132469Y45003D01*
X128697Y41231D01*
X123768Y39189D01*
X118432Y39189D01*
X113503Y41231D01*
X109731Y45003D01*
X107689Y49932D01*
X107689Y55268D01*
X109731Y60197D01*
X111736Y62202D01*
X111789Y62276D01*
X111849Y62345D01*
X111861Y62376D01*
X111880Y62402D01*
X111907Y62489D01*
X111941Y62574D01*
X111945Y62614D01*
X111952Y62637D01*
X111951Y62669D01*
X111959Y62740D01*
X111959Y65551D01*
X116762Y65551D01*
X116781Y65554D01*
X116801Y65552D01*
X116903Y65574D01*
X117005Y65590D01*
X117022Y65600D01*
X117042Y65604D01*
X117131Y65657D01*
X117222Y65706D01*
X117236Y65720D01*
X117253Y65730D01*
X117320Y65809D01*
X117391Y65884D01*
X117400Y65902D01*
X117413Y65917D01*
X117451Y66013D01*
X117495Y66107D01*
X117497Y66127D01*
X117505Y66145D01*
X117523Y66312D01*
X117523Y66499D01*
X117538Y66471D01*
X117551Y66427D01*
X117595Y66363D01*
X117632Y66294D01*
X117665Y66262D01*
X117691Y66225D01*
X117754Y66178D01*
X117810Y66125D01*
X117852Y66105D01*
X117889Y66078D01*
X117963Y66054D01*
X118033Y66021D01*
X118079Y66016D01*
X118123Y66002D01*
X118201Y66003D01*
X118278Y65994D01*
X118323Y66004D01*
X118369Y66004D01*
X118391Y66011D01*
X120214Y66011D01*
X120234Y66014D01*
X120253Y66012D01*
X120355Y66034D01*
X120457Y66050D01*
X120474Y66060D01*
X120494Y66064D01*
X120583Y66117D01*
X120674Y66166D01*
X120688Y66180D01*
X120705Y66190D01*
X120772Y66269D01*
X120844Y66344D01*
X120852Y66362D01*
X120865Y66377D01*
X120904Y66473D01*
X120947Y66567D01*
X120949Y66587D01*
X120957Y66605D01*
X120975Y66772D01*
X120975Y67788D01*
X120972Y67808D01*
X120974Y67827D01*
X120952Y67929D01*
X120936Y68031D01*
X120926Y68048D01*
X120922Y68068D01*
X120869Y68157D01*
X120820Y68248D01*
X120806Y68262D01*
X120796Y68279D01*
X120717Y68346D01*
X120642Y68418D01*
X120624Y68426D01*
X120609Y68439D01*
X120513Y68478D01*
X120419Y68521D01*
X120399Y68523D01*
X120381Y68531D01*
X120214Y68549D01*
X118999Y68549D01*
X118999Y76841D01*
X120674Y76841D01*
X120694Y76844D01*
X120713Y76842D01*
X120815Y76864D01*
X120917Y76880D01*
X120934Y76890D01*
X120954Y76894D01*
X121043Y76947D01*
X121134Y76996D01*
X121148Y77010D01*
X121165Y77020D01*
X121232Y77099D01*
X121304Y77174D01*
X121312Y77192D01*
X121325Y77207D01*
X121364Y77303D01*
X121407Y77397D01*
X121409Y77417D01*
X121417Y77435D01*
X121435Y77602D01*
X121435Y99244D01*
X130396Y108205D01*
X131159Y108205D01*
X131249Y108219D01*
X131340Y108227D01*
X131369Y108239D01*
X131401Y108244D01*
X131482Y108287D01*
X131566Y108323D01*
X131598Y108349D01*
X131619Y108360D01*
X131641Y108383D01*
X131697Y108428D01*
X133726Y110457D01*
X133779Y110531D01*
X133839Y110600D01*
X133851Y110631D01*
X133870Y110657D01*
X133897Y110744D01*
X133931Y110829D01*
X133935Y110870D01*
X133942Y110892D01*
X133941Y110924D01*
X133949Y110995D01*
X133949Y113714D01*
X133948Y113725D01*
X133948Y113731D01*
X133947Y113739D01*
X133948Y113753D01*
X133926Y113855D01*
X133910Y113957D01*
X133900Y113974D01*
X133896Y113994D01*
X133843Y114083D01*
X133794Y114174D01*
X133780Y114188D01*
X133770Y114205D01*
X133691Y114272D01*
X133616Y114344D01*
X133598Y114352D01*
X133583Y114365D01*
X133487Y114404D01*
X133393Y114447D01*
X133373Y114449D01*
X133355Y114457D01*
X133188Y114475D01*
X127318Y114475D01*
X126425Y115368D01*
X126425Y128632D01*
X127318Y129525D01*
X127394Y129525D01*
X127414Y129528D01*
X127433Y129526D01*
X127535Y129548D01*
X127637Y129564D01*
X127654Y129574D01*
X127674Y129578D01*
X127763Y129631D01*
X127854Y129680D01*
X127868Y129694D01*
X127885Y129704D01*
X127952Y129783D01*
X128024Y129858D01*
X128032Y129876D01*
X128045Y129891D01*
X128084Y129987D01*
X128127Y130081D01*
X128129Y130101D01*
X128137Y130119D01*
X128155Y130286D01*
X128155Y136817D01*
X128141Y136907D01*
X128133Y136998D01*
X128121Y137028D01*
X128116Y137060D01*
X128073Y137140D01*
X128037Y137224D01*
X128011Y137256D01*
X128000Y137277D01*
X127977Y137299D01*
X127932Y137355D01*
X123525Y141762D01*
X123451Y141815D01*
X123382Y141875D01*
X123352Y141887D01*
X123326Y141906D01*
X123239Y141933D01*
X123154Y141967D01*
X123113Y141971D01*
X123091Y141978D01*
X123058Y141977D01*
X122987Y141985D01*
X115265Y141985D01*
X115194Y141974D01*
X115122Y141972D01*
X115073Y141954D01*
X115022Y141946D01*
X114959Y141912D01*
X114891Y141887D01*
X114851Y141855D01*
X114805Y141830D01*
X114755Y141778D01*
X114699Y141733D01*
X114671Y141690D01*
X114635Y141652D01*
X114605Y141587D01*
X114566Y141527D01*
X114554Y141476D01*
X114532Y141429D01*
X114524Y141358D01*
X114506Y141288D01*
X114510Y141236D01*
X114505Y141185D01*
X114520Y141114D01*
X114526Y141043D01*
X114546Y140995D01*
X114557Y140944D01*
X114594Y140883D01*
X114622Y140816D01*
X114667Y140761D01*
X114683Y140733D01*
X114701Y140718D01*
X114727Y140686D01*
X114778Y140635D01*
X119185Y136228D01*
X121045Y134368D01*
X121045Y130286D01*
X121048Y130266D01*
X121046Y130247D01*
X121068Y130145D01*
X121084Y130043D01*
X121094Y130026D01*
X121098Y130006D01*
X121151Y129917D01*
X121200Y129826D01*
X121214Y129812D01*
X121224Y129795D01*
X121303Y129728D01*
X121378Y129656D01*
X121396Y129648D01*
X121411Y129635D01*
X121507Y129596D01*
X121601Y129553D01*
X121621Y129551D01*
X121639Y129543D01*
X121806Y129525D01*
X121882Y129525D01*
X122775Y128632D01*
X122775Y115368D01*
X121882Y114475D01*
X114618Y114475D01*
X113725Y115368D01*
X113725Y128632D01*
X114618Y129525D01*
X114694Y129525D01*
X114714Y129528D01*
X114733Y129526D01*
X114835Y129548D01*
X114937Y129564D01*
X114954Y129574D01*
X114974Y129578D01*
X115063Y129631D01*
X115154Y129680D01*
X115168Y129694D01*
X115185Y129704D01*
X115252Y129783D01*
X115324Y129858D01*
X115332Y129876D01*
X115345Y129891D01*
X115384Y129987D01*
X115427Y130081D01*
X115429Y130101D01*
X115437Y130119D01*
X115455Y130286D01*
X115455Y131737D01*
X115441Y131827D01*
X115433Y131918D01*
X115421Y131948D01*
X115416Y131980D01*
X115373Y132061D01*
X115337Y132144D01*
X115311Y132177D01*
X115300Y132197D01*
X115277Y132219D01*
X115232Y132275D01*
X110825Y136682D01*
X110751Y136735D01*
X110682Y136795D01*
X110652Y136807D01*
X110626Y136826D01*
X110539Y136853D01*
X110454Y136887D01*
X110413Y136891D01*
X110391Y136898D01*
X110358Y136897D01*
X110287Y136905D01*
X90373Y136905D01*
X90283Y136891D01*
X90192Y136883D01*
X90162Y136871D01*
X90130Y136866D01*
X90050Y136823D01*
X89966Y136787D01*
X89934Y136761D01*
X89913Y136750D01*
X89891Y136727D01*
X89835Y136682D01*
X71588Y118435D01*
X67286Y118435D01*
X67266Y118432D01*
X67247Y118434D01*
X67145Y118412D01*
X67043Y118396D01*
X67026Y118386D01*
X67006Y118382D01*
X66917Y118329D01*
X66826Y118280D01*
X66812Y118266D01*
X66795Y118256D01*
X66728Y118177D01*
X66656Y118102D01*
X66648Y118084D01*
X66635Y118069D01*
X66596Y117973D01*
X66553Y117879D01*
X66551Y117859D01*
X66543Y117841D01*
X66525Y117674D01*
X66525Y116477D01*
X64753Y114705D01*
X63556Y114705D01*
X63536Y114702D01*
X63517Y114704D01*
X63415Y114682D01*
X63313Y114666D01*
X63296Y114656D01*
X63276Y114652D01*
X63187Y114599D01*
X63096Y114550D01*
X63082Y114536D01*
X63065Y114526D01*
X62998Y114447D01*
X62926Y114372D01*
X62918Y114354D01*
X62905Y114339D01*
X62866Y114243D01*
X62823Y114149D01*
X62821Y114129D01*
X62813Y114111D01*
X62795Y113944D01*
X62795Y112182D01*
X54498Y103885D01*
X24242Y103885D01*
X12445Y115682D01*
X12445Y323738D01*
X76485Y387778D01*
X76527Y387836D01*
X76577Y387888D01*
X76599Y387935D01*
X76629Y387977D01*
X76650Y388046D01*
X76680Y388111D01*
X76686Y388163D01*
X76701Y388213D01*
X76699Y388284D01*
X76707Y388355D01*
X76696Y388406D01*
X76695Y388458D01*
X76670Y388526D01*
X76655Y388596D01*
X76628Y388641D01*
X76610Y388689D01*
X76566Y388745D01*
X76529Y388807D01*
X76489Y388841D01*
X76457Y388881D01*
X76396Y388920D01*
X76342Y388967D01*
X76294Y388986D01*
X76250Y389014D01*
X76180Y389032D01*
X76114Y389059D01*
X76042Y389067D01*
X76011Y389075D01*
X75988Y389073D01*
X75947Y389077D01*
X74840Y389077D01*
X74750Y389063D01*
X74659Y389055D01*
X74629Y389043D01*
X74597Y389038D01*
X74516Y388995D01*
X74432Y388959D01*
X74400Y388933D01*
X74380Y388922D01*
X74357Y388899D01*
X74301Y388854D01*
X11146Y325699D01*
X11093Y325625D01*
X11033Y325555D01*
X11021Y325525D01*
X11002Y325499D01*
X10975Y325412D01*
X10941Y325327D01*
X10937Y325286D01*
X10930Y325264D01*
X10931Y325232D01*
X10923Y325160D01*
X10923Y74840D01*
X10924Y74831D01*
X10924Y74828D01*
X10927Y74813D01*
X10937Y74750D01*
X10945Y74659D01*
X10957Y74629D01*
X10962Y74597D01*
X11005Y74516D01*
X11041Y74432D01*
X11067Y74400D01*
X11078Y74380D01*
X11101Y74357D01*
X11146Y74301D01*
X74301Y11146D01*
X74375Y11093D01*
X74445Y11033D01*
X74475Y11021D01*
X74501Y11002D01*
X74588Y10975D01*
X74673Y10941D01*
X74714Y10937D01*
X74736Y10930D01*
X74768Y10931D01*
X74840Y10923D01*
X225160Y10923D01*
X225250Y10937D01*
G37*
%LPC*%
G36*
X264368Y171475D02*
X264368Y171475D01*
X263475Y172368D01*
X263475Y178961D01*
X263461Y179051D01*
X263453Y179142D01*
X263441Y179172D01*
X263436Y179204D01*
X263393Y179284D01*
X263357Y179368D01*
X263331Y179400D01*
X263320Y179421D01*
X263297Y179443D01*
X263252Y179499D01*
X226039Y216712D01*
X225965Y216765D01*
X225896Y216825D01*
X225866Y216837D01*
X225840Y216856D01*
X225753Y216883D01*
X225668Y216917D01*
X225627Y216921D01*
X225604Y216928D01*
X225572Y216927D01*
X225501Y216935D01*
X188286Y216935D01*
X188266Y216932D01*
X188247Y216934D01*
X188145Y216912D01*
X188043Y216896D01*
X188026Y216886D01*
X188006Y216882D01*
X187917Y216829D01*
X187826Y216780D01*
X187812Y216766D01*
X187795Y216756D01*
X187728Y216677D01*
X187656Y216602D01*
X187648Y216584D01*
X187635Y216569D01*
X187596Y216473D01*
X187568Y216412D01*
X186632Y215475D01*
X173368Y215475D01*
X172475Y216368D01*
X172475Y222461D01*
X172461Y222551D01*
X172453Y222642D01*
X172441Y222672D01*
X172436Y222704D01*
X172393Y222784D01*
X172357Y222868D01*
X172331Y222900D01*
X172320Y222921D01*
X172297Y222943D01*
X172252Y222999D01*
X166875Y228376D01*
X166801Y228429D01*
X166732Y228489D01*
X166702Y228501D01*
X166676Y228520D01*
X166589Y228547D01*
X166504Y228581D01*
X166463Y228585D01*
X166441Y228592D01*
X166408Y228591D01*
X166337Y228599D01*
X149192Y228599D01*
X146588Y231203D01*
X145572Y232219D01*
X142538Y235253D01*
X142464Y235306D01*
X142395Y235366D01*
X142365Y235378D01*
X142339Y235397D01*
X142252Y235424D01*
X142167Y235458D01*
X142126Y235462D01*
X142103Y235469D01*
X142071Y235468D01*
X142000Y235476D01*
X137118Y235476D01*
X136225Y236369D01*
X136225Y249633D01*
X137118Y250526D01*
X143882Y250526D01*
X144775Y249633D01*
X144775Y244829D01*
X144789Y244739D01*
X144797Y244648D01*
X144809Y244618D01*
X144814Y244586D01*
X144857Y244506D01*
X144893Y244422D01*
X144919Y244390D01*
X144930Y244369D01*
X144953Y244347D01*
X144998Y244291D01*
X151321Y237968D01*
X152337Y236952D01*
X152411Y236899D01*
X152480Y236839D01*
X152510Y236827D01*
X152536Y236808D01*
X152623Y236781D01*
X152708Y236747D01*
X152749Y236743D01*
X152771Y236736D01*
X152804Y236737D01*
X152875Y236729D01*
X154464Y236729D01*
X154484Y236732D01*
X154503Y236730D01*
X154605Y236752D01*
X154707Y236768D01*
X154724Y236778D01*
X154744Y236782D01*
X154833Y236835D01*
X154924Y236884D01*
X154938Y236898D01*
X154955Y236908D01*
X155022Y236987D01*
X155094Y237062D01*
X155102Y237080D01*
X155115Y237095D01*
X155154Y237191D01*
X155197Y237285D01*
X155199Y237305D01*
X155207Y237323D01*
X155225Y237490D01*
X155225Y249633D01*
X156118Y250526D01*
X162882Y250526D01*
X163775Y249633D01*
X163775Y237490D01*
X163778Y237470D01*
X163776Y237451D01*
X163798Y237349D01*
X163814Y237247D01*
X163824Y237230D01*
X163828Y237210D01*
X163881Y237121D01*
X163930Y237030D01*
X163944Y237016D01*
X163954Y236999D01*
X164033Y236932D01*
X164108Y236860D01*
X164126Y236852D01*
X164141Y236839D01*
X164237Y236800D01*
X164331Y236757D01*
X164351Y236755D01*
X164369Y236747D01*
X164536Y236729D01*
X170020Y236729D01*
X170160Y236589D01*
X170218Y236547D01*
X170270Y236497D01*
X170317Y236475D01*
X170359Y236445D01*
X170428Y236424D01*
X170493Y236394D01*
X170545Y236388D01*
X170595Y236373D01*
X170666Y236375D01*
X170737Y236367D01*
X170788Y236378D01*
X170840Y236379D01*
X170908Y236404D01*
X170978Y236419D01*
X171023Y236446D01*
X171071Y236464D01*
X171127Y236508D01*
X171189Y236545D01*
X171223Y236585D01*
X171263Y236617D01*
X171302Y236677D01*
X171349Y236732D01*
X171368Y236780D01*
X171396Y236824D01*
X171414Y236894D01*
X171441Y236960D01*
X171449Y237032D01*
X171457Y237063D01*
X171455Y237086D01*
X171459Y237127D01*
X171459Y237477D01*
X178477Y237477D01*
X178477Y232459D01*
X176127Y232459D01*
X176056Y232448D01*
X175984Y232446D01*
X175935Y232428D01*
X175884Y232420D01*
X175821Y232386D01*
X175753Y232361D01*
X175713Y232329D01*
X175667Y232304D01*
X175617Y232253D01*
X175561Y232208D01*
X175533Y232164D01*
X175497Y232126D01*
X175467Y232061D01*
X175428Y232001D01*
X175416Y231950D01*
X175394Y231903D01*
X175386Y231832D01*
X175368Y231762D01*
X175372Y231710D01*
X175367Y231659D01*
X175382Y231588D01*
X175388Y231517D01*
X175408Y231469D01*
X175419Y231418D01*
X175456Y231357D01*
X175484Y231291D01*
X175529Y231235D01*
X175545Y231207D01*
X175556Y231198D01*
X175558Y231194D01*
X175568Y231186D01*
X175589Y231160D01*
X180001Y226748D01*
X180075Y226695D01*
X180144Y226635D01*
X180174Y226623D01*
X180200Y226604D01*
X180287Y226577D01*
X180372Y226543D01*
X180413Y226539D01*
X180435Y226532D01*
X180468Y226533D01*
X180539Y226525D01*
X186632Y226525D01*
X187563Y225594D01*
X187564Y225583D01*
X187574Y225566D01*
X187578Y225546D01*
X187631Y225457D01*
X187680Y225366D01*
X187694Y225352D01*
X187704Y225335D01*
X187783Y225268D01*
X187858Y225196D01*
X187876Y225188D01*
X187891Y225175D01*
X187987Y225136D01*
X188081Y225093D01*
X188101Y225091D01*
X188119Y225083D01*
X188286Y225065D01*
X208077Y225065D01*
X208167Y225079D01*
X208258Y225087D01*
X208288Y225099D01*
X208320Y225104D01*
X208400Y225147D01*
X208484Y225183D01*
X208516Y225209D01*
X208537Y225220D01*
X208559Y225243D01*
X208615Y225288D01*
X210342Y227015D01*
X210395Y227089D01*
X210455Y227158D01*
X210467Y227188D01*
X210486Y227214D01*
X210513Y227301D01*
X210547Y227386D01*
X210551Y227427D01*
X210558Y227449D01*
X210557Y227482D01*
X210565Y227553D01*
X210565Y244330D01*
X221010Y254775D01*
X221057Y254840D01*
X221072Y254856D01*
X221075Y254863D01*
X221123Y254919D01*
X221135Y254949D01*
X221154Y254975D01*
X221181Y255062D01*
X221215Y255147D01*
X221219Y255188D01*
X221226Y255210D01*
X221225Y255242D01*
X221233Y255314D01*
X221233Y335930D01*
X232751Y347447D01*
X232804Y347521D01*
X232864Y347591D01*
X232876Y347621D01*
X232895Y347647D01*
X232921Y347734D01*
X232955Y347819D01*
X232960Y347860D01*
X232967Y347882D01*
X232966Y347914D01*
X232974Y347986D01*
X232974Y361807D01*
X232959Y361897D01*
X232952Y361988D01*
X232939Y362018D01*
X232934Y362050D01*
X232891Y362131D01*
X232856Y362215D01*
X232830Y362247D01*
X232819Y362267D01*
X232796Y362290D01*
X232751Y362346D01*
X230462Y364635D01*
X230462Y369031D01*
X233571Y372139D01*
X237967Y372139D01*
X241075Y369031D01*
X241075Y364635D01*
X238786Y362346D01*
X238733Y362272D01*
X238674Y362202D01*
X238662Y362172D01*
X238643Y362146D01*
X238616Y362059D01*
X238582Y361974D01*
X238577Y361933D01*
X238570Y361911D01*
X238571Y361879D01*
X238563Y361807D01*
X238563Y345355D01*
X227046Y333837D01*
X226993Y333763D01*
X226933Y333694D01*
X226921Y333664D01*
X226902Y333638D01*
X226875Y333551D01*
X226841Y333466D01*
X226837Y333425D01*
X226830Y333403D01*
X226831Y333370D01*
X226823Y333299D01*
X226823Y252683D01*
X216378Y242238D01*
X216325Y242164D01*
X216265Y242095D01*
X216253Y242064D01*
X216234Y242038D01*
X216207Y241951D01*
X216173Y241866D01*
X216169Y241825D01*
X216162Y241803D01*
X216163Y241771D01*
X216155Y241700D01*
X216155Y227533D01*
X216169Y227443D01*
X216177Y227352D01*
X216189Y227322D01*
X216194Y227290D01*
X216237Y227210D01*
X216273Y227126D01*
X216299Y227094D01*
X216310Y227073D01*
X216333Y227051D01*
X216378Y226995D01*
X218085Y225288D01*
X218159Y225235D01*
X218228Y225175D01*
X218258Y225163D01*
X218284Y225144D01*
X218371Y225117D01*
X218456Y225083D01*
X218497Y225079D01*
X218519Y225072D01*
X218552Y225073D01*
X218623Y225065D01*
X229184Y225065D01*
X268501Y185748D01*
X268575Y185695D01*
X268644Y185635D01*
X268674Y185623D01*
X268700Y185604D01*
X268787Y185577D01*
X268872Y185543D01*
X268913Y185539D01*
X268935Y185532D01*
X268968Y185533D01*
X269039Y185525D01*
X275632Y185525D01*
X276525Y184632D01*
X276525Y172368D01*
X275632Y171475D01*
X264368Y171475D01*
G37*
%LPD*%
%LPC*%
G36*
X265247Y132245D02*
X265247Y132245D01*
X263475Y134017D01*
X263475Y143523D01*
X265258Y145305D01*
X265315Y145318D01*
X265417Y145334D01*
X265434Y145344D01*
X265454Y145348D01*
X265543Y145401D01*
X265634Y145450D01*
X265648Y145464D01*
X265665Y145474D01*
X265732Y145553D01*
X265804Y145628D01*
X265812Y145646D01*
X265825Y145661D01*
X265864Y145757D01*
X265907Y145851D01*
X265909Y145871D01*
X265917Y145889D01*
X265935Y146056D01*
X265935Y153714D01*
X265932Y153734D01*
X265934Y153753D01*
X265912Y153855D01*
X265896Y153957D01*
X265886Y153974D01*
X265882Y153994D01*
X265829Y154083D01*
X265780Y154174D01*
X265766Y154188D01*
X265756Y154205D01*
X265677Y154272D01*
X265602Y154344D01*
X265584Y154352D01*
X265569Y154365D01*
X265473Y154404D01*
X265379Y154447D01*
X265359Y154449D01*
X265341Y154457D01*
X265174Y154475D01*
X264368Y154475D01*
X263475Y155368D01*
X263475Y167632D01*
X264368Y168525D01*
X275632Y168525D01*
X276525Y167632D01*
X276525Y155368D01*
X275632Y154475D01*
X274826Y154475D01*
X274806Y154472D01*
X274787Y154474D01*
X274685Y154452D01*
X274583Y154436D01*
X274566Y154426D01*
X274546Y154422D01*
X274457Y154369D01*
X274366Y154320D01*
X274352Y154306D01*
X274335Y154296D01*
X274268Y154217D01*
X274196Y154142D01*
X274188Y154124D01*
X274175Y154109D01*
X274136Y154013D01*
X274093Y153919D01*
X274091Y153899D01*
X274083Y153881D01*
X274065Y153714D01*
X274065Y146056D01*
X274068Y146036D01*
X274066Y146017D01*
X274088Y145915D01*
X274104Y145813D01*
X274114Y145796D01*
X274118Y145776D01*
X274171Y145687D01*
X274220Y145596D01*
X274234Y145582D01*
X274244Y145565D01*
X274323Y145498D01*
X274398Y145426D01*
X274416Y145418D01*
X274431Y145405D01*
X274527Y145366D01*
X274621Y145323D01*
X274641Y145321D01*
X274659Y145313D01*
X274744Y145304D01*
X276525Y143523D01*
X276525Y134017D01*
X274753Y132245D01*
X265247Y132245D01*
G37*
%LPD*%
%LPC*%
G36*
X152718Y170475D02*
X152718Y170475D01*
X151825Y171368D01*
X151825Y184632D01*
X152718Y185525D01*
X159982Y185525D01*
X160875Y184632D01*
X160875Y171368D01*
X159982Y170475D01*
X152718Y170475D01*
G37*
%LPD*%
%LPC*%
G36*
X114618Y170475D02*
X114618Y170475D01*
X113725Y171368D01*
X113725Y184632D01*
X114618Y185525D01*
X121882Y185525D01*
X122775Y184632D01*
X122775Y171368D01*
X121882Y170475D01*
X114618Y170475D01*
G37*
%LPD*%
%LPC*%
G36*
X190818Y170475D02*
X190818Y170475D01*
X189925Y171368D01*
X189925Y184632D01*
X190818Y185525D01*
X198082Y185525D01*
X198975Y184632D01*
X198975Y171368D01*
X198082Y170475D01*
X190818Y170475D01*
G37*
%LPD*%
%LPC*%
G36*
X178118Y170475D02*
X178118Y170475D01*
X177225Y171368D01*
X177225Y184632D01*
X178118Y185525D01*
X185382Y185525D01*
X186275Y184632D01*
X186275Y171368D01*
X185382Y170475D01*
X178118Y170475D01*
G37*
%LPD*%
%LPC*%
G36*
X165418Y170475D02*
X165418Y170475D01*
X164525Y171368D01*
X164525Y184632D01*
X165418Y185525D01*
X172682Y185525D01*
X173575Y184632D01*
X173575Y171368D01*
X172682Y170475D01*
X165418Y170475D01*
G37*
%LPD*%
%LPC*%
G36*
X215023Y371523D02*
X215023Y371523D01*
X215023Y379246D01*
X217330Y379246D01*
X222746Y373830D01*
X222746Y371523D01*
X215023Y371523D01*
G37*
%LPD*%
%LPC*%
G36*
X215023Y360754D02*
X215023Y360754D01*
X215023Y368477D01*
X222746Y368477D01*
X222746Y366170D01*
X217330Y360754D01*
X215023Y360754D01*
G37*
%LPD*%
%LPC*%
G36*
X160023Y271523D02*
X160023Y271523D01*
X160023Y277541D01*
X164334Y277541D01*
X164981Y277368D01*
X165560Y277033D01*
X166033Y276560D01*
X166368Y275981D01*
X166541Y275334D01*
X166541Y271523D01*
X160023Y271523D01*
G37*
%LPD*%
%LPC*%
G36*
X61523Y60023D02*
X61523Y60023D01*
X61523Y66541D01*
X65335Y66541D01*
X65981Y66368D01*
X66560Y66033D01*
X67033Y65560D01*
X67368Y64981D01*
X67541Y64334D01*
X67541Y60023D01*
X61523Y60023D01*
G37*
%LPD*%
%LPC*%
G36*
X241523Y60023D02*
X241523Y60023D01*
X241523Y66541D01*
X245335Y66541D01*
X245981Y66368D01*
X246560Y66033D01*
X247033Y65560D01*
X247368Y64981D01*
X247541Y64334D01*
X247541Y60023D01*
X241523Y60023D01*
G37*
%LPD*%
%LPC*%
G36*
X241523Y140023D02*
X241523Y140023D01*
X241523Y146541D01*
X245335Y146541D01*
X245981Y146368D01*
X246560Y146033D01*
X247033Y145560D01*
X247368Y144981D01*
X247541Y144334D01*
X247541Y140023D01*
X241523Y140023D01*
G37*
%LPD*%
%LPC*%
G36*
X241523Y180023D02*
X241523Y180023D01*
X241523Y186541D01*
X245335Y186541D01*
X245981Y186368D01*
X246560Y186033D01*
X247033Y185560D01*
X247368Y184981D01*
X247541Y184334D01*
X247541Y180023D01*
X241523Y180023D01*
G37*
%LPD*%
%LPC*%
G36*
X150459Y271523D02*
X150459Y271523D01*
X150459Y275334D01*
X150632Y275981D01*
X150967Y276560D01*
X151440Y277033D01*
X152019Y277368D01*
X152666Y277541D01*
X156977Y277541D01*
X156977Y271523D01*
X150459Y271523D01*
G37*
%LPD*%
%LPC*%
G36*
X61523Y50459D02*
X61523Y50459D01*
X61523Y56977D01*
X67541Y56977D01*
X67541Y52666D01*
X67368Y52019D01*
X67033Y51440D01*
X66560Y50967D01*
X65981Y50632D01*
X65334Y50459D01*
X61523Y50459D01*
G37*
%LPD*%
%LPC*%
G36*
X241523Y170459D02*
X241523Y170459D01*
X241523Y176977D01*
X247541Y176977D01*
X247541Y172666D01*
X247368Y172019D01*
X247033Y171440D01*
X246560Y170967D01*
X245981Y170632D01*
X245334Y170459D01*
X241523Y170459D01*
G37*
%LPD*%
%LPC*%
G36*
X241523Y50459D02*
X241523Y50459D01*
X241523Y56977D01*
X247541Y56977D01*
X247541Y52666D01*
X247368Y52019D01*
X247033Y51440D01*
X246560Y50967D01*
X245981Y50632D01*
X245334Y50459D01*
X241523Y50459D01*
G37*
%LPD*%
%LPC*%
G36*
X52459Y60023D02*
X52459Y60023D01*
X52459Y64334D01*
X52632Y64981D01*
X52967Y65560D01*
X53440Y66033D01*
X54019Y66368D01*
X54666Y66541D01*
X58477Y66541D01*
X58477Y60023D01*
X52459Y60023D01*
G37*
%LPD*%
%LPC*%
G36*
X232459Y60023D02*
X232459Y60023D01*
X232459Y64334D01*
X232632Y64981D01*
X232967Y65560D01*
X233440Y66033D01*
X234019Y66368D01*
X234666Y66541D01*
X238477Y66541D01*
X238477Y60023D01*
X232459Y60023D01*
G37*
%LPD*%
%LPC*%
G36*
X232459Y140023D02*
X232459Y140023D01*
X232459Y144334D01*
X232632Y144981D01*
X232967Y145560D01*
X233440Y146033D01*
X234019Y146368D01*
X234666Y146541D01*
X238477Y146541D01*
X238477Y140023D01*
X232459Y140023D01*
G37*
%LPD*%
%LPC*%
G36*
X232459Y180023D02*
X232459Y180023D01*
X232459Y184334D01*
X232632Y184981D01*
X232967Y185560D01*
X233440Y186033D01*
X234019Y186368D01*
X234666Y186541D01*
X238477Y186541D01*
X238477Y180023D01*
X232459Y180023D01*
G37*
%LPD*%
%LPC*%
G36*
X160023Y262459D02*
X160023Y262459D01*
X160023Y268477D01*
X166541Y268477D01*
X166541Y264665D01*
X166368Y264019D01*
X166033Y263440D01*
X165560Y262967D01*
X164981Y262632D01*
X164334Y262459D01*
X160023Y262459D01*
G37*
%LPD*%
%LPC*%
G36*
X152666Y262459D02*
X152666Y262459D01*
X152019Y262632D01*
X151440Y262967D01*
X150967Y263440D01*
X150632Y264019D01*
X150459Y264666D01*
X150459Y268477D01*
X156977Y268477D01*
X156977Y262459D01*
X152666Y262459D01*
G37*
%LPD*%
%LPC*%
G36*
X234666Y50459D02*
X234666Y50459D01*
X234019Y50632D01*
X233440Y50967D01*
X232967Y51440D01*
X232632Y52019D01*
X232459Y52666D01*
X232459Y56977D01*
X238477Y56977D01*
X238477Y50459D01*
X234666Y50459D01*
G37*
%LPD*%
%LPC*%
G36*
X234666Y170459D02*
X234666Y170459D01*
X234019Y170632D01*
X233440Y170967D01*
X232967Y171440D01*
X232632Y172019D01*
X232459Y172666D01*
X232459Y176977D01*
X238477Y176977D01*
X238477Y170459D01*
X234666Y170459D01*
G37*
%LPD*%
%LPC*%
G36*
X54666Y50459D02*
X54666Y50459D01*
X54019Y50632D01*
X53440Y50967D01*
X52967Y51440D01*
X52632Y52019D01*
X52459Y52666D01*
X52459Y56977D01*
X58477Y56977D01*
X58477Y50459D01*
X54666Y50459D01*
G37*
%LPD*%
%LPC*%
G36*
X181523Y240523D02*
X181523Y240523D01*
X181523Y245541D01*
X186334Y245541D01*
X186981Y245368D01*
X187560Y245033D01*
X188033Y244560D01*
X188368Y243981D01*
X188541Y243334D01*
X188541Y240523D01*
X181523Y240523D01*
G37*
%LPD*%
%LPC*%
G36*
X121523Y240523D02*
X121523Y240523D01*
X121523Y245541D01*
X126334Y245541D01*
X126981Y245368D01*
X127560Y245033D01*
X128033Y244560D01*
X128368Y243981D01*
X128541Y243334D01*
X128541Y240523D01*
X121523Y240523D01*
G37*
%LPD*%
%LPC*%
G36*
X111459Y240523D02*
X111459Y240523D01*
X111459Y243334D01*
X111632Y243981D01*
X111967Y244560D01*
X112440Y245033D01*
X113019Y245368D01*
X113666Y245541D01*
X118477Y245541D01*
X118477Y240523D01*
X111459Y240523D01*
G37*
%LPD*%
%LPC*%
G36*
X171459Y240523D02*
X171459Y240523D01*
X171459Y243334D01*
X171632Y243981D01*
X171967Y244560D01*
X172440Y245033D01*
X173019Y245368D01*
X173666Y245541D01*
X178477Y245541D01*
X178477Y240523D01*
X171459Y240523D01*
G37*
%LPD*%
%LPC*%
G36*
X181523Y232459D02*
X181523Y232459D01*
X181523Y237477D01*
X188541Y237477D01*
X188541Y234666D01*
X188368Y234019D01*
X188033Y233440D01*
X187560Y232967D01*
X186981Y232632D01*
X186334Y232459D01*
X181523Y232459D01*
G37*
%LPD*%
%LPC*%
G36*
X121523Y232459D02*
X121523Y232459D01*
X121523Y237477D01*
X128541Y237477D01*
X128541Y234666D01*
X128368Y234019D01*
X128033Y233440D01*
X127560Y232967D01*
X126981Y232632D01*
X126334Y232459D01*
X121523Y232459D01*
G37*
%LPD*%
%LPC*%
G36*
X113666Y232459D02*
X113666Y232459D01*
X113019Y232632D01*
X112440Y232967D01*
X111967Y233440D01*
X111632Y234019D01*
X111459Y234666D01*
X111459Y237477D01*
X118477Y237477D01*
X118477Y232459D01*
X113666Y232459D01*
G37*
%LPD*%
%LPC*%
G36*
X271523Y122753D02*
X271523Y122753D01*
X271523Y128771D01*
X274032Y128771D01*
X275060Y128495D01*
X275981Y127963D01*
X276733Y127211D01*
X277265Y126290D01*
X277541Y125262D01*
X277541Y122753D01*
X271523Y122753D01*
G37*
%LPD*%
%LPC*%
G36*
X262459Y122753D02*
X262459Y122753D01*
X262459Y125262D01*
X262735Y126290D01*
X263267Y127211D01*
X264019Y127963D01*
X264940Y128495D01*
X265968Y128771D01*
X268477Y128771D01*
X268477Y122753D01*
X262459Y122753D01*
G37*
%LPD*%
%LPC*%
G36*
X271523Y113689D02*
X271523Y113689D01*
X271523Y119707D01*
X277541Y119707D01*
X277541Y117198D01*
X277265Y116170D01*
X276733Y115249D01*
X275981Y114497D01*
X275060Y113965D01*
X274032Y113689D01*
X271523Y113689D01*
G37*
%LPD*%
%LPC*%
G36*
X265968Y113689D02*
X265968Y113689D01*
X264940Y113965D01*
X264019Y114497D01*
X263267Y115249D01*
X262735Y116170D01*
X262459Y117198D01*
X262459Y119707D01*
X268477Y119707D01*
X268477Y113689D01*
X265968Y113689D01*
G37*
%LPD*%
%LPC*%
G36*
X183999Y68549D02*
X183999Y68549D01*
X183999Y76841D01*
X185835Y76841D01*
X186481Y76668D01*
X187060Y76333D01*
X187533Y75860D01*
X187868Y75281D01*
X188041Y74634D01*
X188041Y68549D01*
X183999Y68549D01*
G37*
%LPD*%
%LPC*%
G36*
X111959Y68549D02*
X111959Y68549D01*
X111959Y74634D01*
X112132Y75281D01*
X112467Y75860D01*
X112940Y76333D01*
X113519Y76668D01*
X114166Y76841D01*
X116001Y76841D01*
X116001Y68549D01*
X111959Y68549D01*
G37*
%LPD*%
%LPC*%
G36*
X107049Y123499D02*
X107049Y123499D01*
X107049Y130541D01*
X108884Y130541D01*
X109531Y130368D01*
X110110Y130033D01*
X110583Y129560D01*
X110918Y128981D01*
X111091Y128334D01*
X111091Y123499D01*
X107049Y123499D01*
G37*
%LPD*%
%LPC*%
G36*
X107049Y113459D02*
X107049Y113459D01*
X107049Y120501D01*
X111091Y120501D01*
X111091Y115666D01*
X110918Y115019D01*
X110583Y114440D01*
X110110Y113967D01*
X109531Y113632D01*
X108884Y113459D01*
X107049Y113459D01*
G37*
%LPD*%
%LPC*%
G36*
X100009Y123499D02*
X100009Y123499D01*
X100009Y128334D01*
X100182Y128981D01*
X100517Y129560D01*
X100990Y130033D01*
X101569Y130368D01*
X102216Y130541D01*
X104051Y130541D01*
X104051Y123499D01*
X100009Y123499D01*
G37*
%LPD*%
%LPC*%
G36*
X102216Y113459D02*
X102216Y113459D01*
X101569Y113632D01*
X100990Y113967D01*
X100517Y114440D01*
X100182Y115019D01*
X100009Y115666D01*
X100009Y120501D01*
X104051Y120501D01*
X104051Y113459D01*
X102216Y113459D01*
G37*
%LPD*%
%LPC*%
G36*
X269999Y121229D02*
X269999Y121229D01*
X269999Y121231D01*
X270001Y121231D01*
X270001Y121229D01*
X269999Y121229D01*
G37*
%LPD*%
%LPC*%
G36*
X179999Y238999D02*
X179999Y238999D01*
X179999Y239001D01*
X180001Y239001D01*
X180001Y238999D01*
X179999Y238999D01*
G37*
%LPD*%
%LPC*%
G36*
X119999Y238999D02*
X119999Y238999D01*
X119999Y239001D01*
X120001Y239001D01*
X120001Y238999D01*
X119999Y238999D01*
G37*
%LPD*%
%LPC*%
G36*
X158499Y269999D02*
X158499Y269999D01*
X158499Y270001D01*
X158501Y270001D01*
X158501Y269999D01*
X158499Y269999D01*
G37*
%LPD*%
%LPC*%
G36*
X239999Y58499D02*
X239999Y58499D01*
X239999Y58501D01*
X240001Y58501D01*
X240001Y58499D01*
X239999Y58499D01*
G37*
%LPD*%
%LPC*%
G36*
X59999Y58499D02*
X59999Y58499D01*
X59999Y58501D01*
X60001Y58501D01*
X60001Y58499D01*
X59999Y58499D01*
G37*
%LPD*%
%LPC*%
G36*
X239999Y178499D02*
X239999Y178499D01*
X239999Y178501D01*
X240001Y178501D01*
X240001Y178499D01*
X239999Y178499D01*
G37*
%LPD*%
D10*
X240000Y58500D03*
X240000Y41500D03*
X60000Y58500D03*
X60000Y41500D03*
X240000Y161500D03*
X240000Y178500D03*
X240000Y121500D03*
X240000Y138500D03*
D11*
X105550Y122000D03*
X118250Y122000D03*
X130950Y122000D03*
X143650Y122000D03*
X156350Y122000D03*
X169050Y122000D03*
X181750Y122000D03*
X194450Y122000D03*
X194450Y178000D03*
X181750Y178000D03*
X169050Y178000D03*
X156350Y178000D03*
X143650Y178000D03*
X130950Y178000D03*
X118250Y178000D03*
X105550Y178000D03*
D12*
X181500Y310000D03*
X198500Y310000D03*
X101500Y310000D03*
X118500Y310000D03*
D13*
X156500Y319200D03*
X150000Y300800D03*
X143500Y300800D03*
X156500Y300800D03*
X150000Y319200D03*
X143500Y319200D03*
D14*
X86500Y370000D03*
X111900Y370000D03*
X137300Y370000D03*
X162700Y370000D03*
X188100Y370000D03*
X213500Y370000D03*
D15*
X117500Y67050D03*
X125500Y67050D03*
D16*
X132500Y67050D03*
X137500Y67050D03*
X142500Y67050D03*
X147500Y67050D03*
X152500Y67050D03*
X157500Y67050D03*
X162500Y67050D03*
X167500Y67050D03*
D15*
X174500Y67050D03*
X182500Y67050D03*
X117500Y67050D03*
X125500Y67050D03*
X174500Y67050D03*
X182500Y67050D03*
D17*
X106800Y63400D02*
X106800Y52400D01*
X106800Y19100D02*
X106800Y13100D01*
X193200Y52400D02*
X193200Y63400D01*
X193200Y19100D02*
X193200Y13100D01*
D18*
X120000Y221000D03*
X120000Y239000D03*
D12*
X158500Y270000D03*
X141500Y270000D03*
D19*
X140500Y216999D03*
X150000Y216999D03*
X159500Y216999D03*
X159500Y243001D03*
X140500Y243001D03*
D20*
X266500Y124730D02*
X273500Y124730D01*
X273500Y117730D01*
X266500Y117730D01*
X266500Y124730D01*
X266500Y120580D02*
X273500Y120580D01*
X273500Y123430D02*
X266500Y123430D01*
X266500Y142270D02*
X273500Y142270D01*
X273500Y135270D01*
X266500Y135270D01*
X266500Y142270D01*
X266500Y138120D02*
X273500Y138120D01*
X273500Y140970D02*
X266500Y140970D01*
D10*
X270000Y178500D03*
X270000Y161500D03*
D18*
X180000Y221000D03*
X180000Y239000D03*
D20*
X33500Y124730D02*
X26500Y124730D01*
X33500Y124730D02*
X33500Y117730D01*
X26500Y117730D01*
X26500Y124730D01*
X26500Y120580D02*
X33500Y120580D01*
X33500Y123430D02*
X26500Y123430D01*
X26500Y142270D02*
X33500Y142270D01*
X33500Y135270D01*
X26500Y135270D01*
X26500Y142270D01*
X26500Y138120D02*
X33500Y138120D01*
X33500Y140970D02*
X26500Y140970D01*
D10*
X30000Y161500D03*
X30000Y178500D03*
X60000Y161500D03*
X60000Y178500D03*
D20*
X56500Y124730D02*
X63500Y124730D01*
X63500Y117730D01*
X56500Y117730D01*
X56500Y124730D01*
X56500Y120580D02*
X63500Y120580D01*
X63500Y123430D02*
X56500Y123430D01*
X56500Y142270D02*
X63500Y142270D01*
X63500Y135270D01*
X56500Y135270D01*
X56500Y142270D01*
X56500Y138120D02*
X63500Y138120D01*
X63500Y140970D02*
X56500Y140970D01*
D21*
X105550Y178000D02*
X105550Y178500D01*
D22*
X180000Y221000D02*
X208280Y221000D01*
X213360Y221000D01*
X218440Y221000D01*
X227500Y221000D01*
X270000Y178500D01*
D23*
X60000Y178500D02*
X30000Y178500D01*
X60000Y178500D02*
X105550Y178500D01*
X140500Y243001D02*
X140539Y243001D01*
D22*
X149860Y233680D01*
X150876Y232664D01*
X168336Y232664D02*
X180000Y221000D01*
D23*
X30000Y178500D02*
X30000Y310000D01*
X86500Y366500D02*
X86500Y370000D01*
X86500Y366500D02*
X30000Y310000D01*
D24*
X235769Y366833D03*
D23*
X213360Y243173D02*
X213360Y228600D01*
X213360Y226060D01*
X213360Y221000D01*
X213360Y243173D02*
X224028Y253841D01*
X235769Y346513D02*
X235769Y366833D01*
X235769Y346513D02*
X224028Y334772D01*
X224028Y253841D01*
X213360Y228600D02*
X213360Y226080D01*
X208280Y221000D01*
X213360Y226060D02*
X218420Y221000D01*
X218440Y221000D01*
D22*
X168336Y232664D02*
X150876Y232664D01*
D23*
X105550Y122000D02*
X105550Y102108D01*
X105550Y99060D01*
X105550Y96012D01*
X105550Y90030D01*
X117500Y78080D02*
X117500Y67050D01*
X117500Y78080D02*
X105550Y90030D01*
X60000Y80320D02*
X60000Y58500D01*
X78740Y99060D02*
X105550Y99060D01*
X78740Y99060D02*
X60000Y80320D01*
X102502Y99060D02*
X105550Y102108D01*
X102502Y99060D02*
X105550Y96012D01*
X240000Y72420D02*
X240000Y58500D01*
X182500Y67050D02*
X182500Y80900D01*
X226060Y86360D02*
X240000Y72420D01*
X226060Y86360D02*
X187960Y86360D01*
X182500Y80900D01*
X262380Y113610D02*
X270000Y121230D01*
X262380Y113610D02*
X262380Y77300D01*
X259840Y74760D01*
X259840Y71880D01*
X246460Y58500D02*
X240000Y58500D01*
X246460Y58500D02*
X259840Y71880D01*
X240000Y178500D02*
X204294Y214206D01*
X172843Y214206D01*
X150000Y216999D02*
X149860Y217139D01*
X180000Y248500D02*
X158500Y270000D01*
X180000Y248500D02*
X180000Y241300D01*
X180000Y239000D01*
X137540Y256540D02*
X120000Y239000D01*
X158500Y262640D02*
X158500Y270000D01*
X152400Y256540D02*
X137540Y256540D01*
X152400Y256540D02*
X158500Y262640D01*
X200244Y178256D02*
X240000Y138500D01*
X200244Y178256D02*
X200244Y185157D01*
X97536Y229457D02*
X97536Y260763D01*
X110837Y274064D01*
X116584Y274064D01*
X186265Y199136D02*
X200244Y185157D01*
X186265Y199136D02*
X143097Y199136D01*
X112787Y214206D02*
X97536Y229457D01*
X112787Y214206D02*
X128027Y214206D01*
X143097Y199136D01*
X152400Y277876D02*
X120396Y277876D01*
X152400Y277876D02*
X158500Y271776D01*
X158500Y270000D01*
X120396Y277876D02*
X116584Y274064D01*
X180000Y241300D02*
X205740Y241300D01*
X213500Y333267D02*
X213500Y370000D01*
X213500Y333267D02*
X219964Y326803D01*
X219964Y255524D01*
X205740Y241300D01*
X132940Y226060D02*
X120000Y239000D01*
X144140Y226060D02*
X149860Y220340D01*
X149860Y217139D01*
X144140Y226060D02*
X132940Y226060D01*
X165044Y224156D02*
X165044Y222005D01*
X163140Y226060D02*
X144140Y226060D01*
X163140Y226060D02*
X165044Y224156D01*
X165044Y222005D02*
X172843Y214206D01*
X60000Y58500D02*
X41500Y58500D01*
X30000Y70000D01*
D24*
X30000Y70000D03*
X259840Y74760D03*
D23*
X270000Y121230D02*
X287808Y139038D01*
X287808Y324950D01*
X229636Y370000D02*
X213500Y370000D01*
X229636Y370000D02*
X233045Y373409D01*
X239349Y373409D01*
X287808Y324950D01*
X70430Y121230D02*
X60000Y121230D01*
X118250Y122000D02*
X118250Y133210D01*
X88900Y139700D02*
X70430Y121230D01*
X88900Y139700D02*
X111760Y139700D01*
X118250Y133210D01*
X60000Y121230D02*
X60000Y113340D01*
X53340Y106680D01*
X25400Y106680D01*
X15240Y116840D01*
X15240Y322580D01*
X79756Y387096D01*
X125984Y387096D01*
X137300Y375780D02*
X137300Y370000D01*
X137300Y375780D02*
X125984Y387096D01*
X130950Y138290D02*
X130950Y122000D01*
X130950Y138290D02*
X124460Y144780D01*
X79083Y144780D02*
X65279Y130976D01*
X47156Y130976D01*
X37410Y121230D02*
X30000Y121230D01*
X79083Y144780D02*
X124460Y144780D01*
X47156Y130976D02*
X37410Y121230D01*
X30000Y121230D02*
X30000Y125697D01*
X22206Y133491D01*
X22206Y312206D02*
X60000Y350000D01*
X22206Y312206D02*
X22206Y133491D01*
X60000Y350000D02*
X60000Y361593D01*
X81439Y383032D02*
X106680Y383032D01*
X111900Y377812D01*
X111900Y370000D01*
X81439Y383032D02*
X60000Y361593D01*
X143500Y303520D02*
X143500Y300800D01*
X149980Y310000D02*
X181500Y310000D01*
X149980Y310000D02*
X143500Y303520D01*
X143650Y189344D02*
X143650Y178000D01*
X124714Y208280D02*
X104140Y208280D01*
X124714Y208280D02*
X143650Y189344D01*
X104140Y208280D02*
X83820Y228600D01*
X83820Y325120D01*
X103378Y344678D01*
X120142Y344678D01*
X134620Y330200D01*
X136080Y300800D02*
X143500Y300800D01*
X136080Y300800D02*
X134620Y302260D01*
X134620Y330200D01*
D22*
X215900Y99060D02*
X210820Y93980D01*
X185420Y93980D01*
X174500Y83060D01*
X174500Y67050D01*
D23*
X140500Y215900D02*
X140500Y216999D01*
X140500Y215900D02*
X140500Y207480D01*
X144780Y203200D01*
X154940Y203200D01*
X160020Y208280D01*
X160020Y216479D01*
X159500Y216999D01*
X129520Y221000D02*
X120000Y221000D01*
X134620Y215900D02*
X140500Y215900D01*
X134620Y215900D02*
X129520Y221000D01*
D22*
X159500Y216999D02*
X170759Y205740D01*
X198120Y205740D01*
X218440Y185420D01*
X218440Y170180D01*
X227120Y161500D01*
X240000Y161500D01*
X243840Y99060D02*
X215900Y99060D01*
X243840Y99060D02*
X256540Y111760D01*
X249980Y161500D02*
X240000Y161500D01*
X256540Y129540D02*
X256540Y111760D01*
X256540Y129540D02*
X256540Y154940D01*
X249980Y161500D01*
D23*
X120000Y221000D02*
X111740Y221000D01*
X101600Y231140D01*
X101600Y259080D01*
X112520Y270000D02*
X141500Y270000D01*
X112520Y270000D02*
X101600Y259080D01*
D25*
X154940Y152400D02*
X137252Y134712D01*
X137252Y109312D02*
X132080Y104140D01*
X137252Y109312D02*
X137252Y134712D01*
X154940Y152400D02*
X210820Y152400D01*
X223520Y139700D01*
D23*
X246157Y129794D02*
X246411Y129540D01*
X256540Y129540D01*
X233426Y129794D02*
X223520Y139700D01*
X233426Y129794D02*
X246157Y129794D01*
D22*
X132080Y104140D02*
X125500Y97560D01*
X125500Y67050D01*
D23*
X156500Y319200D02*
X156500Y326013D01*
X180593Y294641D02*
X190206Y304255D01*
X180593Y294641D02*
X179196Y293244D01*
X177926Y291974D01*
X167891Y281940D01*
X101500Y294740D02*
X101500Y310000D01*
X156500Y326013D02*
X158147Y327660D01*
X182880Y327660D01*
X190206Y320334D01*
X190206Y304255D01*
X167891Y281940D02*
X114300Y281940D01*
X101500Y294740D01*
X130950Y186550D02*
X130950Y178000D01*
X130950Y186550D02*
X121920Y195580D01*
X113284Y204216D01*
X102457Y204216D01*
X75692Y230981D01*
X75692Y323088D01*
X101854Y349250D01*
X143510Y349250D01*
X149860Y355600D01*
X149860Y375920D01*
X160020Y386080D01*
X193040Y386080D01*
X200660Y378460D01*
X200660Y342900D01*
X200660Y340360D01*
X215900Y325120D01*
X215900Y307340D01*
X182880Y289560D02*
X180721Y291719D01*
X179196Y293244D01*
X198120Y289560D02*
X215900Y307340D01*
X198120Y289560D02*
X182880Y289560D01*
X180466Y291974D02*
X177926Y291974D01*
X180466Y291974D02*
X180721Y291719D01*
X180721Y294513D01*
X180593Y294641D01*
X142500Y67050D02*
X142500Y54160D01*
X144780Y51880D01*
X149860Y51880D01*
X152500Y54520D02*
X152500Y67050D01*
X152500Y54520D02*
X149860Y51880D01*
X142500Y67050D02*
X142500Y101860D01*
X149860Y109220D02*
X149860Y129540D01*
X154940Y134620D01*
X169050Y130670D02*
X169050Y122000D01*
X149860Y109220D02*
X142500Y101860D01*
X154940Y134620D02*
X165100Y134620D01*
X169050Y130670D01*
X147500Y81460D02*
X147500Y67050D01*
X147500Y81460D02*
X149860Y83820D01*
X152400Y83820D01*
X154940Y83820D01*
X157500Y81260D02*
X157500Y67050D01*
X156350Y82410D02*
X154940Y83820D01*
X156350Y87770D02*
X156350Y122000D01*
X156350Y87770D02*
X156350Y82410D01*
X157500Y81260D01*
X152400Y83820D02*
X156350Y87770D01*
X143650Y122000D02*
X143650Y132728D01*
X151130Y140208D01*
X210312Y140208D01*
X229020Y121500D02*
X240000Y121500D01*
X229020Y121500D02*
X210312Y140208D01*
X156500Y293152D02*
X156500Y300800D01*
X150622Y287274D02*
X119888Y287274D01*
X109794Y297368D01*
X150622Y287274D02*
X156500Y293152D01*
X116840Y337820D02*
X109794Y330774D01*
D24*
X116840Y337820D03*
D23*
X109794Y330774D02*
X109794Y297368D01*
X150000Y319200D02*
X150000Y325260D01*
X157480Y332740D01*
X187960Y332740D01*
X198500Y322200D02*
X198500Y310000D01*
X198500Y322200D02*
X187960Y332740D01*
X150000Y300800D02*
X150000Y294780D01*
X147320Y292100D01*
X129540Y292100D01*
X118500Y303140D02*
X118500Y310000D01*
X118500Y303140D02*
X129540Y292100D01*
X143500Y319200D02*
X143500Y328920D01*
X152400Y337820D01*
X177800Y337820D01*
X188100Y348120D02*
X188100Y370000D01*
X188100Y348120D02*
X177800Y337820D01*
X124558Y30578D02*
X64064Y30578D01*
X60000Y34642D01*
X60000Y41500D01*
X137500Y43520D02*
X137500Y67050D01*
X137500Y43520D02*
X124558Y30578D01*
X167500Y46114D02*
X167500Y67050D01*
X181766Y31848D02*
X230348Y31848D01*
X240000Y41500D01*
X181766Y31848D02*
X167500Y46114D01*
D22*
X270000Y138770D02*
X270000Y161500D01*
D23*
X60000Y161500D02*
X60000Y138770D01*
X30000Y138770D02*
X30000Y161500D01*
M02*
