G04 EAGLE Gerber RS-274X export*
G75*
%MOMM*%
%FSLAX34Y34*%
%LPD*%
%INBottom Copper*%
%IPPOS*%
%AMOC8*
5,1,8,0,0,1.08239X$1,22.5*%
G01*
%ADD10R,12.000000X9.000000*%
%ADD11P,1.451614X8X112.500000*%
%ADD12C,1.000000*%
%ADD13C,0.254000*%
%ADD14C,0.756400*%


D10*
X80000Y135000D03*
X220000Y265000D03*
D11*
X86500Y370000D03*
X111900Y370000D03*
X137300Y370000D03*
X162700Y370000D03*
X188100Y370000D03*
X213500Y370000D03*
D12*
X106800Y63400D02*
X106800Y52400D01*
X106800Y19100D02*
X106800Y13100D01*
X193200Y52400D02*
X193200Y63400D01*
X193200Y19100D02*
X193200Y13100D01*
D13*
X86500Y370000D02*
X104308Y387808D01*
X213360Y387808D01*
X235769Y374453D02*
X235769Y366833D01*
X235769Y374453D02*
X222413Y387808D01*
X213360Y387808D01*
D14*
X235769Y366833D03*
X30000Y70000D03*
D13*
X70000Y30000D01*
X259840Y69840D02*
X259840Y74760D01*
D14*
X259840Y74760D03*
D13*
X220000Y30000D02*
X70000Y30000D01*
X220000Y30000D02*
X259840Y69840D01*
D14*
X116840Y337820D03*
D13*
X139700Y337820D01*
X162700Y360820D02*
X162700Y370000D01*
X162700Y360820D02*
X139700Y337820D01*
M02*
