G04 EAGLE Gerber RS-274X export*
G75*
%MOMM*%
%FSLAX34Y34*%
%LPD*%
%INSilkscreen Top*%
%IPPOS*%
%AMOC8*
5,1,8,0,0,1.08239X$1,22.5*%
G01*
%ADD10C,0.050800*%
%ADD11C,0.203200*%
%ADD12C,0.127000*%
%ADD13C,0.508000*%
%ADD14C,0.152400*%
%ADD15C,0.254000*%


D10*
X251206Y209155D02*
X251206Y205994D01*
X244094Y205994D01*
X244094Y209155D01*
X247255Y208365D02*
X247255Y205994D01*
X251206Y213839D02*
X251204Y213917D01*
X251198Y213994D01*
X251189Y214071D01*
X251176Y214147D01*
X251159Y214223D01*
X251138Y214298D01*
X251114Y214371D01*
X251086Y214444D01*
X251054Y214515D01*
X251019Y214584D01*
X250981Y214651D01*
X250940Y214717D01*
X250895Y214780D01*
X250847Y214841D01*
X250797Y214900D01*
X250743Y214956D01*
X250687Y215010D01*
X250628Y215060D01*
X250567Y215108D01*
X250504Y215153D01*
X250438Y215194D01*
X250371Y215232D01*
X250302Y215267D01*
X250231Y215299D01*
X250158Y215327D01*
X250085Y215351D01*
X250010Y215372D01*
X249934Y215389D01*
X249858Y215402D01*
X249781Y215411D01*
X249704Y215417D01*
X249626Y215419D01*
X251206Y213839D02*
X251204Y213724D01*
X251198Y213610D01*
X251188Y213496D01*
X251175Y213382D01*
X251157Y213269D01*
X251135Y213156D01*
X251110Y213044D01*
X251081Y212934D01*
X251048Y212824D01*
X251011Y212715D01*
X250971Y212608D01*
X250927Y212502D01*
X250879Y212398D01*
X250828Y212295D01*
X250773Y212195D01*
X250715Y212096D01*
X250653Y211999D01*
X250589Y211905D01*
X250521Y211812D01*
X250449Y211722D01*
X250375Y211635D01*
X250298Y211550D01*
X250218Y211468D01*
X245674Y211666D02*
X245596Y211668D01*
X245519Y211674D01*
X245442Y211683D01*
X245366Y211696D01*
X245290Y211713D01*
X245215Y211734D01*
X245142Y211758D01*
X245069Y211786D01*
X244998Y211818D01*
X244929Y211853D01*
X244862Y211891D01*
X244796Y211932D01*
X244733Y211977D01*
X244672Y212025D01*
X244613Y212075D01*
X244557Y212129D01*
X244503Y212185D01*
X244453Y212244D01*
X244405Y212305D01*
X244360Y212368D01*
X244319Y212434D01*
X244281Y212501D01*
X244246Y212570D01*
X244214Y212641D01*
X244186Y212714D01*
X244162Y212787D01*
X244141Y212862D01*
X244124Y212938D01*
X244111Y213014D01*
X244102Y213091D01*
X244096Y213168D01*
X244094Y213246D01*
X244096Y213352D01*
X244102Y213458D01*
X244111Y213563D01*
X244124Y213668D01*
X244141Y213773D01*
X244162Y213877D01*
X244186Y213980D01*
X244214Y214082D01*
X244246Y214183D01*
X244281Y214283D01*
X244320Y214381D01*
X244363Y214479D01*
X244408Y214574D01*
X244457Y214668D01*
X244510Y214760D01*
X244566Y214850D01*
X244625Y214938D01*
X244687Y215024D01*
X247057Y212456D02*
X247015Y212389D01*
X246970Y212324D01*
X246921Y212261D01*
X246870Y212200D01*
X246815Y212143D01*
X246758Y212088D01*
X246698Y212035D01*
X246636Y211986D01*
X246571Y211940D01*
X246505Y211898D01*
X246436Y211858D01*
X246365Y211822D01*
X246292Y211790D01*
X246218Y211761D01*
X246143Y211736D01*
X246067Y211715D01*
X245989Y211697D01*
X245911Y211684D01*
X245832Y211674D01*
X245753Y211668D01*
X245674Y211666D01*
X248243Y214629D02*
X248285Y214696D01*
X248330Y214761D01*
X248379Y214824D01*
X248430Y214885D01*
X248485Y214942D01*
X248542Y214997D01*
X248602Y215050D01*
X248664Y215099D01*
X248729Y215145D01*
X248795Y215187D01*
X248864Y215227D01*
X248935Y215263D01*
X249008Y215295D01*
X249082Y215324D01*
X249157Y215349D01*
X249233Y215370D01*
X249311Y215388D01*
X249389Y215401D01*
X249468Y215411D01*
X249547Y215417D01*
X249626Y215419D01*
X248243Y214629D02*
X247057Y212456D01*
X244094Y218419D02*
X251206Y218419D01*
X244094Y218419D02*
X244094Y220395D01*
X244096Y220482D01*
X244102Y220570D01*
X244111Y220657D01*
X244125Y220743D01*
X244142Y220829D01*
X244163Y220913D01*
X244188Y220997D01*
X244217Y221080D01*
X244249Y221161D01*
X244284Y221241D01*
X244323Y221319D01*
X244366Y221396D01*
X244412Y221470D01*
X244461Y221542D01*
X244513Y221612D01*
X244569Y221680D01*
X244627Y221745D01*
X244688Y221808D01*
X244752Y221867D01*
X244819Y221924D01*
X244887Y221978D01*
X244959Y222029D01*
X245032Y222076D01*
X245107Y222121D01*
X245185Y222162D01*
X245264Y222199D01*
X245344Y222233D01*
X245426Y222263D01*
X245509Y222290D01*
X245594Y222313D01*
X245679Y222332D01*
X245765Y222347D01*
X245852Y222359D01*
X245939Y222367D01*
X246026Y222371D01*
X246114Y222371D01*
X246201Y222367D01*
X246288Y222359D01*
X246375Y222347D01*
X246461Y222332D01*
X246546Y222313D01*
X246631Y222290D01*
X246714Y222263D01*
X246796Y222233D01*
X246876Y222199D01*
X246955Y222162D01*
X247033Y222121D01*
X247108Y222076D01*
X247181Y222029D01*
X247253Y221978D01*
X247321Y221924D01*
X247388Y221867D01*
X247452Y221808D01*
X247513Y221745D01*
X247571Y221680D01*
X247627Y221612D01*
X247679Y221542D01*
X247728Y221470D01*
X247774Y221396D01*
X247817Y221319D01*
X247856Y221241D01*
X247891Y221161D01*
X247923Y221080D01*
X247952Y220997D01*
X247977Y220913D01*
X247998Y220829D01*
X248015Y220743D01*
X248029Y220657D01*
X248038Y220570D01*
X248044Y220482D01*
X248046Y220395D01*
X248045Y220395D02*
X248045Y218419D01*
X251206Y224955D02*
X251206Y226931D01*
X251204Y227018D01*
X251198Y227106D01*
X251189Y227193D01*
X251175Y227279D01*
X251158Y227365D01*
X251137Y227449D01*
X251112Y227533D01*
X251083Y227616D01*
X251051Y227697D01*
X251016Y227777D01*
X250977Y227855D01*
X250934Y227932D01*
X250888Y228006D01*
X250839Y228078D01*
X250787Y228148D01*
X250731Y228216D01*
X250673Y228281D01*
X250612Y228344D01*
X250548Y228403D01*
X250481Y228460D01*
X250413Y228514D01*
X250341Y228565D01*
X250268Y228612D01*
X250193Y228657D01*
X250115Y228698D01*
X250036Y228735D01*
X249956Y228769D01*
X249874Y228799D01*
X249791Y228826D01*
X249706Y228849D01*
X249621Y228868D01*
X249535Y228883D01*
X249448Y228895D01*
X249361Y228903D01*
X249274Y228907D01*
X249186Y228907D01*
X249099Y228903D01*
X249012Y228895D01*
X248925Y228883D01*
X248839Y228868D01*
X248754Y228849D01*
X248669Y228826D01*
X248586Y228799D01*
X248504Y228769D01*
X248424Y228735D01*
X248345Y228698D01*
X248267Y228657D01*
X248192Y228612D01*
X248119Y228565D01*
X248047Y228514D01*
X247979Y228460D01*
X247912Y228403D01*
X247848Y228344D01*
X247787Y228281D01*
X247729Y228216D01*
X247673Y228148D01*
X247621Y228078D01*
X247572Y228006D01*
X247526Y227932D01*
X247483Y227855D01*
X247444Y227777D01*
X247409Y227697D01*
X247377Y227616D01*
X247348Y227533D01*
X247323Y227449D01*
X247302Y227365D01*
X247285Y227279D01*
X247271Y227193D01*
X247262Y227106D01*
X247256Y227018D01*
X247254Y226931D01*
X244094Y227326D02*
X244094Y224955D01*
X244094Y227326D02*
X244096Y227405D01*
X244102Y227483D01*
X244112Y227561D01*
X244125Y227639D01*
X244143Y227716D01*
X244164Y227792D01*
X244189Y227866D01*
X244218Y227940D01*
X244250Y228012D01*
X244286Y228082D01*
X244326Y228150D01*
X244369Y228216D01*
X244415Y228280D01*
X244464Y228342D01*
X244516Y228401D01*
X244571Y228457D01*
X244629Y228511D01*
X244689Y228561D01*
X244752Y228609D01*
X244817Y228653D01*
X244884Y228694D01*
X244953Y228732D01*
X245024Y228766D01*
X245097Y228797D01*
X245171Y228824D01*
X245246Y228847D01*
X245322Y228866D01*
X245400Y228882D01*
X245478Y228894D01*
X245556Y228902D01*
X245635Y228906D01*
X245713Y228906D01*
X245792Y228902D01*
X245870Y228894D01*
X245948Y228882D01*
X246026Y228866D01*
X246102Y228847D01*
X246177Y228824D01*
X246251Y228797D01*
X246324Y228766D01*
X246395Y228732D01*
X246464Y228694D01*
X246531Y228653D01*
X246596Y228609D01*
X246659Y228561D01*
X246719Y228511D01*
X246777Y228457D01*
X246832Y228401D01*
X246884Y228342D01*
X246933Y228280D01*
X246979Y228216D01*
X247022Y228150D01*
X247062Y228082D01*
X247098Y228012D01*
X247130Y227940D01*
X247159Y227866D01*
X247184Y227792D01*
X247205Y227716D01*
X247223Y227639D01*
X247236Y227561D01*
X247246Y227483D01*
X247252Y227405D01*
X247254Y227326D01*
X247255Y227326D02*
X247255Y225746D01*
X244094Y233986D02*
X244096Y234068D01*
X244102Y234150D01*
X244111Y234232D01*
X244124Y234313D01*
X244141Y234393D01*
X244162Y234473D01*
X244186Y234551D01*
X244214Y234628D01*
X244245Y234704D01*
X244280Y234779D01*
X244319Y234851D01*
X244360Y234922D01*
X244405Y234991D01*
X244453Y235057D01*
X244504Y235122D01*
X244558Y235184D01*
X244615Y235243D01*
X244674Y235300D01*
X244736Y235354D01*
X244801Y235405D01*
X244867Y235453D01*
X244936Y235498D01*
X245007Y235539D01*
X245079Y235578D01*
X245154Y235613D01*
X245230Y235644D01*
X245307Y235672D01*
X245385Y235696D01*
X245465Y235717D01*
X245545Y235734D01*
X245626Y235747D01*
X245708Y235756D01*
X245790Y235762D01*
X245872Y235764D01*
X244094Y233986D02*
X244096Y233893D01*
X244102Y233801D01*
X244111Y233709D01*
X244124Y233617D01*
X244141Y233526D01*
X244161Y233436D01*
X244185Y233346D01*
X244213Y233258D01*
X244245Y233170D01*
X244279Y233085D01*
X244318Y233000D01*
X244359Y232918D01*
X244404Y232837D01*
X244453Y232757D01*
X244504Y232680D01*
X244558Y232605D01*
X244616Y232533D01*
X244676Y232462D01*
X244740Y232395D01*
X244805Y232330D01*
X244874Y232267D01*
X244945Y232208D01*
X245018Y232151D01*
X245094Y232097D01*
X245171Y232047D01*
X245251Y231999D01*
X245333Y231955D01*
X245416Y231915D01*
X245501Y231877D01*
X245587Y231843D01*
X245674Y231813D01*
X247255Y235172D02*
X247194Y235233D01*
X247131Y235291D01*
X247065Y235346D01*
X246997Y235399D01*
X246926Y235448D01*
X246854Y235493D01*
X246779Y235536D01*
X246703Y235575D01*
X246624Y235611D01*
X246545Y235643D01*
X246464Y235671D01*
X246381Y235696D01*
X246298Y235717D01*
X246214Y235734D01*
X246129Y235748D01*
X246044Y235757D01*
X245958Y235763D01*
X245872Y235765D01*
X247255Y235172D02*
X251206Y231813D01*
X251206Y235764D01*
X251996Y238381D02*
X251996Y241541D01*
X248440Y244688D02*
X249230Y246664D01*
X248440Y244689D02*
X248415Y244631D01*
X248386Y244575D01*
X248354Y244520D01*
X248318Y244468D01*
X248279Y244418D01*
X248238Y244371D01*
X248193Y244326D01*
X248146Y244284D01*
X248097Y244245D01*
X248045Y244209D01*
X247991Y244176D01*
X247935Y244147D01*
X247877Y244121D01*
X247818Y244099D01*
X247757Y244081D01*
X247696Y244066D01*
X247634Y244055D01*
X247571Y244048D01*
X247508Y244045D01*
X247445Y244046D01*
X247382Y244051D01*
X247319Y244059D01*
X247257Y244072D01*
X247196Y244088D01*
X247136Y244108D01*
X247078Y244131D01*
X247021Y244158D01*
X246966Y244189D01*
X246912Y244223D01*
X246861Y244260D01*
X246813Y244300D01*
X246766Y244343D01*
X246723Y244389D01*
X246683Y244438D01*
X246645Y244489D01*
X246611Y244542D01*
X246580Y244597D01*
X246553Y244654D01*
X246529Y244712D01*
X246509Y244772D01*
X246493Y244833D01*
X246480Y244895D01*
X246471Y244958D01*
X246466Y245020D01*
X246465Y245084D01*
X246464Y245083D02*
X246468Y245214D01*
X246476Y245345D01*
X246487Y245475D01*
X246502Y245605D01*
X246522Y245735D01*
X246544Y245864D01*
X246571Y245992D01*
X246601Y246120D01*
X246635Y246246D01*
X246673Y246372D01*
X246714Y246496D01*
X246759Y246619D01*
X246808Y246741D01*
X246860Y246861D01*
X249231Y246663D02*
X249256Y246721D01*
X249285Y246777D01*
X249317Y246832D01*
X249353Y246884D01*
X249392Y246934D01*
X249433Y246981D01*
X249478Y247026D01*
X249525Y247068D01*
X249574Y247107D01*
X249626Y247143D01*
X249680Y247176D01*
X249736Y247205D01*
X249794Y247231D01*
X249853Y247253D01*
X249914Y247271D01*
X249975Y247286D01*
X250037Y247297D01*
X250100Y247304D01*
X250163Y247307D01*
X250226Y247306D01*
X250289Y247301D01*
X250352Y247293D01*
X250414Y247280D01*
X250475Y247264D01*
X250535Y247244D01*
X250593Y247221D01*
X250650Y247194D01*
X250705Y247163D01*
X250759Y247129D01*
X250810Y247092D01*
X250858Y247052D01*
X250905Y247009D01*
X250948Y246963D01*
X250988Y246914D01*
X251026Y246863D01*
X251060Y246810D01*
X251091Y246755D01*
X251118Y246698D01*
X251142Y246640D01*
X251162Y246580D01*
X251178Y246519D01*
X251191Y246457D01*
X251200Y246394D01*
X251205Y246332D01*
X251206Y246268D01*
X251202Y246110D01*
X251194Y245952D01*
X251183Y245794D01*
X251167Y245636D01*
X251148Y245478D01*
X251125Y245322D01*
X251099Y245165D01*
X251069Y245010D01*
X251035Y244855D01*
X250997Y244701D01*
X250956Y244548D01*
X250911Y244396D01*
X250863Y244245D01*
X250811Y244095D01*
X249626Y250039D02*
X248045Y250039D01*
X248045Y250040D02*
X247966Y250042D01*
X247888Y250048D01*
X247810Y250058D01*
X247732Y250071D01*
X247655Y250089D01*
X247579Y250110D01*
X247505Y250135D01*
X247431Y250164D01*
X247359Y250196D01*
X247289Y250232D01*
X247221Y250272D01*
X247155Y250315D01*
X247091Y250361D01*
X247029Y250410D01*
X246970Y250462D01*
X246914Y250517D01*
X246860Y250575D01*
X246810Y250635D01*
X246762Y250698D01*
X246718Y250763D01*
X246677Y250830D01*
X246639Y250899D01*
X246605Y250970D01*
X246574Y251043D01*
X246547Y251117D01*
X246524Y251192D01*
X246505Y251268D01*
X246489Y251346D01*
X246477Y251424D01*
X246469Y251502D01*
X246465Y251581D01*
X246465Y251659D01*
X246469Y251738D01*
X246477Y251816D01*
X246489Y251894D01*
X246505Y251972D01*
X246524Y252048D01*
X246547Y252123D01*
X246574Y252197D01*
X246605Y252270D01*
X246639Y252341D01*
X246677Y252410D01*
X246718Y252477D01*
X246762Y252542D01*
X246810Y252605D01*
X246860Y252665D01*
X246914Y252723D01*
X246970Y252778D01*
X247029Y252830D01*
X247091Y252879D01*
X247155Y252925D01*
X247221Y252968D01*
X247289Y253008D01*
X247359Y253044D01*
X247431Y253076D01*
X247505Y253105D01*
X247579Y253130D01*
X247655Y253151D01*
X247732Y253169D01*
X247810Y253182D01*
X247888Y253192D01*
X247966Y253198D01*
X248045Y253200D01*
X249626Y253200D01*
X249705Y253198D01*
X249783Y253192D01*
X249861Y253182D01*
X249939Y253169D01*
X250016Y253151D01*
X250092Y253130D01*
X250166Y253105D01*
X250240Y253076D01*
X250312Y253044D01*
X250382Y253008D01*
X250450Y252968D01*
X250516Y252925D01*
X250580Y252879D01*
X250642Y252830D01*
X250701Y252778D01*
X250757Y252723D01*
X250811Y252665D01*
X250861Y252605D01*
X250909Y252542D01*
X250953Y252477D01*
X250994Y252410D01*
X251032Y252341D01*
X251066Y252270D01*
X251097Y252197D01*
X251124Y252123D01*
X251147Y252048D01*
X251166Y251972D01*
X251182Y251894D01*
X251194Y251816D01*
X251202Y251738D01*
X251206Y251659D01*
X251206Y251581D01*
X251202Y251502D01*
X251194Y251424D01*
X251182Y251346D01*
X251166Y251268D01*
X251147Y251192D01*
X251124Y251117D01*
X251097Y251043D01*
X251066Y250970D01*
X251032Y250899D01*
X250994Y250830D01*
X250953Y250763D01*
X250909Y250698D01*
X250861Y250635D01*
X250811Y250575D01*
X250757Y250517D01*
X250701Y250462D01*
X250642Y250410D01*
X250580Y250361D01*
X250516Y250315D01*
X250450Y250272D01*
X250382Y250232D01*
X250312Y250196D01*
X250240Y250164D01*
X250166Y250135D01*
X250092Y250110D01*
X250016Y250089D01*
X249939Y250071D01*
X249861Y250058D01*
X249783Y250048D01*
X249705Y250042D01*
X249626Y250040D01*
X251206Y257175D02*
X251206Y258756D01*
X251206Y257175D02*
X251204Y257109D01*
X251199Y257042D01*
X251189Y256977D01*
X251176Y256911D01*
X251160Y256847D01*
X251140Y256784D01*
X251116Y256722D01*
X251089Y256661D01*
X251058Y256602D01*
X251024Y256545D01*
X250987Y256489D01*
X250947Y256436D01*
X250905Y256385D01*
X250859Y256337D01*
X250811Y256291D01*
X250760Y256249D01*
X250707Y256209D01*
X250651Y256172D01*
X250594Y256138D01*
X250535Y256107D01*
X250474Y256080D01*
X250412Y256056D01*
X250349Y256036D01*
X250285Y256020D01*
X250219Y256007D01*
X250154Y255997D01*
X250087Y255992D01*
X250021Y255990D01*
X247650Y255990D01*
X247584Y255992D01*
X247517Y255997D01*
X247452Y256007D01*
X247386Y256020D01*
X247322Y256036D01*
X247259Y256056D01*
X247197Y256080D01*
X247136Y256107D01*
X247077Y256138D01*
X247020Y256172D01*
X246964Y256209D01*
X246911Y256249D01*
X246860Y256291D01*
X246812Y256337D01*
X246766Y256385D01*
X246724Y256436D01*
X246684Y256489D01*
X246647Y256545D01*
X246613Y256602D01*
X246582Y256661D01*
X246555Y256722D01*
X246531Y256784D01*
X246511Y256847D01*
X246495Y256911D01*
X246482Y256977D01*
X246472Y257042D01*
X246467Y257109D01*
X246465Y257175D01*
X246465Y258756D01*
X244094Y261544D02*
X251206Y261544D01*
X248835Y261544D02*
X246465Y264704D01*
X247848Y262926D02*
X251206Y264704D01*
X251206Y268369D02*
X251206Y270345D01*
X251206Y268369D02*
X251204Y268303D01*
X251199Y268236D01*
X251189Y268171D01*
X251176Y268105D01*
X251160Y268041D01*
X251140Y267978D01*
X251116Y267916D01*
X251089Y267855D01*
X251058Y267796D01*
X251024Y267739D01*
X250987Y267683D01*
X250947Y267630D01*
X250905Y267579D01*
X250859Y267531D01*
X250811Y267485D01*
X250760Y267443D01*
X250707Y267403D01*
X250651Y267366D01*
X250594Y267332D01*
X250535Y267301D01*
X250474Y267274D01*
X250412Y267250D01*
X250349Y267230D01*
X250285Y267214D01*
X250219Y267201D01*
X250154Y267191D01*
X250087Y267186D01*
X250021Y267184D01*
X248045Y267184D01*
X247966Y267186D01*
X247888Y267192D01*
X247810Y267202D01*
X247732Y267215D01*
X247655Y267233D01*
X247579Y267254D01*
X247505Y267279D01*
X247431Y267308D01*
X247359Y267340D01*
X247289Y267376D01*
X247221Y267416D01*
X247155Y267459D01*
X247091Y267505D01*
X247029Y267554D01*
X246970Y267606D01*
X246914Y267661D01*
X246860Y267719D01*
X246810Y267779D01*
X246762Y267842D01*
X246718Y267907D01*
X246677Y267974D01*
X246639Y268043D01*
X246605Y268114D01*
X246574Y268187D01*
X246547Y268261D01*
X246524Y268336D01*
X246505Y268412D01*
X246489Y268490D01*
X246477Y268568D01*
X246469Y268646D01*
X246465Y268725D01*
X246465Y268803D01*
X246469Y268882D01*
X246477Y268960D01*
X246489Y269038D01*
X246505Y269116D01*
X246524Y269192D01*
X246547Y269267D01*
X246574Y269341D01*
X246605Y269414D01*
X246639Y269485D01*
X246677Y269554D01*
X246718Y269621D01*
X246762Y269686D01*
X246810Y269749D01*
X246860Y269809D01*
X246914Y269867D01*
X246970Y269922D01*
X247029Y269974D01*
X247091Y270023D01*
X247155Y270069D01*
X247221Y270112D01*
X247289Y270152D01*
X247359Y270188D01*
X247431Y270220D01*
X247505Y270249D01*
X247579Y270274D01*
X247655Y270295D01*
X247732Y270313D01*
X247810Y270326D01*
X247888Y270336D01*
X247966Y270342D01*
X248045Y270344D01*
X248045Y270345D02*
X248835Y270345D01*
X248835Y267184D01*
X246465Y272557D02*
X246465Y274928D01*
X244094Y273348D02*
X250021Y273348D01*
X250087Y273350D01*
X250154Y273355D01*
X250219Y273365D01*
X250285Y273378D01*
X250349Y273394D01*
X250412Y273414D01*
X250474Y273438D01*
X250535Y273465D01*
X250594Y273496D01*
X250651Y273530D01*
X250707Y273567D01*
X250760Y273607D01*
X250811Y273649D01*
X250859Y273695D01*
X250905Y273743D01*
X250947Y273794D01*
X250987Y273847D01*
X251024Y273903D01*
X251058Y273960D01*
X251089Y274019D01*
X251116Y274080D01*
X251140Y274142D01*
X251160Y274205D01*
X251176Y274269D01*
X251189Y274335D01*
X251199Y274400D01*
X251204Y274467D01*
X251206Y274533D01*
X251206Y274928D01*
X251996Y277242D02*
X251996Y280403D01*
X251206Y283218D02*
X244094Y283218D01*
X251206Y283218D02*
X251206Y285194D01*
X251204Y285260D01*
X251199Y285327D01*
X251189Y285392D01*
X251176Y285458D01*
X251160Y285522D01*
X251140Y285585D01*
X251116Y285647D01*
X251089Y285708D01*
X251058Y285767D01*
X251024Y285824D01*
X250987Y285880D01*
X250947Y285933D01*
X250905Y285984D01*
X250859Y286032D01*
X250811Y286078D01*
X250760Y286120D01*
X250707Y286160D01*
X250651Y286197D01*
X250594Y286231D01*
X250535Y286262D01*
X250474Y286289D01*
X250412Y286313D01*
X250349Y286333D01*
X250285Y286349D01*
X250219Y286362D01*
X250154Y286372D01*
X250087Y286377D01*
X250021Y286379D01*
X247650Y286379D01*
X247584Y286377D01*
X247517Y286372D01*
X247452Y286362D01*
X247386Y286349D01*
X247322Y286333D01*
X247259Y286313D01*
X247197Y286289D01*
X247136Y286262D01*
X247077Y286231D01*
X247020Y286197D01*
X246964Y286160D01*
X246911Y286120D01*
X246860Y286078D01*
X246812Y286032D01*
X246766Y285984D01*
X246724Y285933D01*
X246684Y285880D01*
X246647Y285824D01*
X246613Y285767D01*
X246582Y285708D01*
X246555Y285647D01*
X246531Y285585D01*
X246511Y285522D01*
X246495Y285458D01*
X246482Y285392D01*
X246472Y285327D01*
X246467Y285260D01*
X246465Y285194D01*
X246465Y283218D01*
X246465Y289358D02*
X250021Y289358D01*
X250087Y289360D01*
X250154Y289365D01*
X250219Y289375D01*
X250285Y289388D01*
X250349Y289404D01*
X250412Y289424D01*
X250474Y289448D01*
X250535Y289475D01*
X250594Y289506D01*
X250651Y289540D01*
X250707Y289577D01*
X250760Y289617D01*
X250811Y289659D01*
X250859Y289705D01*
X250905Y289753D01*
X250947Y289804D01*
X250987Y289857D01*
X251024Y289913D01*
X251058Y289970D01*
X251089Y290029D01*
X251116Y290090D01*
X251140Y290152D01*
X251160Y290215D01*
X251176Y290279D01*
X251189Y290345D01*
X251199Y290410D01*
X251204Y290477D01*
X251206Y290543D01*
X251206Y292519D01*
X246465Y292519D01*
X246465Y295795D02*
X251206Y295795D01*
X246465Y295795D02*
X246465Y298166D01*
X247255Y298166D01*
X246465Y300559D02*
X251206Y300559D01*
X246465Y300559D02*
X246465Y302535D01*
X246467Y302601D01*
X246472Y302668D01*
X246482Y302733D01*
X246495Y302799D01*
X246511Y302863D01*
X246531Y302926D01*
X246555Y302988D01*
X246582Y303049D01*
X246613Y303108D01*
X246647Y303165D01*
X246684Y303221D01*
X246724Y303274D01*
X246766Y303325D01*
X246812Y303373D01*
X246860Y303419D01*
X246911Y303461D01*
X246964Y303501D01*
X247020Y303538D01*
X247077Y303572D01*
X247136Y303603D01*
X247196Y303630D01*
X247259Y303653D01*
X247322Y303674D01*
X247386Y303690D01*
X247451Y303703D01*
X247517Y303713D01*
X247584Y303718D01*
X247650Y303720D01*
X251206Y303720D01*
X251206Y307917D02*
X251206Y309892D01*
X251206Y307917D02*
X251204Y307851D01*
X251199Y307784D01*
X251189Y307719D01*
X251176Y307653D01*
X251160Y307589D01*
X251140Y307526D01*
X251116Y307464D01*
X251089Y307403D01*
X251058Y307344D01*
X251024Y307287D01*
X250987Y307231D01*
X250947Y307178D01*
X250905Y307127D01*
X250859Y307079D01*
X250811Y307033D01*
X250760Y306991D01*
X250707Y306951D01*
X250651Y306914D01*
X250594Y306880D01*
X250535Y306849D01*
X250474Y306822D01*
X250412Y306798D01*
X250349Y306778D01*
X250285Y306762D01*
X250219Y306749D01*
X250154Y306739D01*
X250087Y306734D01*
X250021Y306732D01*
X250021Y306731D02*
X248045Y306731D01*
X248045Y306732D02*
X247966Y306734D01*
X247888Y306740D01*
X247810Y306750D01*
X247732Y306763D01*
X247655Y306781D01*
X247579Y306802D01*
X247505Y306827D01*
X247431Y306856D01*
X247359Y306888D01*
X247289Y306924D01*
X247221Y306964D01*
X247155Y307007D01*
X247091Y307053D01*
X247029Y307102D01*
X246970Y307154D01*
X246914Y307209D01*
X246860Y307267D01*
X246810Y307327D01*
X246762Y307390D01*
X246718Y307455D01*
X246677Y307522D01*
X246639Y307591D01*
X246605Y307662D01*
X246574Y307735D01*
X246547Y307809D01*
X246524Y307884D01*
X246505Y307960D01*
X246489Y308038D01*
X246477Y308116D01*
X246469Y308194D01*
X246465Y308273D01*
X246465Y308351D01*
X246469Y308430D01*
X246477Y308508D01*
X246489Y308586D01*
X246505Y308664D01*
X246524Y308740D01*
X246547Y308815D01*
X246574Y308889D01*
X246605Y308962D01*
X246639Y309033D01*
X246677Y309102D01*
X246718Y309169D01*
X246762Y309234D01*
X246810Y309297D01*
X246860Y309357D01*
X246914Y309415D01*
X246970Y309470D01*
X247029Y309522D01*
X247091Y309571D01*
X247155Y309617D01*
X247221Y309660D01*
X247289Y309700D01*
X247359Y309736D01*
X247431Y309768D01*
X247505Y309797D01*
X247579Y309822D01*
X247655Y309843D01*
X247732Y309861D01*
X247810Y309874D01*
X247888Y309884D01*
X247966Y309890D01*
X248045Y309892D01*
X248835Y309892D01*
X248835Y306731D01*
X246465Y312940D02*
X251206Y312940D01*
X246465Y312940D02*
X246465Y315311D01*
X247255Y315311D01*
X246465Y320905D02*
X251206Y322485D01*
X246465Y324065D01*
X245674Y326682D02*
X244094Y328657D01*
X251206Y328657D01*
X251206Y326682D02*
X251206Y330633D01*
X251206Y333260D02*
X250811Y333260D01*
X250811Y333655D01*
X251206Y333655D01*
X251206Y333260D01*
X247650Y336283D02*
X247502Y336285D01*
X247355Y336290D01*
X247207Y336300D01*
X247060Y336313D01*
X246913Y336329D01*
X246767Y336350D01*
X246622Y336374D01*
X246476Y336402D01*
X246332Y336433D01*
X246189Y336468D01*
X246046Y336507D01*
X245905Y336549D01*
X245764Y336595D01*
X245625Y336644D01*
X245487Y336697D01*
X245350Y336753D01*
X245215Y336813D01*
X245082Y336876D01*
X245082Y336875D02*
X245011Y336901D01*
X244942Y336931D01*
X244874Y336965D01*
X244808Y337002D01*
X244744Y337042D01*
X244682Y337086D01*
X244623Y337132D01*
X244566Y337182D01*
X244512Y337235D01*
X244460Y337290D01*
X244412Y337348D01*
X244366Y337408D01*
X244324Y337471D01*
X244285Y337536D01*
X244249Y337602D01*
X244217Y337671D01*
X244189Y337740D01*
X244164Y337812D01*
X244143Y337884D01*
X244125Y337958D01*
X244112Y338032D01*
X244102Y338107D01*
X244096Y338182D01*
X244094Y338258D01*
X244096Y338334D01*
X244102Y338409D01*
X244112Y338484D01*
X244125Y338558D01*
X244143Y338632D01*
X244164Y338704D01*
X244189Y338776D01*
X244217Y338845D01*
X244249Y338914D01*
X244285Y338980D01*
X244324Y339045D01*
X244366Y339108D01*
X244412Y339168D01*
X244460Y339226D01*
X244512Y339281D01*
X244566Y339334D01*
X244623Y339384D01*
X244682Y339430D01*
X244744Y339474D01*
X244808Y339514D01*
X244874Y339551D01*
X244942Y339585D01*
X245011Y339615D01*
X245082Y339641D01*
X245215Y339704D01*
X245350Y339764D01*
X245487Y339820D01*
X245625Y339873D01*
X245764Y339922D01*
X245905Y339968D01*
X246046Y340010D01*
X246189Y340049D01*
X246332Y340084D01*
X246476Y340115D01*
X246622Y340143D01*
X246767Y340167D01*
X246913Y340188D01*
X247060Y340204D01*
X247207Y340217D01*
X247355Y340227D01*
X247502Y340232D01*
X247650Y340234D01*
X247650Y336283D02*
X247798Y336285D01*
X247945Y336290D01*
X248093Y336300D01*
X248240Y336313D01*
X248387Y336329D01*
X248533Y336350D01*
X248678Y336374D01*
X248824Y336402D01*
X248968Y336433D01*
X249111Y336468D01*
X249254Y336507D01*
X249395Y336549D01*
X249536Y336595D01*
X249675Y336644D01*
X249813Y336697D01*
X249950Y336753D01*
X250085Y336813D01*
X250218Y336876D01*
X250218Y336875D02*
X250289Y336901D01*
X250358Y336931D01*
X250426Y336965D01*
X250492Y337002D01*
X250556Y337042D01*
X250618Y337086D01*
X250677Y337132D01*
X250734Y337182D01*
X250788Y337235D01*
X250840Y337290D01*
X250888Y337348D01*
X250934Y337408D01*
X250976Y337471D01*
X251015Y337536D01*
X251051Y337602D01*
X251083Y337671D01*
X251111Y337741D01*
X251136Y337812D01*
X251157Y337884D01*
X251175Y337958D01*
X251188Y338032D01*
X251198Y338107D01*
X251204Y338182D01*
X251206Y338258D01*
X250218Y339641D02*
X250085Y339704D01*
X249950Y339764D01*
X249813Y339820D01*
X249675Y339873D01*
X249536Y339922D01*
X249395Y339968D01*
X249254Y340010D01*
X249111Y340049D01*
X248968Y340084D01*
X248824Y340115D01*
X248678Y340143D01*
X248533Y340167D01*
X248387Y340188D01*
X248240Y340204D01*
X248093Y340217D01*
X247945Y340227D01*
X247798Y340232D01*
X247650Y340234D01*
X250218Y339641D02*
X250289Y339615D01*
X250358Y339585D01*
X250426Y339551D01*
X250492Y339514D01*
X250556Y339474D01*
X250618Y339430D01*
X250677Y339384D01*
X250734Y339334D01*
X250788Y339281D01*
X250840Y339226D01*
X250888Y339168D01*
X250934Y339108D01*
X250976Y339045D01*
X251015Y338980D01*
X251051Y338914D01*
X251083Y338845D01*
X251111Y338775D01*
X251136Y338704D01*
X251157Y338632D01*
X251175Y338558D01*
X251188Y338484D01*
X251198Y338409D01*
X251204Y338334D01*
X251206Y338258D01*
X249626Y336678D02*
X245674Y339839D01*
X254254Y205994D02*
X261366Y205994D01*
X254254Y205994D02*
X254254Y207970D01*
X254256Y208056D01*
X254262Y208142D01*
X254271Y208228D01*
X254284Y208313D01*
X254301Y208398D01*
X254321Y208481D01*
X254345Y208564D01*
X254373Y208646D01*
X254404Y208726D01*
X254439Y208805D01*
X254477Y208882D01*
X254519Y208958D01*
X254563Y209032D01*
X254611Y209103D01*
X254662Y209173D01*
X254716Y209240D01*
X254773Y209305D01*
X254833Y209367D01*
X254895Y209427D01*
X254960Y209484D01*
X255027Y209538D01*
X255097Y209589D01*
X255168Y209637D01*
X255242Y209681D01*
X255318Y209723D01*
X255395Y209761D01*
X255474Y209796D01*
X255554Y209827D01*
X255636Y209855D01*
X255719Y209879D01*
X255802Y209899D01*
X255887Y209916D01*
X255972Y209929D01*
X256058Y209938D01*
X256144Y209944D01*
X256230Y209946D01*
X256230Y209945D02*
X259390Y209945D01*
X259390Y209946D02*
X259476Y209944D01*
X259562Y209938D01*
X259648Y209929D01*
X259733Y209916D01*
X259818Y209899D01*
X259901Y209879D01*
X259984Y209855D01*
X260066Y209827D01*
X260146Y209796D01*
X260225Y209761D01*
X260302Y209723D01*
X260378Y209681D01*
X260452Y209637D01*
X260523Y209589D01*
X260593Y209538D01*
X260660Y209484D01*
X260725Y209427D01*
X260787Y209367D01*
X260847Y209305D01*
X260904Y209240D01*
X260958Y209173D01*
X261009Y209103D01*
X261057Y209032D01*
X261101Y208958D01*
X261143Y208882D01*
X261181Y208805D01*
X261216Y208726D01*
X261247Y208646D01*
X261275Y208564D01*
X261299Y208481D01*
X261319Y208398D01*
X261336Y208313D01*
X261349Y208228D01*
X261358Y208142D01*
X261364Y208056D01*
X261366Y207970D01*
X261366Y205994D01*
X261366Y214204D02*
X261366Y216179D01*
X261366Y214204D02*
X261364Y214138D01*
X261359Y214071D01*
X261349Y214006D01*
X261336Y213940D01*
X261320Y213876D01*
X261300Y213813D01*
X261276Y213751D01*
X261249Y213690D01*
X261218Y213631D01*
X261184Y213574D01*
X261147Y213518D01*
X261107Y213465D01*
X261065Y213414D01*
X261019Y213366D01*
X260971Y213320D01*
X260920Y213278D01*
X260867Y213238D01*
X260811Y213201D01*
X260754Y213167D01*
X260695Y213136D01*
X260634Y213109D01*
X260572Y213085D01*
X260509Y213065D01*
X260445Y213049D01*
X260379Y213036D01*
X260314Y213026D01*
X260247Y213021D01*
X260181Y213019D01*
X260181Y213018D02*
X258205Y213018D01*
X258205Y213019D02*
X258126Y213021D01*
X258048Y213027D01*
X257970Y213037D01*
X257892Y213050D01*
X257815Y213068D01*
X257739Y213089D01*
X257665Y213114D01*
X257591Y213143D01*
X257519Y213175D01*
X257449Y213211D01*
X257381Y213251D01*
X257315Y213294D01*
X257251Y213340D01*
X257189Y213389D01*
X257130Y213441D01*
X257074Y213496D01*
X257020Y213554D01*
X256970Y213614D01*
X256922Y213677D01*
X256878Y213742D01*
X256837Y213809D01*
X256799Y213878D01*
X256765Y213949D01*
X256734Y214022D01*
X256707Y214096D01*
X256684Y214171D01*
X256665Y214247D01*
X256649Y214325D01*
X256637Y214403D01*
X256629Y214481D01*
X256625Y214560D01*
X256625Y214638D01*
X256629Y214717D01*
X256637Y214795D01*
X256649Y214873D01*
X256665Y214951D01*
X256684Y215027D01*
X256707Y215102D01*
X256734Y215176D01*
X256765Y215249D01*
X256799Y215320D01*
X256837Y215389D01*
X256878Y215456D01*
X256922Y215521D01*
X256970Y215584D01*
X257020Y215644D01*
X257074Y215702D01*
X257130Y215757D01*
X257189Y215809D01*
X257251Y215858D01*
X257315Y215904D01*
X257381Y215947D01*
X257449Y215987D01*
X257519Y216023D01*
X257591Y216055D01*
X257665Y216084D01*
X257739Y216109D01*
X257815Y216130D01*
X257892Y216148D01*
X257970Y216161D01*
X258048Y216171D01*
X258126Y216177D01*
X258205Y216179D01*
X258995Y216179D01*
X258995Y213018D01*
X258600Y219555D02*
X259390Y221530D01*
X258600Y219555D02*
X258575Y219497D01*
X258546Y219441D01*
X258514Y219386D01*
X258478Y219334D01*
X258439Y219284D01*
X258398Y219237D01*
X258353Y219192D01*
X258306Y219150D01*
X258257Y219111D01*
X258205Y219075D01*
X258151Y219042D01*
X258095Y219013D01*
X258037Y218987D01*
X257978Y218965D01*
X257917Y218947D01*
X257856Y218932D01*
X257794Y218921D01*
X257731Y218914D01*
X257668Y218911D01*
X257605Y218912D01*
X257542Y218917D01*
X257479Y218925D01*
X257417Y218938D01*
X257356Y218954D01*
X257296Y218974D01*
X257238Y218997D01*
X257181Y219024D01*
X257126Y219055D01*
X257072Y219089D01*
X257021Y219126D01*
X256973Y219166D01*
X256926Y219209D01*
X256883Y219255D01*
X256843Y219304D01*
X256805Y219355D01*
X256771Y219408D01*
X256740Y219463D01*
X256713Y219520D01*
X256689Y219578D01*
X256669Y219638D01*
X256653Y219699D01*
X256640Y219761D01*
X256631Y219824D01*
X256626Y219886D01*
X256625Y219950D01*
X256624Y219950D02*
X256628Y220081D01*
X256636Y220212D01*
X256647Y220342D01*
X256662Y220472D01*
X256682Y220602D01*
X256704Y220731D01*
X256731Y220859D01*
X256761Y220987D01*
X256795Y221113D01*
X256833Y221239D01*
X256874Y221363D01*
X256919Y221486D01*
X256968Y221608D01*
X257020Y221728D01*
X259391Y221530D02*
X259416Y221588D01*
X259445Y221644D01*
X259477Y221699D01*
X259513Y221751D01*
X259552Y221801D01*
X259593Y221848D01*
X259638Y221893D01*
X259685Y221935D01*
X259734Y221974D01*
X259786Y222010D01*
X259840Y222043D01*
X259896Y222072D01*
X259954Y222098D01*
X260013Y222120D01*
X260074Y222138D01*
X260135Y222153D01*
X260197Y222164D01*
X260260Y222171D01*
X260323Y222174D01*
X260386Y222173D01*
X260449Y222168D01*
X260512Y222160D01*
X260574Y222147D01*
X260635Y222131D01*
X260695Y222111D01*
X260753Y222088D01*
X260810Y222061D01*
X260865Y222030D01*
X260919Y221996D01*
X260970Y221959D01*
X261018Y221919D01*
X261065Y221876D01*
X261108Y221830D01*
X261148Y221781D01*
X261186Y221730D01*
X261220Y221677D01*
X261251Y221622D01*
X261278Y221565D01*
X261302Y221507D01*
X261322Y221447D01*
X261338Y221386D01*
X261351Y221324D01*
X261360Y221261D01*
X261365Y221199D01*
X261366Y221135D01*
X261362Y220977D01*
X261354Y220819D01*
X261343Y220661D01*
X261327Y220503D01*
X261308Y220345D01*
X261285Y220189D01*
X261259Y220032D01*
X261229Y219877D01*
X261195Y219722D01*
X261157Y219568D01*
X261116Y219415D01*
X261071Y219263D01*
X261023Y219112D01*
X260971Y218962D01*
X261366Y224886D02*
X256625Y224886D01*
X254649Y224688D02*
X254254Y224688D01*
X254254Y225083D01*
X254649Y225083D01*
X254649Y224688D01*
X261366Y228802D02*
X261366Y230777D01*
X261366Y228802D02*
X261364Y228736D01*
X261359Y228669D01*
X261349Y228604D01*
X261336Y228538D01*
X261320Y228474D01*
X261300Y228411D01*
X261276Y228349D01*
X261249Y228288D01*
X261218Y228229D01*
X261184Y228172D01*
X261147Y228116D01*
X261107Y228063D01*
X261065Y228012D01*
X261019Y227964D01*
X260971Y227918D01*
X260920Y227876D01*
X260867Y227836D01*
X260811Y227799D01*
X260754Y227765D01*
X260695Y227734D01*
X260634Y227707D01*
X260572Y227683D01*
X260509Y227663D01*
X260445Y227647D01*
X260379Y227634D01*
X260314Y227624D01*
X260247Y227619D01*
X260181Y227617D01*
X260181Y227616D02*
X257810Y227616D01*
X257810Y227617D02*
X257744Y227619D01*
X257677Y227624D01*
X257612Y227634D01*
X257546Y227647D01*
X257482Y227663D01*
X257419Y227683D01*
X257357Y227707D01*
X257296Y227734D01*
X257237Y227765D01*
X257180Y227799D01*
X257124Y227836D01*
X257071Y227876D01*
X257020Y227918D01*
X256972Y227964D01*
X256926Y228012D01*
X256884Y228063D01*
X256844Y228116D01*
X256807Y228172D01*
X256773Y228229D01*
X256742Y228288D01*
X256715Y228349D01*
X256691Y228411D01*
X256671Y228474D01*
X256655Y228538D01*
X256642Y228604D01*
X256632Y228669D01*
X256627Y228736D01*
X256625Y228802D01*
X256625Y230777D01*
X262551Y230777D01*
X262617Y230775D01*
X262684Y230770D01*
X262749Y230760D01*
X262815Y230747D01*
X262879Y230731D01*
X262942Y230711D01*
X263004Y230687D01*
X263065Y230660D01*
X263124Y230629D01*
X263181Y230595D01*
X263237Y230558D01*
X263290Y230518D01*
X263341Y230476D01*
X263389Y230430D01*
X263435Y230382D01*
X263477Y230331D01*
X263517Y230278D01*
X263554Y230222D01*
X263588Y230165D01*
X263619Y230106D01*
X263646Y230045D01*
X263670Y229983D01*
X263690Y229920D01*
X263706Y229856D01*
X263719Y229790D01*
X263729Y229725D01*
X263734Y229658D01*
X263736Y229592D01*
X263737Y229592D02*
X263737Y228011D01*
X261366Y234050D02*
X256625Y234050D01*
X256625Y236025D01*
X256627Y236091D01*
X256632Y236158D01*
X256642Y236223D01*
X256655Y236289D01*
X256671Y236353D01*
X256691Y236416D01*
X256715Y236478D01*
X256742Y236539D01*
X256773Y236598D01*
X256807Y236655D01*
X256844Y236711D01*
X256884Y236764D01*
X256926Y236815D01*
X256972Y236863D01*
X257020Y236909D01*
X257071Y236951D01*
X257124Y236991D01*
X257180Y237028D01*
X257237Y237062D01*
X257296Y237093D01*
X257356Y237120D01*
X257419Y237143D01*
X257482Y237164D01*
X257546Y237180D01*
X257611Y237193D01*
X257677Y237203D01*
X257744Y237208D01*
X257810Y237210D01*
X261366Y237210D01*
X261366Y241407D02*
X261366Y243383D01*
X261366Y241407D02*
X261364Y241341D01*
X261359Y241274D01*
X261349Y241209D01*
X261336Y241143D01*
X261320Y241079D01*
X261300Y241016D01*
X261276Y240954D01*
X261249Y240893D01*
X261218Y240834D01*
X261184Y240777D01*
X261147Y240721D01*
X261107Y240668D01*
X261065Y240617D01*
X261019Y240569D01*
X260971Y240523D01*
X260920Y240481D01*
X260867Y240441D01*
X260811Y240404D01*
X260754Y240370D01*
X260695Y240339D01*
X260634Y240312D01*
X260572Y240288D01*
X260509Y240268D01*
X260445Y240252D01*
X260379Y240239D01*
X260314Y240229D01*
X260247Y240224D01*
X260181Y240222D01*
X258205Y240222D01*
X258126Y240224D01*
X258048Y240230D01*
X257970Y240240D01*
X257892Y240253D01*
X257815Y240271D01*
X257739Y240292D01*
X257665Y240317D01*
X257591Y240346D01*
X257519Y240378D01*
X257449Y240414D01*
X257381Y240454D01*
X257315Y240497D01*
X257251Y240543D01*
X257189Y240592D01*
X257130Y240644D01*
X257074Y240699D01*
X257020Y240757D01*
X256970Y240817D01*
X256922Y240880D01*
X256878Y240945D01*
X256837Y241012D01*
X256799Y241081D01*
X256765Y241152D01*
X256734Y241225D01*
X256707Y241299D01*
X256684Y241374D01*
X256665Y241450D01*
X256649Y241528D01*
X256637Y241606D01*
X256629Y241684D01*
X256625Y241763D01*
X256625Y241841D01*
X256629Y241920D01*
X256637Y241998D01*
X256649Y242076D01*
X256665Y242154D01*
X256684Y242230D01*
X256707Y242305D01*
X256734Y242379D01*
X256765Y242452D01*
X256799Y242523D01*
X256837Y242592D01*
X256878Y242659D01*
X256922Y242724D01*
X256970Y242787D01*
X257020Y242847D01*
X257074Y242905D01*
X257130Y242960D01*
X257189Y243012D01*
X257251Y243061D01*
X257315Y243107D01*
X257381Y243150D01*
X257449Y243190D01*
X257519Y243226D01*
X257591Y243258D01*
X257665Y243287D01*
X257739Y243312D01*
X257815Y243333D01*
X257892Y243351D01*
X257970Y243364D01*
X258048Y243374D01*
X258126Y243380D01*
X258205Y243382D01*
X258205Y243383D02*
X258995Y243383D01*
X258995Y240222D01*
X261366Y249294D02*
X254254Y249294D01*
X261366Y249294D02*
X261366Y247318D01*
X261364Y247252D01*
X261359Y247185D01*
X261349Y247120D01*
X261336Y247054D01*
X261320Y246990D01*
X261300Y246927D01*
X261276Y246865D01*
X261249Y246804D01*
X261218Y246745D01*
X261184Y246688D01*
X261147Y246632D01*
X261107Y246579D01*
X261065Y246528D01*
X261019Y246480D01*
X260971Y246434D01*
X260920Y246392D01*
X260867Y246352D01*
X260811Y246315D01*
X260754Y246281D01*
X260695Y246250D01*
X260634Y246223D01*
X260572Y246199D01*
X260509Y246179D01*
X260445Y246163D01*
X260379Y246150D01*
X260314Y246140D01*
X260247Y246135D01*
X260181Y246133D01*
X257810Y246133D01*
X257744Y246135D01*
X257677Y246140D01*
X257612Y246150D01*
X257546Y246163D01*
X257482Y246179D01*
X257419Y246199D01*
X257357Y246223D01*
X257296Y246250D01*
X257237Y246281D01*
X257180Y246315D01*
X257124Y246352D01*
X257071Y246392D01*
X257020Y246434D01*
X256972Y246480D01*
X256926Y246528D01*
X256884Y246579D01*
X256844Y246632D01*
X256807Y246688D01*
X256773Y246745D01*
X256742Y246804D01*
X256715Y246865D01*
X256691Y246927D01*
X256671Y246990D01*
X256655Y247054D01*
X256642Y247120D01*
X256632Y247185D01*
X256627Y247252D01*
X256625Y247318D01*
X256625Y249294D01*
X254254Y256256D02*
X261366Y256256D01*
X261366Y258231D01*
X261364Y258297D01*
X261359Y258364D01*
X261349Y258429D01*
X261336Y258495D01*
X261320Y258559D01*
X261300Y258622D01*
X261276Y258684D01*
X261249Y258745D01*
X261218Y258804D01*
X261184Y258861D01*
X261147Y258917D01*
X261107Y258970D01*
X261065Y259021D01*
X261019Y259069D01*
X260971Y259115D01*
X260920Y259157D01*
X260867Y259197D01*
X260811Y259234D01*
X260754Y259268D01*
X260695Y259299D01*
X260634Y259326D01*
X260572Y259350D01*
X260509Y259370D01*
X260445Y259386D01*
X260379Y259399D01*
X260314Y259409D01*
X260247Y259414D01*
X260181Y259416D01*
X260181Y259417D02*
X257810Y259417D01*
X257810Y259416D02*
X257744Y259414D01*
X257677Y259409D01*
X257612Y259399D01*
X257546Y259386D01*
X257482Y259370D01*
X257419Y259350D01*
X257357Y259326D01*
X257296Y259299D01*
X257237Y259268D01*
X257180Y259234D01*
X257124Y259197D01*
X257071Y259157D01*
X257020Y259115D01*
X256972Y259069D01*
X256926Y259021D01*
X256884Y258970D01*
X256844Y258917D01*
X256807Y258861D01*
X256773Y258804D01*
X256742Y258745D01*
X256715Y258684D01*
X256691Y258622D01*
X256671Y258559D01*
X256655Y258495D01*
X256642Y258429D01*
X256632Y258364D01*
X256627Y258297D01*
X256625Y258231D01*
X256625Y256256D01*
X263737Y261939D02*
X263737Y262729D01*
X256625Y265099D01*
X256625Y261939D02*
X261366Y263519D01*
X261366Y273515D02*
X261364Y273593D01*
X261358Y273670D01*
X261349Y273747D01*
X261336Y273823D01*
X261319Y273899D01*
X261298Y273974D01*
X261274Y274047D01*
X261246Y274120D01*
X261214Y274191D01*
X261179Y274260D01*
X261141Y274327D01*
X261100Y274393D01*
X261055Y274456D01*
X261007Y274517D01*
X260957Y274576D01*
X260903Y274632D01*
X260847Y274686D01*
X260788Y274736D01*
X260727Y274784D01*
X260664Y274829D01*
X260598Y274870D01*
X260531Y274908D01*
X260462Y274943D01*
X260391Y274975D01*
X260318Y275003D01*
X260245Y275027D01*
X260170Y275048D01*
X260094Y275065D01*
X260018Y275078D01*
X259941Y275087D01*
X259864Y275093D01*
X259786Y275095D01*
X261366Y273515D02*
X261364Y273400D01*
X261358Y273286D01*
X261348Y273172D01*
X261335Y273058D01*
X261317Y272945D01*
X261295Y272832D01*
X261270Y272720D01*
X261241Y272610D01*
X261208Y272500D01*
X261171Y272391D01*
X261131Y272284D01*
X261087Y272178D01*
X261039Y272074D01*
X260988Y271971D01*
X260933Y271871D01*
X260875Y271772D01*
X260813Y271675D01*
X260749Y271581D01*
X260681Y271488D01*
X260609Y271398D01*
X260535Y271311D01*
X260458Y271226D01*
X260378Y271144D01*
X255834Y271343D02*
X255756Y271345D01*
X255679Y271351D01*
X255602Y271360D01*
X255526Y271373D01*
X255450Y271390D01*
X255375Y271411D01*
X255302Y271435D01*
X255229Y271463D01*
X255158Y271495D01*
X255089Y271530D01*
X255022Y271568D01*
X254956Y271609D01*
X254893Y271654D01*
X254832Y271702D01*
X254773Y271752D01*
X254717Y271806D01*
X254663Y271862D01*
X254613Y271921D01*
X254565Y271982D01*
X254520Y272045D01*
X254479Y272111D01*
X254441Y272178D01*
X254406Y272247D01*
X254374Y272318D01*
X254346Y272391D01*
X254322Y272464D01*
X254301Y272539D01*
X254284Y272615D01*
X254271Y272691D01*
X254262Y272768D01*
X254256Y272845D01*
X254254Y272923D01*
X254256Y273029D01*
X254262Y273135D01*
X254271Y273240D01*
X254284Y273345D01*
X254301Y273450D01*
X254322Y273554D01*
X254346Y273657D01*
X254374Y273759D01*
X254406Y273860D01*
X254441Y273960D01*
X254480Y274058D01*
X254523Y274156D01*
X254568Y274251D01*
X254617Y274345D01*
X254670Y274437D01*
X254726Y274527D01*
X254785Y274615D01*
X254847Y274701D01*
X257217Y272132D02*
X257175Y272065D01*
X257130Y272000D01*
X257081Y271937D01*
X257030Y271876D01*
X256975Y271819D01*
X256918Y271764D01*
X256858Y271711D01*
X256796Y271662D01*
X256731Y271616D01*
X256665Y271574D01*
X256596Y271534D01*
X256525Y271498D01*
X256452Y271466D01*
X256378Y271437D01*
X256303Y271412D01*
X256227Y271391D01*
X256149Y271373D01*
X256071Y271360D01*
X255992Y271350D01*
X255913Y271344D01*
X255834Y271342D01*
X258403Y274306D02*
X258445Y274373D01*
X258490Y274438D01*
X258539Y274501D01*
X258590Y274562D01*
X258645Y274619D01*
X258702Y274674D01*
X258762Y274727D01*
X258824Y274776D01*
X258889Y274822D01*
X258955Y274864D01*
X259024Y274904D01*
X259095Y274940D01*
X259168Y274972D01*
X259242Y275001D01*
X259317Y275026D01*
X259393Y275047D01*
X259471Y275065D01*
X259549Y275078D01*
X259628Y275088D01*
X259707Y275094D01*
X259786Y275096D01*
X258403Y274305D02*
X257217Y272132D01*
X256625Y277607D02*
X261366Y278793D01*
X258205Y279978D01*
X261366Y281163D01*
X256625Y282349D01*
X258205Y285027D02*
X259786Y285027D01*
X258205Y285027D02*
X258126Y285029D01*
X258048Y285035D01*
X257970Y285045D01*
X257892Y285058D01*
X257815Y285076D01*
X257739Y285097D01*
X257665Y285122D01*
X257591Y285151D01*
X257519Y285183D01*
X257449Y285219D01*
X257381Y285259D01*
X257315Y285302D01*
X257251Y285348D01*
X257189Y285397D01*
X257130Y285449D01*
X257074Y285504D01*
X257020Y285562D01*
X256970Y285622D01*
X256922Y285685D01*
X256878Y285750D01*
X256837Y285817D01*
X256799Y285886D01*
X256765Y285957D01*
X256734Y286030D01*
X256707Y286104D01*
X256684Y286179D01*
X256665Y286255D01*
X256649Y286333D01*
X256637Y286411D01*
X256629Y286489D01*
X256625Y286568D01*
X256625Y286646D01*
X256629Y286725D01*
X256637Y286803D01*
X256649Y286881D01*
X256665Y286959D01*
X256684Y287035D01*
X256707Y287110D01*
X256734Y287184D01*
X256765Y287257D01*
X256799Y287328D01*
X256837Y287397D01*
X256878Y287464D01*
X256922Y287529D01*
X256970Y287592D01*
X257020Y287652D01*
X257074Y287710D01*
X257130Y287765D01*
X257189Y287817D01*
X257251Y287866D01*
X257315Y287912D01*
X257381Y287955D01*
X257449Y287995D01*
X257519Y288031D01*
X257591Y288063D01*
X257665Y288092D01*
X257739Y288117D01*
X257815Y288138D01*
X257892Y288156D01*
X257970Y288169D01*
X258048Y288179D01*
X258126Y288185D01*
X258205Y288187D01*
X258205Y288188D02*
X259786Y288188D01*
X259786Y288187D02*
X259865Y288185D01*
X259943Y288179D01*
X260021Y288169D01*
X260099Y288156D01*
X260176Y288138D01*
X260252Y288117D01*
X260326Y288092D01*
X260400Y288063D01*
X260472Y288031D01*
X260542Y287995D01*
X260610Y287955D01*
X260676Y287912D01*
X260740Y287866D01*
X260802Y287817D01*
X260861Y287765D01*
X260917Y287710D01*
X260971Y287652D01*
X261021Y287592D01*
X261069Y287529D01*
X261113Y287464D01*
X261154Y287397D01*
X261192Y287328D01*
X261226Y287257D01*
X261257Y287184D01*
X261284Y287110D01*
X261307Y287035D01*
X261326Y286959D01*
X261342Y286881D01*
X261354Y286803D01*
X261362Y286725D01*
X261366Y286646D01*
X261366Y286568D01*
X261362Y286489D01*
X261354Y286411D01*
X261342Y286333D01*
X261326Y286255D01*
X261307Y286179D01*
X261284Y286104D01*
X261257Y286030D01*
X261226Y285957D01*
X261192Y285886D01*
X261154Y285817D01*
X261113Y285750D01*
X261069Y285685D01*
X261021Y285622D01*
X260971Y285562D01*
X260917Y285504D01*
X260861Y285449D01*
X260802Y285397D01*
X260740Y285348D01*
X260676Y285302D01*
X260610Y285259D01*
X260542Y285219D01*
X260472Y285183D01*
X260400Y285151D01*
X260326Y285122D01*
X260252Y285097D01*
X260176Y285076D01*
X260099Y285058D01*
X260021Y285045D01*
X259943Y285035D01*
X259865Y285029D01*
X259786Y285027D01*
X261366Y291236D02*
X256625Y291236D01*
X256625Y293606D01*
X257415Y293606D01*
X256625Y295201D02*
X256625Y297572D01*
X254254Y295991D02*
X260181Y295991D01*
X260181Y295992D02*
X260247Y295994D01*
X260314Y295999D01*
X260379Y296009D01*
X260445Y296022D01*
X260509Y296038D01*
X260572Y296058D01*
X260634Y296082D01*
X260695Y296109D01*
X260754Y296140D01*
X260811Y296174D01*
X260867Y296211D01*
X260920Y296251D01*
X260971Y296293D01*
X261019Y296339D01*
X261065Y296387D01*
X261107Y296438D01*
X261147Y296491D01*
X261184Y296547D01*
X261218Y296604D01*
X261249Y296663D01*
X261276Y296724D01*
X261300Y296786D01*
X261320Y296849D01*
X261336Y296913D01*
X261349Y296979D01*
X261359Y297044D01*
X261364Y297111D01*
X261366Y297177D01*
X261366Y297572D01*
X258600Y301465D02*
X258600Y303243D01*
X258600Y301465D02*
X258602Y301391D01*
X258608Y301318D01*
X258618Y301245D01*
X258631Y301173D01*
X258649Y301101D01*
X258670Y301031D01*
X258695Y300961D01*
X258724Y300894D01*
X258756Y300827D01*
X258791Y300763D01*
X258831Y300700D01*
X258873Y300640D01*
X258918Y300582D01*
X258967Y300527D01*
X259018Y300474D01*
X259072Y300424D01*
X259129Y300377D01*
X259188Y300333D01*
X259249Y300293D01*
X259313Y300255D01*
X259378Y300221D01*
X259445Y300191D01*
X259514Y300164D01*
X259584Y300141D01*
X259655Y300122D01*
X259727Y300106D01*
X259799Y300094D01*
X259873Y300086D01*
X259946Y300082D01*
X260020Y300082D01*
X260093Y300086D01*
X260167Y300094D01*
X260239Y300106D01*
X260311Y300122D01*
X260382Y300141D01*
X260452Y300164D01*
X260521Y300191D01*
X260588Y300221D01*
X260653Y300255D01*
X260717Y300293D01*
X260778Y300333D01*
X260837Y300377D01*
X260894Y300424D01*
X260948Y300474D01*
X260999Y300527D01*
X261048Y300582D01*
X261093Y300640D01*
X261135Y300700D01*
X261175Y300763D01*
X261210Y300827D01*
X261242Y300894D01*
X261271Y300961D01*
X261296Y301031D01*
X261317Y301101D01*
X261335Y301173D01*
X261348Y301245D01*
X261358Y301318D01*
X261364Y301391D01*
X261366Y301465D01*
X261366Y303243D01*
X257810Y303243D01*
X257744Y303241D01*
X257677Y303236D01*
X257612Y303226D01*
X257546Y303213D01*
X257482Y303197D01*
X257419Y303177D01*
X257357Y303153D01*
X257296Y303126D01*
X257237Y303095D01*
X257180Y303061D01*
X257124Y303024D01*
X257071Y302984D01*
X257020Y302942D01*
X256972Y302896D01*
X256926Y302848D01*
X256884Y302797D01*
X256844Y302744D01*
X256807Y302688D01*
X256773Y302631D01*
X256742Y302572D01*
X256715Y302511D01*
X256691Y302449D01*
X256671Y302386D01*
X256655Y302322D01*
X256642Y302256D01*
X256632Y302191D01*
X256627Y302124D01*
X256625Y302058D01*
X256625Y300477D01*
X256625Y306267D02*
X261366Y306267D01*
X254649Y306069D02*
X254254Y306069D01*
X254254Y306464D01*
X254649Y306464D01*
X254649Y306069D01*
X256625Y309258D02*
X261366Y309258D01*
X256625Y309258D02*
X256625Y311234D01*
X256627Y311300D01*
X256632Y311367D01*
X256642Y311432D01*
X256655Y311498D01*
X256671Y311562D01*
X256691Y311625D01*
X256715Y311687D01*
X256742Y311748D01*
X256773Y311807D01*
X256807Y311864D01*
X256844Y311920D01*
X256884Y311973D01*
X256926Y312024D01*
X256972Y312072D01*
X257020Y312118D01*
X257071Y312160D01*
X257124Y312200D01*
X257180Y312237D01*
X257237Y312271D01*
X257296Y312302D01*
X257356Y312329D01*
X257419Y312352D01*
X257482Y312373D01*
X257546Y312389D01*
X257611Y312402D01*
X257677Y312412D01*
X257744Y312417D01*
X257810Y312419D01*
X261366Y312419D01*
X266785Y207574D02*
X272711Y207574D01*
X272777Y207572D01*
X272844Y207567D01*
X272909Y207557D01*
X272975Y207544D01*
X273039Y207528D01*
X273102Y207508D01*
X273164Y207484D01*
X273225Y207457D01*
X273284Y207426D01*
X273341Y207392D01*
X273397Y207355D01*
X273450Y207315D01*
X273501Y207273D01*
X273549Y207227D01*
X273595Y207179D01*
X273637Y207128D01*
X273677Y207075D01*
X273714Y207019D01*
X273748Y206962D01*
X273779Y206903D01*
X273806Y206842D01*
X273830Y206780D01*
X273850Y206717D01*
X273866Y206653D01*
X273879Y206587D01*
X273889Y206522D01*
X273894Y206455D01*
X273896Y206389D01*
X273897Y206389D02*
X273897Y205994D01*
X264809Y207377D02*
X264414Y207377D01*
X264414Y207772D01*
X264809Y207772D01*
X264809Y207377D01*
X266785Y210426D02*
X271526Y210426D01*
X264809Y210229D02*
X264414Y210229D01*
X264414Y210624D01*
X264809Y210624D01*
X264809Y210229D01*
X268760Y214540D02*
X268760Y216318D01*
X268760Y214540D02*
X268762Y214466D01*
X268768Y214393D01*
X268778Y214320D01*
X268791Y214248D01*
X268809Y214176D01*
X268830Y214106D01*
X268855Y214036D01*
X268884Y213969D01*
X268916Y213902D01*
X268951Y213838D01*
X268991Y213775D01*
X269033Y213715D01*
X269078Y213657D01*
X269127Y213602D01*
X269178Y213549D01*
X269232Y213499D01*
X269289Y213452D01*
X269348Y213408D01*
X269409Y213368D01*
X269473Y213330D01*
X269538Y213296D01*
X269605Y213266D01*
X269674Y213239D01*
X269744Y213216D01*
X269815Y213197D01*
X269887Y213181D01*
X269959Y213169D01*
X270033Y213161D01*
X270106Y213157D01*
X270180Y213157D01*
X270253Y213161D01*
X270327Y213169D01*
X270399Y213181D01*
X270471Y213197D01*
X270542Y213216D01*
X270612Y213239D01*
X270681Y213266D01*
X270748Y213296D01*
X270813Y213330D01*
X270877Y213368D01*
X270938Y213408D01*
X270997Y213452D01*
X271054Y213499D01*
X271108Y213549D01*
X271159Y213602D01*
X271208Y213657D01*
X271253Y213715D01*
X271295Y213775D01*
X271335Y213838D01*
X271370Y213902D01*
X271402Y213969D01*
X271431Y214036D01*
X271456Y214106D01*
X271477Y214176D01*
X271495Y214248D01*
X271508Y214320D01*
X271518Y214393D01*
X271524Y214466D01*
X271526Y214540D01*
X271526Y216318D01*
X267970Y216318D01*
X267970Y216317D02*
X267904Y216315D01*
X267837Y216310D01*
X267772Y216300D01*
X267706Y216287D01*
X267642Y216271D01*
X267579Y216251D01*
X267517Y216227D01*
X267456Y216200D01*
X267397Y216169D01*
X267340Y216135D01*
X267284Y216098D01*
X267231Y216058D01*
X267180Y216016D01*
X267132Y215970D01*
X267086Y215922D01*
X267044Y215871D01*
X267004Y215818D01*
X266967Y215762D01*
X266933Y215705D01*
X266902Y215646D01*
X266875Y215585D01*
X266851Y215523D01*
X266831Y215460D01*
X266815Y215396D01*
X266802Y215330D01*
X266792Y215265D01*
X266787Y215198D01*
X266785Y215132D01*
X266785Y213552D01*
X266785Y219590D02*
X271526Y219590D01*
X266785Y219590D02*
X266785Y221565D01*
X266787Y221631D01*
X266792Y221698D01*
X266802Y221763D01*
X266815Y221829D01*
X266831Y221893D01*
X266851Y221956D01*
X266875Y222018D01*
X266902Y222079D01*
X266933Y222138D01*
X266967Y222195D01*
X267004Y222251D01*
X267044Y222304D01*
X267086Y222355D01*
X267132Y222403D01*
X267180Y222449D01*
X267231Y222491D01*
X267284Y222531D01*
X267340Y222568D01*
X267397Y222602D01*
X267456Y222633D01*
X267516Y222660D01*
X267579Y222683D01*
X267642Y222704D01*
X267706Y222720D01*
X267771Y222733D01*
X267837Y222743D01*
X267904Y222748D01*
X267970Y222750D01*
X267970Y222751D02*
X271526Y222751D01*
X268760Y226355D02*
X269550Y228330D01*
X268760Y226355D02*
X268735Y226297D01*
X268706Y226241D01*
X268674Y226186D01*
X268638Y226134D01*
X268599Y226084D01*
X268558Y226037D01*
X268513Y225992D01*
X268466Y225950D01*
X268417Y225911D01*
X268365Y225875D01*
X268311Y225842D01*
X268255Y225813D01*
X268197Y225787D01*
X268138Y225765D01*
X268077Y225747D01*
X268016Y225732D01*
X267954Y225721D01*
X267891Y225714D01*
X267828Y225711D01*
X267765Y225712D01*
X267702Y225717D01*
X267639Y225725D01*
X267577Y225738D01*
X267516Y225754D01*
X267456Y225774D01*
X267398Y225797D01*
X267341Y225824D01*
X267286Y225855D01*
X267232Y225889D01*
X267181Y225926D01*
X267133Y225966D01*
X267086Y226009D01*
X267043Y226055D01*
X267003Y226104D01*
X266965Y226155D01*
X266931Y226208D01*
X266900Y226263D01*
X266873Y226320D01*
X266849Y226378D01*
X266829Y226438D01*
X266813Y226499D01*
X266800Y226561D01*
X266791Y226624D01*
X266786Y226686D01*
X266785Y226750D01*
X266784Y226750D02*
X266788Y226881D01*
X266796Y227012D01*
X266807Y227142D01*
X266822Y227272D01*
X266842Y227402D01*
X266864Y227531D01*
X266891Y227659D01*
X266921Y227787D01*
X266955Y227913D01*
X266993Y228039D01*
X267034Y228163D01*
X267079Y228286D01*
X267128Y228408D01*
X267180Y228528D01*
X269551Y228330D02*
X269576Y228388D01*
X269605Y228444D01*
X269637Y228499D01*
X269673Y228551D01*
X269712Y228601D01*
X269753Y228648D01*
X269798Y228693D01*
X269845Y228735D01*
X269894Y228774D01*
X269946Y228810D01*
X270000Y228843D01*
X270056Y228872D01*
X270114Y228898D01*
X270173Y228920D01*
X270234Y228938D01*
X270295Y228953D01*
X270357Y228964D01*
X270420Y228971D01*
X270483Y228974D01*
X270546Y228973D01*
X270609Y228968D01*
X270672Y228960D01*
X270734Y228947D01*
X270795Y228931D01*
X270855Y228911D01*
X270913Y228888D01*
X270970Y228861D01*
X271025Y228830D01*
X271079Y228796D01*
X271130Y228759D01*
X271178Y228719D01*
X271225Y228676D01*
X271268Y228630D01*
X271308Y228581D01*
X271346Y228530D01*
X271380Y228477D01*
X271411Y228422D01*
X271438Y228365D01*
X271462Y228307D01*
X271482Y228247D01*
X271498Y228186D01*
X271511Y228124D01*
X271520Y228061D01*
X271525Y227999D01*
X271526Y227935D01*
X271522Y227777D01*
X271514Y227619D01*
X271503Y227461D01*
X271487Y227303D01*
X271468Y227145D01*
X271445Y226989D01*
X271419Y226832D01*
X271389Y226677D01*
X271355Y226522D01*
X271317Y226368D01*
X271276Y226215D01*
X271231Y226063D01*
X271183Y225912D01*
X271131Y225762D01*
X271526Y231934D02*
X264414Y231934D01*
X266785Y231934D02*
X266785Y233910D01*
X266787Y233976D01*
X266792Y234043D01*
X266802Y234108D01*
X266815Y234174D01*
X266831Y234238D01*
X266851Y234301D01*
X266875Y234363D01*
X266902Y234424D01*
X266933Y234483D01*
X266967Y234540D01*
X267004Y234596D01*
X267044Y234649D01*
X267086Y234700D01*
X267132Y234748D01*
X267180Y234794D01*
X267231Y234836D01*
X267284Y234876D01*
X267340Y234913D01*
X267397Y234947D01*
X267456Y234978D01*
X267516Y235005D01*
X267579Y235028D01*
X267642Y235049D01*
X267706Y235065D01*
X267771Y235078D01*
X267837Y235088D01*
X267904Y235093D01*
X267970Y235095D01*
X271526Y235095D01*
X268760Y239457D02*
X268760Y241235D01*
X268760Y239457D02*
X268762Y239383D01*
X268768Y239310D01*
X268778Y239237D01*
X268791Y239165D01*
X268809Y239093D01*
X268830Y239023D01*
X268855Y238953D01*
X268884Y238886D01*
X268916Y238819D01*
X268951Y238755D01*
X268991Y238692D01*
X269033Y238632D01*
X269078Y238574D01*
X269127Y238519D01*
X269178Y238466D01*
X269232Y238416D01*
X269289Y238369D01*
X269348Y238325D01*
X269409Y238285D01*
X269473Y238247D01*
X269538Y238213D01*
X269605Y238183D01*
X269674Y238156D01*
X269744Y238133D01*
X269815Y238114D01*
X269887Y238098D01*
X269959Y238086D01*
X270033Y238078D01*
X270106Y238074D01*
X270180Y238074D01*
X270253Y238078D01*
X270327Y238086D01*
X270399Y238098D01*
X270471Y238114D01*
X270542Y238133D01*
X270612Y238156D01*
X270681Y238183D01*
X270748Y238213D01*
X270813Y238247D01*
X270877Y238285D01*
X270938Y238325D01*
X270997Y238369D01*
X271054Y238416D01*
X271108Y238466D01*
X271159Y238519D01*
X271208Y238574D01*
X271253Y238632D01*
X271295Y238692D01*
X271335Y238755D01*
X271370Y238819D01*
X271402Y238886D01*
X271431Y238953D01*
X271456Y239023D01*
X271477Y239093D01*
X271495Y239165D01*
X271508Y239237D01*
X271518Y239310D01*
X271524Y239383D01*
X271526Y239457D01*
X271526Y241235D01*
X267970Y241235D01*
X267904Y241233D01*
X267837Y241228D01*
X267772Y241218D01*
X267706Y241205D01*
X267642Y241189D01*
X267579Y241169D01*
X267517Y241145D01*
X267456Y241118D01*
X267397Y241087D01*
X267340Y241053D01*
X267284Y241016D01*
X267231Y240976D01*
X267180Y240934D01*
X267132Y240888D01*
X267086Y240840D01*
X267044Y240789D01*
X267004Y240736D01*
X266967Y240680D01*
X266933Y240623D01*
X266902Y240564D01*
X266875Y240503D01*
X266851Y240441D01*
X266831Y240378D01*
X266815Y240314D01*
X266802Y240248D01*
X266792Y240183D01*
X266787Y240116D01*
X266785Y240050D01*
X266785Y238469D01*
X266785Y244507D02*
X271526Y244507D01*
X266785Y244507D02*
X266785Y246483D01*
X266787Y246549D01*
X266792Y246616D01*
X266802Y246681D01*
X266815Y246747D01*
X266831Y246811D01*
X266851Y246874D01*
X266875Y246936D01*
X266902Y246997D01*
X266933Y247056D01*
X266967Y247113D01*
X267004Y247169D01*
X267044Y247222D01*
X267086Y247273D01*
X267132Y247321D01*
X267180Y247367D01*
X267231Y247409D01*
X267284Y247449D01*
X267340Y247486D01*
X267397Y247520D01*
X267456Y247551D01*
X267516Y247578D01*
X267579Y247601D01*
X267642Y247622D01*
X267706Y247638D01*
X267771Y247651D01*
X267837Y247661D01*
X267904Y247666D01*
X267970Y247668D01*
X271526Y247668D01*
X272316Y250451D02*
X272316Y253612D01*
X271526Y256228D02*
X271526Y258598D01*
X271524Y258676D01*
X271518Y258753D01*
X271509Y258830D01*
X271496Y258906D01*
X271479Y258982D01*
X271458Y259057D01*
X271434Y259130D01*
X271406Y259203D01*
X271374Y259274D01*
X271339Y259343D01*
X271301Y259410D01*
X271260Y259476D01*
X271215Y259539D01*
X271167Y259600D01*
X271117Y259659D01*
X271063Y259715D01*
X271007Y259769D01*
X270948Y259819D01*
X270887Y259867D01*
X270824Y259912D01*
X270758Y259953D01*
X270691Y259991D01*
X270622Y260026D01*
X270551Y260058D01*
X270478Y260086D01*
X270405Y260110D01*
X270330Y260131D01*
X270254Y260148D01*
X270178Y260161D01*
X270101Y260170D01*
X270024Y260176D01*
X269946Y260178D01*
X269946Y260179D02*
X269155Y260179D01*
X269155Y260178D02*
X269077Y260176D01*
X269000Y260170D01*
X268923Y260161D01*
X268847Y260148D01*
X268771Y260131D01*
X268696Y260110D01*
X268623Y260086D01*
X268550Y260058D01*
X268479Y260026D01*
X268410Y259991D01*
X268343Y259953D01*
X268277Y259912D01*
X268214Y259867D01*
X268153Y259819D01*
X268094Y259769D01*
X268038Y259715D01*
X267984Y259659D01*
X267934Y259600D01*
X267886Y259539D01*
X267841Y259476D01*
X267800Y259410D01*
X267762Y259343D01*
X267727Y259274D01*
X267695Y259203D01*
X267667Y259130D01*
X267643Y259057D01*
X267622Y258982D01*
X267605Y258906D01*
X267592Y258830D01*
X267583Y258753D01*
X267577Y258676D01*
X267575Y258598D01*
X267575Y256228D01*
X264414Y256228D01*
X264414Y260179D01*
X264414Y264666D02*
X269946Y263086D01*
X269946Y267037D01*
X268365Y265852D02*
X271526Y265852D01*
X265599Y273519D02*
X265599Y274705D01*
X265600Y273519D02*
X265602Y273453D01*
X265607Y273386D01*
X265617Y273321D01*
X265630Y273255D01*
X265646Y273191D01*
X265666Y273128D01*
X265690Y273066D01*
X265717Y273005D01*
X265748Y272946D01*
X265782Y272889D01*
X265819Y272833D01*
X265859Y272780D01*
X265901Y272729D01*
X265947Y272681D01*
X265995Y272635D01*
X266046Y272593D01*
X266099Y272553D01*
X266155Y272516D01*
X266212Y272482D01*
X266271Y272451D01*
X266332Y272424D01*
X266394Y272400D01*
X266457Y272380D01*
X266521Y272364D01*
X266587Y272351D01*
X266652Y272341D01*
X266719Y272336D01*
X266785Y272334D01*
X269155Y272334D01*
X269223Y272336D01*
X269290Y272342D01*
X269357Y272351D01*
X269423Y272365D01*
X269489Y272382D01*
X269553Y272403D01*
X269616Y272427D01*
X269678Y272456D01*
X269738Y272487D01*
X269796Y272522D01*
X269852Y272560D01*
X269905Y272602D01*
X269956Y272646D01*
X270005Y272693D01*
X270051Y272743D01*
X270093Y272795D01*
X270133Y272850D01*
X270170Y272907D01*
X270203Y272966D01*
X270233Y273027D01*
X270259Y273089D01*
X270282Y273153D01*
X270301Y273218D01*
X270316Y273284D01*
X270328Y273350D01*
X270336Y273418D01*
X270340Y273485D01*
X270340Y273553D01*
X270336Y273620D01*
X270328Y273688D01*
X270316Y273754D01*
X270301Y273820D01*
X270282Y273885D01*
X270259Y273949D01*
X270233Y274011D01*
X270203Y274072D01*
X270170Y274131D01*
X270133Y274188D01*
X270093Y274243D01*
X270051Y274295D01*
X270005Y274345D01*
X269956Y274392D01*
X269905Y274436D01*
X269852Y274478D01*
X269796Y274516D01*
X269738Y274551D01*
X269678Y274582D01*
X269616Y274611D01*
X269553Y274635D01*
X269489Y274656D01*
X269423Y274673D01*
X269357Y274687D01*
X269290Y274696D01*
X269223Y274702D01*
X269155Y274704D01*
X269353Y274705D02*
X265599Y274705D01*
X269353Y274705D02*
X269415Y274707D01*
X269477Y274713D01*
X269538Y274723D01*
X269599Y274736D01*
X269658Y274753D01*
X269717Y274774D01*
X269774Y274799D01*
X269829Y274827D01*
X269882Y274859D01*
X269934Y274894D01*
X269983Y274932D01*
X270029Y274973D01*
X270073Y275017D01*
X270114Y275063D01*
X270152Y275112D01*
X270187Y275164D01*
X270219Y275217D01*
X270247Y275272D01*
X270272Y275329D01*
X270293Y275388D01*
X270310Y275447D01*
X270323Y275508D01*
X270333Y275569D01*
X270339Y275631D01*
X270341Y275693D01*
X270339Y275755D01*
X270333Y275817D01*
X270323Y275878D01*
X270310Y275939D01*
X270293Y275998D01*
X270272Y276057D01*
X270247Y276114D01*
X270219Y276169D01*
X270187Y276222D01*
X270152Y276274D01*
X270114Y276323D01*
X270073Y276369D01*
X270029Y276413D01*
X269983Y276454D01*
X269934Y276492D01*
X269882Y276527D01*
X269829Y276559D01*
X269774Y276587D01*
X269717Y276612D01*
X269658Y276633D01*
X269599Y276650D01*
X269538Y276663D01*
X269477Y276673D01*
X269415Y276679D01*
X269353Y276681D01*
X269353Y276680D02*
X266390Y276680D01*
X266278Y276678D01*
X266167Y276672D01*
X266056Y276662D01*
X265945Y276649D01*
X265835Y276631D01*
X265726Y276609D01*
X265617Y276584D01*
X265509Y276555D01*
X265403Y276522D01*
X265297Y276485D01*
X265193Y276445D01*
X265091Y276401D01*
X264990Y276353D01*
X264891Y276302D01*
X264793Y276247D01*
X264698Y276189D01*
X264605Y276128D01*
X264514Y276063D01*
X264425Y275995D01*
X264339Y275924D01*
X264256Y275851D01*
X264175Y275774D01*
X264096Y275694D01*
X264021Y275612D01*
X263949Y275527D01*
X263879Y275440D01*
X263813Y275350D01*
X263750Y275258D01*
X263690Y275163D01*
X263634Y275067D01*
X263581Y274969D01*
X263532Y274869D01*
X263486Y274767D01*
X263444Y274664D01*
X263405Y274559D01*
X263370Y274453D01*
X263339Y274346D01*
X263312Y274238D01*
X263288Y274129D01*
X263269Y274019D01*
X263253Y273909D01*
X263241Y273798D01*
X263233Y273686D01*
X263229Y273575D01*
X263229Y273463D01*
X263233Y273352D01*
X263241Y273240D01*
X263253Y273129D01*
X263269Y273019D01*
X263288Y272909D01*
X263312Y272800D01*
X263339Y272692D01*
X263370Y272585D01*
X263405Y272479D01*
X263444Y272374D01*
X263486Y272271D01*
X263532Y272169D01*
X263581Y272069D01*
X263634Y271971D01*
X263690Y271875D01*
X263750Y271780D01*
X263813Y271688D01*
X263879Y271598D01*
X263949Y271511D01*
X264021Y271426D01*
X264096Y271344D01*
X264175Y271264D01*
X264256Y271187D01*
X264339Y271114D01*
X264425Y271043D01*
X264514Y270975D01*
X264605Y270910D01*
X264698Y270849D01*
X264793Y270791D01*
X264891Y270736D01*
X264990Y270685D01*
X265091Y270637D01*
X265193Y270593D01*
X265297Y270553D01*
X265403Y270516D01*
X265509Y270483D01*
X265617Y270454D01*
X265726Y270429D01*
X265835Y270407D01*
X265945Y270389D01*
X266056Y270376D01*
X266167Y270366D01*
X266278Y270360D01*
X266390Y270358D01*
X266390Y270359D02*
X269748Y270359D01*
X269854Y270361D01*
X269960Y270367D01*
X270066Y270376D01*
X270171Y270389D01*
X270276Y270406D01*
X270380Y270427D01*
X270484Y270452D01*
X270586Y270480D01*
X270687Y270511D01*
X270788Y270547D01*
X270886Y270586D01*
X270984Y270628D01*
X271079Y270674D01*
X271174Y270723D01*
X271266Y270776D01*
X271356Y270832D01*
X271444Y270891D01*
X271530Y270953D01*
X271614Y271019D01*
X271696Y271087D01*
X271774Y271158D01*
X271851Y271232D01*
X271924Y271308D01*
X271995Y271387D01*
X272063Y271469D01*
X272128Y271553D01*
X272190Y271639D01*
X272249Y271727D01*
X272305Y271818D01*
X272357Y271910D01*
X272406Y272004D01*
X272452Y272100D01*
X272494Y272198D01*
X272533Y272297D01*
X272568Y272397D01*
X272599Y272498D01*
X272627Y272601D01*
X272652Y272704D01*
X272672Y272808D01*
X272689Y272913D01*
X272702Y273019D01*
X272711Y273124D01*
X265994Y280002D02*
X264414Y281978D01*
X271526Y281978D01*
X271526Y283953D02*
X271526Y280002D01*
X264414Y289033D02*
X264416Y289115D01*
X264422Y289197D01*
X264431Y289279D01*
X264444Y289360D01*
X264461Y289440D01*
X264482Y289520D01*
X264506Y289598D01*
X264534Y289675D01*
X264565Y289751D01*
X264600Y289826D01*
X264639Y289898D01*
X264680Y289969D01*
X264725Y290038D01*
X264773Y290104D01*
X264824Y290169D01*
X264878Y290231D01*
X264935Y290290D01*
X264994Y290347D01*
X265056Y290401D01*
X265121Y290452D01*
X265187Y290500D01*
X265256Y290545D01*
X265327Y290586D01*
X265399Y290625D01*
X265474Y290660D01*
X265550Y290691D01*
X265627Y290719D01*
X265705Y290743D01*
X265785Y290764D01*
X265865Y290781D01*
X265946Y290794D01*
X266028Y290803D01*
X266110Y290809D01*
X266192Y290811D01*
X264414Y289033D02*
X264416Y288940D01*
X264422Y288848D01*
X264431Y288756D01*
X264444Y288664D01*
X264461Y288573D01*
X264481Y288483D01*
X264505Y288393D01*
X264533Y288305D01*
X264565Y288217D01*
X264599Y288132D01*
X264638Y288047D01*
X264679Y287965D01*
X264724Y287884D01*
X264773Y287804D01*
X264824Y287727D01*
X264878Y287652D01*
X264936Y287580D01*
X264996Y287509D01*
X265060Y287442D01*
X265125Y287377D01*
X265194Y287314D01*
X265265Y287255D01*
X265338Y287198D01*
X265414Y287144D01*
X265491Y287094D01*
X265571Y287046D01*
X265653Y287002D01*
X265736Y286962D01*
X265821Y286924D01*
X265907Y286890D01*
X265994Y286860D01*
X267575Y290218D02*
X267514Y290279D01*
X267451Y290337D01*
X267385Y290392D01*
X267317Y290445D01*
X267246Y290494D01*
X267174Y290539D01*
X267099Y290582D01*
X267023Y290621D01*
X266944Y290657D01*
X266865Y290689D01*
X266784Y290717D01*
X266701Y290742D01*
X266618Y290763D01*
X266534Y290780D01*
X266449Y290794D01*
X266364Y290803D01*
X266278Y290809D01*
X266192Y290811D01*
X267575Y290219D02*
X271526Y286860D01*
X271526Y290811D01*
X267575Y293718D02*
X267575Y296089D01*
X267577Y296167D01*
X267583Y296244D01*
X267592Y296321D01*
X267605Y296397D01*
X267622Y296473D01*
X267643Y296548D01*
X267667Y296621D01*
X267695Y296694D01*
X267727Y296765D01*
X267762Y296834D01*
X267800Y296901D01*
X267841Y296967D01*
X267886Y297030D01*
X267934Y297091D01*
X267984Y297150D01*
X268038Y297206D01*
X268094Y297260D01*
X268153Y297310D01*
X268214Y297358D01*
X268277Y297403D01*
X268343Y297444D01*
X268410Y297482D01*
X268479Y297517D01*
X268550Y297549D01*
X268623Y297577D01*
X268696Y297601D01*
X268771Y297622D01*
X268847Y297639D01*
X268923Y297652D01*
X269000Y297661D01*
X269077Y297667D01*
X269155Y297669D01*
X269550Y297669D01*
X269550Y297670D02*
X269637Y297668D01*
X269725Y297662D01*
X269812Y297653D01*
X269898Y297639D01*
X269984Y297622D01*
X270068Y297601D01*
X270152Y297576D01*
X270235Y297547D01*
X270316Y297515D01*
X270396Y297480D01*
X270474Y297441D01*
X270551Y297398D01*
X270625Y297352D01*
X270697Y297303D01*
X270767Y297251D01*
X270835Y297195D01*
X270900Y297137D01*
X270963Y297076D01*
X271022Y297012D01*
X271079Y296945D01*
X271133Y296877D01*
X271184Y296805D01*
X271231Y296732D01*
X271276Y296657D01*
X271317Y296579D01*
X271354Y296500D01*
X271388Y296420D01*
X271418Y296338D01*
X271445Y296255D01*
X271468Y296170D01*
X271487Y296085D01*
X271502Y295999D01*
X271514Y295912D01*
X271522Y295825D01*
X271526Y295738D01*
X271526Y295650D01*
X271522Y295563D01*
X271514Y295476D01*
X271502Y295389D01*
X271487Y295303D01*
X271468Y295218D01*
X271445Y295133D01*
X271418Y295050D01*
X271388Y294968D01*
X271354Y294888D01*
X271317Y294809D01*
X271276Y294731D01*
X271231Y294656D01*
X271184Y294583D01*
X271133Y294511D01*
X271079Y294443D01*
X271022Y294376D01*
X270963Y294312D01*
X270900Y294251D01*
X270835Y294193D01*
X270767Y294137D01*
X270697Y294085D01*
X270625Y294036D01*
X270551Y293990D01*
X270474Y293947D01*
X270396Y293908D01*
X270316Y293873D01*
X270235Y293841D01*
X270152Y293812D01*
X270068Y293787D01*
X269984Y293766D01*
X269898Y293749D01*
X269812Y293735D01*
X269725Y293726D01*
X269637Y293720D01*
X269550Y293718D01*
X267575Y293718D01*
X267465Y293720D01*
X267355Y293726D01*
X267245Y293735D01*
X267135Y293749D01*
X267026Y293766D01*
X266918Y293787D01*
X266810Y293812D01*
X266704Y293840D01*
X266598Y293873D01*
X266494Y293909D01*
X266391Y293948D01*
X266289Y293991D01*
X266189Y294038D01*
X266091Y294088D01*
X265995Y294141D01*
X265900Y294198D01*
X265807Y294258D01*
X265717Y294322D01*
X265629Y294388D01*
X265543Y294458D01*
X265460Y294530D01*
X265379Y294605D01*
X265301Y294683D01*
X265226Y294764D01*
X265154Y294847D01*
X265084Y294933D01*
X265018Y295021D01*
X264954Y295111D01*
X264894Y295204D01*
X264838Y295298D01*
X264784Y295395D01*
X264734Y295493D01*
X264687Y295593D01*
X264644Y295695D01*
X264605Y295798D01*
X264569Y295902D01*
X264536Y296008D01*
X264508Y296114D01*
X264483Y296222D01*
X264462Y296330D01*
X264445Y296439D01*
X264431Y296549D01*
X264422Y296658D01*
X264416Y296769D01*
X264414Y296879D01*
X271131Y300297D02*
X271526Y300297D01*
X271131Y300297D02*
X271131Y300692D01*
X271526Y300692D01*
X271526Y300297D01*
X271526Y304450D02*
X271526Y306030D01*
X271526Y304450D02*
X271524Y304384D01*
X271519Y304317D01*
X271509Y304252D01*
X271496Y304186D01*
X271480Y304122D01*
X271460Y304059D01*
X271436Y303997D01*
X271409Y303936D01*
X271378Y303877D01*
X271344Y303820D01*
X271307Y303764D01*
X271267Y303711D01*
X271225Y303660D01*
X271179Y303612D01*
X271131Y303566D01*
X271080Y303524D01*
X271027Y303484D01*
X270971Y303447D01*
X270914Y303413D01*
X270855Y303382D01*
X270794Y303355D01*
X270732Y303331D01*
X270669Y303311D01*
X270605Y303295D01*
X270539Y303282D01*
X270474Y303272D01*
X270407Y303267D01*
X270341Y303265D01*
X270341Y303264D02*
X267970Y303264D01*
X267970Y303265D02*
X267904Y303267D01*
X267837Y303272D01*
X267772Y303282D01*
X267706Y303295D01*
X267642Y303311D01*
X267579Y303331D01*
X267517Y303355D01*
X267456Y303382D01*
X267397Y303413D01*
X267340Y303447D01*
X267284Y303484D01*
X267231Y303524D01*
X267180Y303566D01*
X267132Y303612D01*
X267086Y303660D01*
X267044Y303711D01*
X267004Y303764D01*
X266967Y303820D01*
X266933Y303877D01*
X266902Y303936D01*
X266875Y303997D01*
X266851Y304059D01*
X266831Y304122D01*
X266815Y304186D01*
X266802Y304252D01*
X266792Y304317D01*
X266787Y304384D01*
X266785Y304450D01*
X266785Y306030D01*
X268365Y308515D02*
X269946Y308515D01*
X268365Y308515D02*
X268286Y308517D01*
X268208Y308523D01*
X268130Y308533D01*
X268052Y308546D01*
X267975Y308564D01*
X267899Y308585D01*
X267825Y308610D01*
X267751Y308639D01*
X267679Y308671D01*
X267609Y308707D01*
X267541Y308747D01*
X267475Y308790D01*
X267411Y308836D01*
X267349Y308885D01*
X267290Y308937D01*
X267234Y308992D01*
X267180Y309050D01*
X267130Y309110D01*
X267082Y309173D01*
X267038Y309238D01*
X266997Y309305D01*
X266959Y309374D01*
X266925Y309445D01*
X266894Y309518D01*
X266867Y309592D01*
X266844Y309667D01*
X266825Y309743D01*
X266809Y309821D01*
X266797Y309899D01*
X266789Y309977D01*
X266785Y310056D01*
X266785Y310134D01*
X266789Y310213D01*
X266797Y310291D01*
X266809Y310369D01*
X266825Y310447D01*
X266844Y310523D01*
X266867Y310598D01*
X266894Y310672D01*
X266925Y310745D01*
X266959Y310816D01*
X266997Y310885D01*
X267038Y310952D01*
X267082Y311017D01*
X267130Y311080D01*
X267180Y311140D01*
X267234Y311198D01*
X267290Y311253D01*
X267349Y311305D01*
X267411Y311354D01*
X267475Y311400D01*
X267541Y311443D01*
X267609Y311483D01*
X267679Y311519D01*
X267751Y311551D01*
X267825Y311580D01*
X267899Y311605D01*
X267975Y311626D01*
X268052Y311644D01*
X268130Y311657D01*
X268208Y311667D01*
X268286Y311673D01*
X268365Y311675D01*
X268365Y311676D02*
X269946Y311676D01*
X269946Y311675D02*
X270025Y311673D01*
X270103Y311667D01*
X270181Y311657D01*
X270259Y311644D01*
X270336Y311626D01*
X270412Y311605D01*
X270486Y311580D01*
X270560Y311551D01*
X270632Y311519D01*
X270702Y311483D01*
X270770Y311443D01*
X270836Y311400D01*
X270900Y311354D01*
X270962Y311305D01*
X271021Y311253D01*
X271077Y311198D01*
X271131Y311140D01*
X271181Y311080D01*
X271229Y311017D01*
X271273Y310952D01*
X271314Y310885D01*
X271352Y310816D01*
X271386Y310745D01*
X271417Y310672D01*
X271444Y310598D01*
X271467Y310523D01*
X271486Y310447D01*
X271502Y310369D01*
X271514Y310291D01*
X271522Y310213D01*
X271526Y310134D01*
X271526Y310056D01*
X271522Y309977D01*
X271514Y309899D01*
X271502Y309821D01*
X271486Y309743D01*
X271467Y309667D01*
X271444Y309592D01*
X271417Y309518D01*
X271386Y309445D01*
X271352Y309374D01*
X271314Y309305D01*
X271273Y309238D01*
X271229Y309173D01*
X271181Y309110D01*
X271131Y309050D01*
X271077Y308992D01*
X271021Y308937D01*
X270962Y308885D01*
X270900Y308836D01*
X270836Y308790D01*
X270770Y308747D01*
X270702Y308707D01*
X270632Y308671D01*
X270560Y308639D01*
X270486Y308610D01*
X270412Y308585D01*
X270336Y308564D01*
X270259Y308546D01*
X270181Y308533D01*
X270103Y308523D01*
X270025Y308517D01*
X269946Y308515D01*
X271526Y314811D02*
X266785Y314811D01*
X266785Y318367D01*
X266787Y318433D01*
X266792Y318500D01*
X266802Y318565D01*
X266815Y318631D01*
X266831Y318695D01*
X266851Y318758D01*
X266875Y318820D01*
X266902Y318881D01*
X266933Y318940D01*
X266967Y318997D01*
X267004Y319053D01*
X267044Y319106D01*
X267086Y319157D01*
X267132Y319205D01*
X267180Y319251D01*
X267231Y319293D01*
X267284Y319333D01*
X267340Y319370D01*
X267397Y319404D01*
X267456Y319435D01*
X267517Y319462D01*
X267579Y319486D01*
X267642Y319506D01*
X267706Y319522D01*
X267772Y319535D01*
X267837Y319545D01*
X267904Y319550D01*
X267970Y319552D01*
X271526Y319552D01*
X271526Y317182D02*
X266785Y317182D01*
X276352Y209945D02*
X276270Y209943D01*
X276188Y209937D01*
X276106Y209928D01*
X276025Y209915D01*
X275945Y209898D01*
X275865Y209877D01*
X275787Y209853D01*
X275710Y209825D01*
X275634Y209794D01*
X275559Y209759D01*
X275487Y209720D01*
X275416Y209679D01*
X275347Y209634D01*
X275281Y209586D01*
X275216Y209535D01*
X275154Y209481D01*
X275095Y209424D01*
X275038Y209365D01*
X274984Y209303D01*
X274933Y209238D01*
X274885Y209172D01*
X274840Y209103D01*
X274799Y209032D01*
X274760Y208960D01*
X274725Y208885D01*
X274694Y208809D01*
X274666Y208732D01*
X274642Y208654D01*
X274621Y208574D01*
X274604Y208494D01*
X274591Y208413D01*
X274582Y208331D01*
X274576Y208249D01*
X274574Y208167D01*
X274576Y208074D01*
X274582Y207982D01*
X274591Y207890D01*
X274604Y207798D01*
X274621Y207707D01*
X274641Y207617D01*
X274665Y207527D01*
X274693Y207439D01*
X274725Y207351D01*
X274759Y207266D01*
X274798Y207181D01*
X274839Y207099D01*
X274884Y207018D01*
X274933Y206938D01*
X274984Y206861D01*
X275038Y206786D01*
X275096Y206714D01*
X275156Y206643D01*
X275220Y206576D01*
X275285Y206511D01*
X275354Y206448D01*
X275425Y206389D01*
X275498Y206332D01*
X275574Y206278D01*
X275651Y206228D01*
X275731Y206180D01*
X275813Y206136D01*
X275896Y206096D01*
X275981Y206058D01*
X276067Y206024D01*
X276154Y205994D01*
X277735Y209352D02*
X277674Y209413D01*
X277611Y209471D01*
X277545Y209526D01*
X277477Y209579D01*
X277406Y209628D01*
X277334Y209673D01*
X277259Y209716D01*
X277183Y209755D01*
X277104Y209791D01*
X277025Y209823D01*
X276944Y209851D01*
X276861Y209876D01*
X276778Y209897D01*
X276694Y209914D01*
X276609Y209928D01*
X276524Y209937D01*
X276438Y209943D01*
X276352Y209945D01*
X277735Y209352D02*
X281686Y205994D01*
X281686Y209945D01*
X278130Y212852D02*
X277982Y212854D01*
X277835Y212859D01*
X277687Y212869D01*
X277540Y212882D01*
X277393Y212898D01*
X277247Y212919D01*
X277102Y212943D01*
X276956Y212971D01*
X276812Y213002D01*
X276669Y213037D01*
X276526Y213076D01*
X276385Y213118D01*
X276244Y213164D01*
X276105Y213213D01*
X275967Y213266D01*
X275830Y213322D01*
X275695Y213382D01*
X275562Y213445D01*
X275491Y213471D01*
X275422Y213501D01*
X275354Y213535D01*
X275288Y213572D01*
X275224Y213612D01*
X275162Y213656D01*
X275103Y213702D01*
X275046Y213752D01*
X274992Y213805D01*
X274940Y213860D01*
X274892Y213918D01*
X274846Y213978D01*
X274804Y214041D01*
X274765Y214106D01*
X274729Y214172D01*
X274697Y214241D01*
X274669Y214310D01*
X274644Y214382D01*
X274623Y214454D01*
X274605Y214528D01*
X274592Y214602D01*
X274582Y214677D01*
X274576Y214752D01*
X274574Y214828D01*
X274576Y214904D01*
X274582Y214979D01*
X274592Y215054D01*
X274605Y215128D01*
X274623Y215202D01*
X274644Y215274D01*
X274669Y215346D01*
X274697Y215415D01*
X274729Y215484D01*
X274765Y215550D01*
X274804Y215615D01*
X274846Y215678D01*
X274892Y215738D01*
X274940Y215796D01*
X274992Y215851D01*
X275046Y215904D01*
X275103Y215954D01*
X275162Y216000D01*
X275224Y216044D01*
X275288Y216084D01*
X275354Y216121D01*
X275422Y216155D01*
X275491Y216185D01*
X275562Y216211D01*
X275562Y216210D02*
X275695Y216273D01*
X275830Y216333D01*
X275967Y216389D01*
X276105Y216442D01*
X276244Y216491D01*
X276385Y216537D01*
X276526Y216579D01*
X276669Y216618D01*
X276812Y216653D01*
X276956Y216684D01*
X277102Y216712D01*
X277247Y216736D01*
X277393Y216757D01*
X277540Y216773D01*
X277687Y216786D01*
X277835Y216796D01*
X277982Y216801D01*
X278130Y216803D01*
X278130Y212852D02*
X278278Y212854D01*
X278425Y212859D01*
X278573Y212869D01*
X278720Y212882D01*
X278867Y212898D01*
X279013Y212919D01*
X279158Y212943D01*
X279304Y212971D01*
X279448Y213002D01*
X279591Y213037D01*
X279734Y213076D01*
X279875Y213118D01*
X280016Y213164D01*
X280155Y213213D01*
X280293Y213266D01*
X280430Y213322D01*
X280565Y213382D01*
X280698Y213445D01*
X280769Y213471D01*
X280838Y213501D01*
X280906Y213535D01*
X280972Y213572D01*
X281036Y213612D01*
X281098Y213656D01*
X281157Y213702D01*
X281214Y213752D01*
X281268Y213805D01*
X281320Y213860D01*
X281368Y213918D01*
X281414Y213978D01*
X281456Y214041D01*
X281495Y214106D01*
X281531Y214172D01*
X281563Y214241D01*
X281591Y214311D01*
X281616Y214382D01*
X281637Y214454D01*
X281655Y214528D01*
X281668Y214602D01*
X281678Y214677D01*
X281684Y214752D01*
X281686Y214828D01*
X280698Y216210D02*
X280565Y216273D01*
X280430Y216333D01*
X280293Y216389D01*
X280155Y216442D01*
X280016Y216491D01*
X279875Y216537D01*
X279734Y216579D01*
X279591Y216618D01*
X279448Y216653D01*
X279304Y216684D01*
X279158Y216712D01*
X279013Y216736D01*
X278867Y216757D01*
X278720Y216773D01*
X278573Y216786D01*
X278425Y216796D01*
X278278Y216801D01*
X278130Y216803D01*
X280698Y216211D02*
X280769Y216185D01*
X280838Y216155D01*
X280906Y216121D01*
X280972Y216084D01*
X281036Y216044D01*
X281098Y216000D01*
X281157Y215954D01*
X281214Y215904D01*
X281268Y215851D01*
X281320Y215796D01*
X281368Y215738D01*
X281414Y215678D01*
X281456Y215615D01*
X281495Y215550D01*
X281531Y215484D01*
X281563Y215415D01*
X281591Y215345D01*
X281616Y215274D01*
X281637Y215202D01*
X281655Y215128D01*
X281668Y215054D01*
X281678Y214979D01*
X281684Y214904D01*
X281686Y214828D01*
X280106Y213247D02*
X276154Y216408D01*
X274574Y221883D02*
X274576Y221965D01*
X274582Y222047D01*
X274591Y222129D01*
X274604Y222210D01*
X274621Y222290D01*
X274642Y222370D01*
X274666Y222448D01*
X274694Y222525D01*
X274725Y222601D01*
X274760Y222676D01*
X274799Y222748D01*
X274840Y222819D01*
X274885Y222888D01*
X274933Y222954D01*
X274984Y223019D01*
X275038Y223081D01*
X275095Y223140D01*
X275154Y223197D01*
X275216Y223251D01*
X275281Y223302D01*
X275347Y223350D01*
X275416Y223395D01*
X275487Y223436D01*
X275559Y223475D01*
X275634Y223510D01*
X275710Y223541D01*
X275787Y223569D01*
X275865Y223593D01*
X275945Y223614D01*
X276025Y223631D01*
X276106Y223644D01*
X276188Y223653D01*
X276270Y223659D01*
X276352Y223661D01*
X274574Y221883D02*
X274576Y221790D01*
X274582Y221698D01*
X274591Y221606D01*
X274604Y221514D01*
X274621Y221423D01*
X274641Y221333D01*
X274665Y221243D01*
X274693Y221155D01*
X274725Y221067D01*
X274759Y220982D01*
X274798Y220897D01*
X274839Y220815D01*
X274884Y220734D01*
X274933Y220654D01*
X274984Y220577D01*
X275038Y220502D01*
X275096Y220430D01*
X275156Y220359D01*
X275220Y220292D01*
X275285Y220227D01*
X275354Y220164D01*
X275425Y220105D01*
X275498Y220048D01*
X275574Y219994D01*
X275651Y219944D01*
X275731Y219896D01*
X275813Y219852D01*
X275896Y219812D01*
X275981Y219774D01*
X276067Y219740D01*
X276154Y219710D01*
X277735Y223068D02*
X277674Y223129D01*
X277611Y223187D01*
X277545Y223242D01*
X277477Y223295D01*
X277406Y223344D01*
X277334Y223389D01*
X277259Y223432D01*
X277183Y223471D01*
X277104Y223507D01*
X277025Y223539D01*
X276944Y223567D01*
X276861Y223592D01*
X276778Y223613D01*
X276694Y223630D01*
X276609Y223644D01*
X276524Y223653D01*
X276438Y223659D01*
X276352Y223661D01*
X277735Y223068D02*
X281686Y219710D01*
X281686Y223661D01*
X276154Y226568D02*
X274574Y228543D01*
X281686Y228543D01*
X281686Y226568D02*
X281686Y230519D01*
X281686Y233146D02*
X281291Y233146D01*
X281291Y233542D01*
X281686Y233542D01*
X281686Y233146D01*
X278130Y236169D02*
X277982Y236171D01*
X277835Y236176D01*
X277687Y236186D01*
X277540Y236199D01*
X277393Y236215D01*
X277247Y236236D01*
X277102Y236260D01*
X276956Y236288D01*
X276812Y236319D01*
X276669Y236354D01*
X276526Y236393D01*
X276385Y236435D01*
X276244Y236481D01*
X276105Y236530D01*
X275967Y236583D01*
X275830Y236639D01*
X275695Y236699D01*
X275562Y236762D01*
X275491Y236788D01*
X275422Y236818D01*
X275354Y236852D01*
X275288Y236889D01*
X275224Y236929D01*
X275162Y236973D01*
X275103Y237019D01*
X275046Y237069D01*
X274992Y237122D01*
X274940Y237177D01*
X274892Y237235D01*
X274846Y237295D01*
X274804Y237358D01*
X274765Y237423D01*
X274729Y237489D01*
X274697Y237558D01*
X274669Y237627D01*
X274644Y237699D01*
X274623Y237771D01*
X274605Y237845D01*
X274592Y237919D01*
X274582Y237994D01*
X274576Y238069D01*
X274574Y238145D01*
X274576Y238221D01*
X274582Y238296D01*
X274592Y238371D01*
X274605Y238445D01*
X274623Y238519D01*
X274644Y238591D01*
X274669Y238663D01*
X274697Y238732D01*
X274729Y238801D01*
X274765Y238867D01*
X274804Y238932D01*
X274846Y238995D01*
X274892Y239055D01*
X274940Y239113D01*
X274992Y239168D01*
X275046Y239221D01*
X275103Y239271D01*
X275162Y239317D01*
X275224Y239361D01*
X275288Y239401D01*
X275354Y239438D01*
X275422Y239472D01*
X275491Y239502D01*
X275562Y239528D01*
X275562Y239527D02*
X275695Y239590D01*
X275830Y239650D01*
X275967Y239706D01*
X276105Y239759D01*
X276244Y239808D01*
X276385Y239854D01*
X276526Y239896D01*
X276669Y239935D01*
X276812Y239970D01*
X276956Y240001D01*
X277102Y240029D01*
X277247Y240053D01*
X277393Y240074D01*
X277540Y240090D01*
X277687Y240103D01*
X277835Y240113D01*
X277982Y240118D01*
X278130Y240120D01*
X278130Y236169D02*
X278278Y236171D01*
X278425Y236176D01*
X278573Y236186D01*
X278720Y236199D01*
X278867Y236215D01*
X279013Y236236D01*
X279158Y236260D01*
X279304Y236288D01*
X279448Y236319D01*
X279591Y236354D01*
X279734Y236393D01*
X279875Y236435D01*
X280016Y236481D01*
X280155Y236530D01*
X280293Y236583D01*
X280430Y236639D01*
X280565Y236699D01*
X280698Y236762D01*
X280769Y236788D01*
X280838Y236818D01*
X280906Y236852D01*
X280972Y236889D01*
X281036Y236929D01*
X281098Y236973D01*
X281157Y237019D01*
X281214Y237069D01*
X281268Y237122D01*
X281320Y237177D01*
X281368Y237235D01*
X281414Y237295D01*
X281456Y237358D01*
X281495Y237423D01*
X281531Y237489D01*
X281563Y237558D01*
X281591Y237628D01*
X281616Y237699D01*
X281637Y237771D01*
X281655Y237845D01*
X281668Y237919D01*
X281678Y237994D01*
X281684Y238069D01*
X281686Y238145D01*
X280698Y239527D02*
X280565Y239590D01*
X280430Y239650D01*
X280293Y239706D01*
X280155Y239759D01*
X280016Y239808D01*
X279875Y239854D01*
X279734Y239896D01*
X279591Y239935D01*
X279448Y239970D01*
X279304Y240001D01*
X279158Y240029D01*
X279013Y240053D01*
X278867Y240074D01*
X278720Y240090D01*
X278573Y240103D01*
X278425Y240113D01*
X278278Y240118D01*
X278130Y240120D01*
X280698Y239528D02*
X280769Y239502D01*
X280838Y239472D01*
X280906Y239438D01*
X280972Y239401D01*
X281036Y239361D01*
X281098Y239317D01*
X281157Y239271D01*
X281214Y239221D01*
X281268Y239168D01*
X281320Y239113D01*
X281368Y239055D01*
X281414Y238995D01*
X281456Y238932D01*
X281495Y238867D01*
X281531Y238801D01*
X281563Y238732D01*
X281591Y238662D01*
X281616Y238591D01*
X281637Y238519D01*
X281655Y238445D01*
X281668Y238371D01*
X281678Y238296D01*
X281684Y238221D01*
X281686Y238145D01*
X280106Y236564D02*
X276154Y239725D01*
X274574Y244607D02*
X280106Y243027D01*
X280106Y246978D01*
X278525Y245793D02*
X281686Y245793D01*
X281686Y249606D02*
X281291Y249606D01*
X281291Y250001D01*
X281686Y250001D01*
X281686Y249606D01*
X278130Y252628D02*
X277982Y252630D01*
X277835Y252635D01*
X277687Y252645D01*
X277540Y252658D01*
X277393Y252674D01*
X277247Y252695D01*
X277102Y252719D01*
X276956Y252747D01*
X276812Y252778D01*
X276669Y252813D01*
X276526Y252852D01*
X276385Y252894D01*
X276244Y252940D01*
X276105Y252989D01*
X275967Y253042D01*
X275830Y253098D01*
X275695Y253158D01*
X275562Y253221D01*
X275491Y253247D01*
X275422Y253277D01*
X275354Y253311D01*
X275288Y253348D01*
X275224Y253388D01*
X275162Y253432D01*
X275103Y253478D01*
X275046Y253528D01*
X274992Y253581D01*
X274940Y253636D01*
X274892Y253694D01*
X274846Y253754D01*
X274804Y253817D01*
X274765Y253882D01*
X274729Y253948D01*
X274697Y254017D01*
X274669Y254086D01*
X274644Y254158D01*
X274623Y254230D01*
X274605Y254304D01*
X274592Y254378D01*
X274582Y254453D01*
X274576Y254528D01*
X274574Y254604D01*
X274576Y254680D01*
X274582Y254755D01*
X274592Y254830D01*
X274605Y254904D01*
X274623Y254978D01*
X274644Y255050D01*
X274669Y255122D01*
X274697Y255191D01*
X274729Y255260D01*
X274765Y255326D01*
X274804Y255391D01*
X274846Y255454D01*
X274892Y255514D01*
X274940Y255572D01*
X274992Y255627D01*
X275046Y255680D01*
X275103Y255730D01*
X275162Y255776D01*
X275224Y255820D01*
X275288Y255860D01*
X275354Y255897D01*
X275422Y255931D01*
X275491Y255961D01*
X275562Y255987D01*
X275562Y255986D02*
X275695Y256049D01*
X275830Y256109D01*
X275967Y256165D01*
X276105Y256218D01*
X276244Y256267D01*
X276385Y256313D01*
X276526Y256355D01*
X276669Y256394D01*
X276812Y256429D01*
X276956Y256460D01*
X277102Y256488D01*
X277247Y256512D01*
X277393Y256533D01*
X277540Y256549D01*
X277687Y256562D01*
X277835Y256572D01*
X277982Y256577D01*
X278130Y256579D01*
X278130Y252628D02*
X278278Y252630D01*
X278425Y252635D01*
X278573Y252645D01*
X278720Y252658D01*
X278867Y252674D01*
X279013Y252695D01*
X279158Y252719D01*
X279304Y252747D01*
X279448Y252778D01*
X279591Y252813D01*
X279734Y252852D01*
X279875Y252894D01*
X280016Y252940D01*
X280155Y252989D01*
X280293Y253042D01*
X280430Y253098D01*
X280565Y253158D01*
X280698Y253221D01*
X280769Y253247D01*
X280838Y253277D01*
X280906Y253311D01*
X280972Y253348D01*
X281036Y253388D01*
X281098Y253432D01*
X281157Y253478D01*
X281214Y253528D01*
X281268Y253581D01*
X281320Y253636D01*
X281368Y253694D01*
X281414Y253754D01*
X281456Y253817D01*
X281495Y253882D01*
X281531Y253948D01*
X281563Y254017D01*
X281591Y254087D01*
X281616Y254158D01*
X281637Y254230D01*
X281655Y254304D01*
X281668Y254378D01*
X281678Y254453D01*
X281684Y254528D01*
X281686Y254604D01*
X280698Y255986D02*
X280565Y256049D01*
X280430Y256109D01*
X280293Y256165D01*
X280155Y256218D01*
X280016Y256267D01*
X279875Y256313D01*
X279734Y256355D01*
X279591Y256394D01*
X279448Y256429D01*
X279304Y256460D01*
X279158Y256488D01*
X279013Y256512D01*
X278867Y256533D01*
X278720Y256549D01*
X278573Y256562D01*
X278425Y256572D01*
X278278Y256577D01*
X278130Y256579D01*
X280698Y255987D02*
X280769Y255961D01*
X280838Y255931D01*
X280906Y255897D01*
X280972Y255860D01*
X281036Y255820D01*
X281098Y255776D01*
X281157Y255730D01*
X281214Y255680D01*
X281268Y255627D01*
X281320Y255572D01*
X281368Y255514D01*
X281414Y255454D01*
X281456Y255391D01*
X281495Y255326D01*
X281531Y255260D01*
X281563Y255191D01*
X281591Y255121D01*
X281616Y255050D01*
X281637Y254978D01*
X281655Y254904D01*
X281668Y254830D01*
X281678Y254755D01*
X281684Y254680D01*
X281686Y254604D01*
X280106Y253023D02*
X276154Y256184D01*
X279710Y259486D02*
X279623Y259488D01*
X279535Y259494D01*
X279448Y259503D01*
X279362Y259517D01*
X279276Y259534D01*
X279192Y259555D01*
X279108Y259580D01*
X279025Y259609D01*
X278944Y259641D01*
X278864Y259676D01*
X278786Y259715D01*
X278709Y259758D01*
X278635Y259804D01*
X278563Y259853D01*
X278493Y259905D01*
X278425Y259961D01*
X278360Y260019D01*
X278297Y260080D01*
X278238Y260144D01*
X278181Y260211D01*
X278127Y260279D01*
X278076Y260351D01*
X278029Y260424D01*
X277984Y260499D01*
X277943Y260577D01*
X277906Y260656D01*
X277872Y260736D01*
X277842Y260818D01*
X277815Y260901D01*
X277792Y260986D01*
X277773Y261071D01*
X277758Y261157D01*
X277746Y261244D01*
X277738Y261331D01*
X277734Y261418D01*
X277734Y261506D01*
X277738Y261593D01*
X277746Y261680D01*
X277758Y261767D01*
X277773Y261853D01*
X277792Y261938D01*
X277815Y262023D01*
X277842Y262106D01*
X277872Y262188D01*
X277906Y262268D01*
X277943Y262347D01*
X277984Y262425D01*
X278029Y262500D01*
X278076Y262573D01*
X278127Y262645D01*
X278181Y262713D01*
X278238Y262780D01*
X278297Y262844D01*
X278360Y262905D01*
X278425Y262963D01*
X278493Y263019D01*
X278563Y263071D01*
X278635Y263120D01*
X278709Y263166D01*
X278786Y263209D01*
X278864Y263248D01*
X278944Y263283D01*
X279025Y263315D01*
X279108Y263344D01*
X279192Y263369D01*
X279276Y263390D01*
X279362Y263407D01*
X279448Y263421D01*
X279535Y263430D01*
X279623Y263436D01*
X279710Y263438D01*
X279797Y263436D01*
X279885Y263430D01*
X279972Y263421D01*
X280058Y263407D01*
X280144Y263390D01*
X280228Y263369D01*
X280312Y263344D01*
X280395Y263315D01*
X280476Y263283D01*
X280556Y263248D01*
X280634Y263209D01*
X280711Y263166D01*
X280785Y263120D01*
X280857Y263071D01*
X280927Y263019D01*
X280995Y262963D01*
X281060Y262905D01*
X281123Y262844D01*
X281182Y262780D01*
X281239Y262713D01*
X281293Y262645D01*
X281344Y262573D01*
X281391Y262500D01*
X281436Y262425D01*
X281477Y262347D01*
X281514Y262268D01*
X281548Y262188D01*
X281578Y262106D01*
X281605Y262023D01*
X281628Y261938D01*
X281647Y261853D01*
X281662Y261767D01*
X281674Y261680D01*
X281682Y261593D01*
X281686Y261506D01*
X281686Y261418D01*
X281682Y261331D01*
X281674Y261244D01*
X281662Y261157D01*
X281647Y261071D01*
X281628Y260986D01*
X281605Y260901D01*
X281578Y260818D01*
X281548Y260736D01*
X281514Y260656D01*
X281477Y260577D01*
X281436Y260499D01*
X281391Y260424D01*
X281344Y260351D01*
X281293Y260279D01*
X281239Y260211D01*
X281182Y260144D01*
X281123Y260080D01*
X281060Y260019D01*
X280995Y259961D01*
X280927Y259905D01*
X280857Y259853D01*
X280785Y259804D01*
X280711Y259758D01*
X280634Y259715D01*
X280556Y259676D01*
X280476Y259641D01*
X280395Y259609D01*
X280312Y259580D01*
X280228Y259555D01*
X280144Y259534D01*
X280058Y259517D01*
X279972Y259503D01*
X279885Y259494D01*
X279797Y259488D01*
X279710Y259486D01*
X276154Y259882D02*
X276075Y259884D01*
X275997Y259890D01*
X275919Y259900D01*
X275841Y259913D01*
X275764Y259931D01*
X275688Y259952D01*
X275614Y259977D01*
X275540Y260006D01*
X275468Y260038D01*
X275398Y260074D01*
X275330Y260114D01*
X275264Y260157D01*
X275200Y260203D01*
X275138Y260252D01*
X275079Y260304D01*
X275023Y260359D01*
X274969Y260417D01*
X274919Y260477D01*
X274871Y260540D01*
X274827Y260605D01*
X274786Y260672D01*
X274748Y260741D01*
X274714Y260812D01*
X274683Y260885D01*
X274656Y260959D01*
X274633Y261034D01*
X274614Y261110D01*
X274598Y261188D01*
X274586Y261266D01*
X274578Y261344D01*
X274574Y261423D01*
X274574Y261501D01*
X274578Y261580D01*
X274586Y261658D01*
X274598Y261736D01*
X274614Y261814D01*
X274633Y261890D01*
X274656Y261965D01*
X274683Y262039D01*
X274714Y262112D01*
X274748Y262183D01*
X274786Y262252D01*
X274827Y262319D01*
X274871Y262384D01*
X274919Y262447D01*
X274969Y262507D01*
X275023Y262565D01*
X275079Y262620D01*
X275138Y262672D01*
X275200Y262721D01*
X275264Y262767D01*
X275330Y262810D01*
X275398Y262850D01*
X275468Y262886D01*
X275540Y262918D01*
X275614Y262947D01*
X275688Y262972D01*
X275764Y262993D01*
X275841Y263011D01*
X275919Y263024D01*
X275997Y263034D01*
X276075Y263040D01*
X276154Y263042D01*
X276233Y263040D01*
X276311Y263034D01*
X276389Y263024D01*
X276467Y263011D01*
X276544Y262993D01*
X276620Y262972D01*
X276694Y262947D01*
X276768Y262918D01*
X276840Y262886D01*
X276910Y262850D01*
X276978Y262810D01*
X277044Y262767D01*
X277108Y262721D01*
X277170Y262672D01*
X277229Y262620D01*
X277285Y262565D01*
X277339Y262507D01*
X277389Y262447D01*
X277437Y262384D01*
X277481Y262319D01*
X277522Y262252D01*
X277560Y262183D01*
X277594Y262112D01*
X277625Y262039D01*
X277652Y261965D01*
X277675Y261890D01*
X277694Y261814D01*
X277710Y261736D01*
X277722Y261658D01*
X277730Y261580D01*
X277734Y261501D01*
X277734Y261423D01*
X277730Y261344D01*
X277722Y261266D01*
X277710Y261188D01*
X277694Y261110D01*
X277675Y261034D01*
X277652Y260959D01*
X277625Y260885D01*
X277594Y260812D01*
X277560Y260741D01*
X277522Y260672D01*
X277481Y260605D01*
X277437Y260540D01*
X277389Y260477D01*
X277339Y260417D01*
X277285Y260359D01*
X277229Y260304D01*
X277170Y260252D01*
X277108Y260203D01*
X277044Y260157D01*
X276978Y260114D01*
X276910Y260074D01*
X276840Y260038D01*
X276768Y260006D01*
X276694Y259977D01*
X276620Y259952D01*
X276544Y259931D01*
X276467Y259913D01*
X276389Y259900D01*
X276311Y259890D01*
X276233Y259884D01*
X276154Y259882D01*
X229746Y42979D02*
X224158Y42979D01*
X224158Y44532D01*
X224160Y44609D01*
X224166Y44687D01*
X224175Y44763D01*
X224189Y44840D01*
X224206Y44915D01*
X224227Y44989D01*
X224252Y45063D01*
X224280Y45135D01*
X224312Y45205D01*
X224347Y45274D01*
X224386Y45341D01*
X224428Y45406D01*
X224473Y45469D01*
X224521Y45530D01*
X224572Y45588D01*
X224626Y45643D01*
X224683Y45696D01*
X224742Y45745D01*
X224804Y45792D01*
X224868Y45836D01*
X224934Y45876D01*
X225002Y45913D01*
X225072Y45947D01*
X225143Y45977D01*
X225216Y46003D01*
X225290Y46026D01*
X225365Y46045D01*
X225440Y46060D01*
X225517Y46072D01*
X225594Y46080D01*
X225671Y46084D01*
X225749Y46084D01*
X225826Y46080D01*
X225903Y46072D01*
X225980Y46060D01*
X226055Y46045D01*
X226130Y46026D01*
X226204Y46003D01*
X226277Y45977D01*
X226348Y45947D01*
X226418Y45913D01*
X226486Y45876D01*
X226552Y45836D01*
X226616Y45792D01*
X226678Y45745D01*
X226737Y45696D01*
X226794Y45643D01*
X226848Y45588D01*
X226899Y45530D01*
X226947Y45469D01*
X226992Y45406D01*
X227034Y45341D01*
X227073Y45274D01*
X227108Y45205D01*
X227140Y45135D01*
X227168Y45063D01*
X227193Y44989D01*
X227214Y44915D01*
X227231Y44840D01*
X227245Y44763D01*
X227254Y44687D01*
X227260Y44609D01*
X227262Y44532D01*
X227262Y42979D01*
X227262Y44842D02*
X229746Y46084D01*
X225400Y48430D02*
X224158Y49982D01*
X229746Y49982D01*
X229746Y48430D02*
X229746Y51534D01*
X226952Y53916D02*
X226821Y53918D01*
X226691Y53923D01*
X226561Y53933D01*
X226431Y53946D01*
X226301Y53962D01*
X226172Y53982D01*
X226044Y54006D01*
X225917Y54034D01*
X225790Y54065D01*
X225664Y54100D01*
X225539Y54138D01*
X225415Y54180D01*
X225293Y54225D01*
X225172Y54274D01*
X225052Y54326D01*
X224934Y54382D01*
X224934Y54381D02*
X224874Y54404D01*
X224814Y54430D01*
X224757Y54459D01*
X224701Y54492D01*
X224647Y54528D01*
X224595Y54566D01*
X224545Y54608D01*
X224498Y54652D01*
X224453Y54699D01*
X224411Y54749D01*
X224372Y54800D01*
X224336Y54854D01*
X224303Y54910D01*
X224273Y54967D01*
X224246Y55026D01*
X224223Y55087D01*
X224203Y55148D01*
X224187Y55211D01*
X224174Y55275D01*
X224165Y55339D01*
X224160Y55403D01*
X224158Y55468D01*
X224160Y55533D01*
X224165Y55597D01*
X224174Y55661D01*
X224187Y55725D01*
X224203Y55788D01*
X224223Y55849D01*
X224246Y55910D01*
X224273Y55969D01*
X224303Y56026D01*
X224336Y56082D01*
X224372Y56136D01*
X224411Y56187D01*
X224453Y56237D01*
X224498Y56284D01*
X224545Y56328D01*
X224595Y56370D01*
X224647Y56408D01*
X224701Y56444D01*
X224757Y56477D01*
X224814Y56506D01*
X224874Y56532D01*
X224934Y56555D01*
X225052Y56611D01*
X225172Y56663D01*
X225293Y56712D01*
X225415Y56757D01*
X225539Y56799D01*
X225664Y56837D01*
X225790Y56872D01*
X225916Y56903D01*
X226044Y56931D01*
X226172Y56955D01*
X226301Y56975D01*
X226431Y56991D01*
X226561Y57004D01*
X226691Y57014D01*
X226821Y57019D01*
X226952Y57021D01*
X226952Y53916D02*
X227083Y53918D01*
X227213Y53923D01*
X227343Y53933D01*
X227473Y53946D01*
X227603Y53962D01*
X227732Y53982D01*
X227860Y54006D01*
X227987Y54034D01*
X228114Y54065D01*
X228240Y54100D01*
X228365Y54138D01*
X228489Y54180D01*
X228611Y54225D01*
X228732Y54274D01*
X228852Y54326D01*
X228970Y54382D01*
X228970Y54381D02*
X229030Y54404D01*
X229090Y54430D01*
X229147Y54459D01*
X229203Y54492D01*
X229257Y54528D01*
X229309Y54566D01*
X229359Y54608D01*
X229406Y54652D01*
X229451Y54699D01*
X229493Y54749D01*
X229532Y54800D01*
X229568Y54854D01*
X229601Y54910D01*
X229631Y54967D01*
X229658Y55026D01*
X229681Y55087D01*
X229701Y55148D01*
X229717Y55211D01*
X229730Y55275D01*
X229739Y55339D01*
X229744Y55403D01*
X229746Y55468D01*
X228970Y56555D02*
X228852Y56611D01*
X228732Y56663D01*
X228611Y56712D01*
X228489Y56757D01*
X228365Y56799D01*
X228240Y56837D01*
X228114Y56872D01*
X227988Y56903D01*
X227860Y56931D01*
X227732Y56955D01*
X227603Y56975D01*
X227473Y56991D01*
X227343Y57004D01*
X227213Y57014D01*
X227083Y57019D01*
X226952Y57021D01*
X228970Y56555D02*
X229030Y56532D01*
X229090Y56506D01*
X229147Y56477D01*
X229203Y56444D01*
X229257Y56408D01*
X229309Y56370D01*
X229359Y56328D01*
X229406Y56284D01*
X229451Y56237D01*
X229493Y56187D01*
X229532Y56136D01*
X229568Y56082D01*
X229601Y56026D01*
X229631Y55969D01*
X229658Y55910D01*
X229681Y55849D01*
X229701Y55788D01*
X229717Y55725D01*
X229730Y55661D01*
X229739Y55597D01*
X229744Y55533D01*
X229746Y55468D01*
X228504Y54227D02*
X225400Y56710D01*
X49746Y42979D02*
X44158Y42979D01*
X44158Y44532D01*
X44160Y44609D01*
X44166Y44687D01*
X44175Y44763D01*
X44189Y44840D01*
X44206Y44915D01*
X44227Y44989D01*
X44252Y45063D01*
X44280Y45135D01*
X44312Y45205D01*
X44347Y45274D01*
X44386Y45341D01*
X44428Y45406D01*
X44473Y45469D01*
X44521Y45530D01*
X44572Y45588D01*
X44626Y45643D01*
X44683Y45696D01*
X44742Y45745D01*
X44804Y45792D01*
X44868Y45836D01*
X44934Y45876D01*
X45002Y45913D01*
X45072Y45947D01*
X45143Y45977D01*
X45216Y46003D01*
X45290Y46026D01*
X45365Y46045D01*
X45440Y46060D01*
X45517Y46072D01*
X45594Y46080D01*
X45671Y46084D01*
X45749Y46084D01*
X45826Y46080D01*
X45903Y46072D01*
X45980Y46060D01*
X46055Y46045D01*
X46130Y46026D01*
X46204Y46003D01*
X46277Y45977D01*
X46348Y45947D01*
X46418Y45913D01*
X46486Y45876D01*
X46552Y45836D01*
X46616Y45792D01*
X46678Y45745D01*
X46737Y45696D01*
X46794Y45643D01*
X46848Y45588D01*
X46899Y45530D01*
X46947Y45469D01*
X46992Y45406D01*
X47034Y45341D01*
X47073Y45274D01*
X47108Y45205D01*
X47140Y45135D01*
X47168Y45063D01*
X47193Y44989D01*
X47214Y44915D01*
X47231Y44840D01*
X47245Y44763D01*
X47254Y44687D01*
X47260Y44609D01*
X47262Y44532D01*
X47262Y42979D01*
X47262Y44842D02*
X49746Y46084D01*
X45400Y48430D02*
X44158Y49982D01*
X49746Y49982D01*
X49746Y48430D02*
X49746Y51534D01*
X45400Y53916D02*
X44158Y55468D01*
X49746Y55468D01*
X49746Y53916D02*
X49746Y57021D01*
X255842Y167395D02*
X255842Y168637D01*
X255842Y167395D02*
X255840Y167325D01*
X255834Y167256D01*
X255824Y167187D01*
X255811Y167119D01*
X255793Y167051D01*
X255772Y166985D01*
X255747Y166920D01*
X255719Y166856D01*
X255687Y166794D01*
X255652Y166734D01*
X255613Y166676D01*
X255571Y166621D01*
X255526Y166567D01*
X255478Y166517D01*
X255428Y166469D01*
X255374Y166424D01*
X255319Y166382D01*
X255261Y166343D01*
X255201Y166308D01*
X255139Y166276D01*
X255075Y166248D01*
X255010Y166223D01*
X254944Y166202D01*
X254876Y166184D01*
X254808Y166171D01*
X254739Y166161D01*
X254670Y166155D01*
X254600Y166153D01*
X254600Y166154D02*
X251496Y166154D01*
X251426Y166156D01*
X251357Y166162D01*
X251288Y166172D01*
X251220Y166185D01*
X251152Y166203D01*
X251086Y166224D01*
X251021Y166249D01*
X250957Y166277D01*
X250895Y166309D01*
X250835Y166344D01*
X250777Y166383D01*
X250722Y166425D01*
X250668Y166470D01*
X250618Y166518D01*
X250570Y166568D01*
X250525Y166622D01*
X250483Y166677D01*
X250444Y166735D01*
X250409Y166795D01*
X250377Y166857D01*
X250349Y166921D01*
X250324Y166986D01*
X250303Y167052D01*
X250285Y167120D01*
X250272Y167188D01*
X250262Y167257D01*
X250256Y167326D01*
X250254Y167396D01*
X250254Y167395D02*
X250254Y168637D01*
X254290Y170742D02*
X254213Y170744D01*
X254135Y170750D01*
X254059Y170759D01*
X253982Y170773D01*
X253907Y170790D01*
X253833Y170811D01*
X253759Y170836D01*
X253687Y170864D01*
X253617Y170896D01*
X253548Y170931D01*
X253481Y170970D01*
X253416Y171012D01*
X253353Y171057D01*
X253292Y171105D01*
X253234Y171156D01*
X253179Y171210D01*
X253126Y171267D01*
X253077Y171326D01*
X253030Y171388D01*
X252986Y171452D01*
X252946Y171518D01*
X252909Y171586D01*
X252875Y171656D01*
X252845Y171727D01*
X252819Y171800D01*
X252796Y171874D01*
X252777Y171949D01*
X252762Y172024D01*
X252750Y172101D01*
X252742Y172178D01*
X252738Y172255D01*
X252738Y172333D01*
X252742Y172410D01*
X252750Y172487D01*
X252762Y172564D01*
X252777Y172639D01*
X252796Y172714D01*
X252819Y172788D01*
X252845Y172861D01*
X252875Y172932D01*
X252909Y173002D01*
X252946Y173070D01*
X252986Y173136D01*
X253030Y173200D01*
X253077Y173262D01*
X253126Y173321D01*
X253179Y173378D01*
X253234Y173432D01*
X253292Y173483D01*
X253353Y173531D01*
X253416Y173576D01*
X253481Y173618D01*
X253548Y173657D01*
X253617Y173692D01*
X253687Y173724D01*
X253759Y173752D01*
X253833Y173777D01*
X253907Y173798D01*
X253982Y173815D01*
X254059Y173829D01*
X254135Y173838D01*
X254213Y173844D01*
X254290Y173846D01*
X254367Y173844D01*
X254445Y173838D01*
X254521Y173829D01*
X254598Y173815D01*
X254673Y173798D01*
X254747Y173777D01*
X254821Y173752D01*
X254893Y173724D01*
X254963Y173692D01*
X255032Y173657D01*
X255099Y173618D01*
X255164Y173576D01*
X255227Y173531D01*
X255288Y173483D01*
X255346Y173432D01*
X255401Y173378D01*
X255454Y173321D01*
X255503Y173262D01*
X255550Y173200D01*
X255594Y173136D01*
X255634Y173070D01*
X255671Y173002D01*
X255705Y172932D01*
X255735Y172861D01*
X255761Y172788D01*
X255784Y172714D01*
X255803Y172639D01*
X255818Y172564D01*
X255830Y172487D01*
X255838Y172410D01*
X255842Y172333D01*
X255842Y172255D01*
X255838Y172178D01*
X255830Y172101D01*
X255818Y172024D01*
X255803Y171949D01*
X255784Y171874D01*
X255761Y171800D01*
X255735Y171727D01*
X255705Y171656D01*
X255671Y171586D01*
X255634Y171518D01*
X255594Y171452D01*
X255550Y171388D01*
X255503Y171326D01*
X255454Y171267D01*
X255401Y171210D01*
X255346Y171156D01*
X255288Y171105D01*
X255227Y171057D01*
X255164Y171012D01*
X255099Y170970D01*
X255032Y170931D01*
X254963Y170896D01*
X254893Y170864D01*
X254821Y170836D01*
X254747Y170811D01*
X254673Y170790D01*
X254598Y170773D01*
X254521Y170759D01*
X254445Y170750D01*
X254367Y170744D01*
X254290Y170742D01*
X251496Y171052D02*
X251426Y171054D01*
X251357Y171060D01*
X251288Y171070D01*
X251220Y171083D01*
X251152Y171101D01*
X251086Y171122D01*
X251021Y171147D01*
X250957Y171175D01*
X250895Y171207D01*
X250835Y171242D01*
X250777Y171281D01*
X250722Y171323D01*
X250668Y171368D01*
X250618Y171416D01*
X250570Y171466D01*
X250525Y171520D01*
X250483Y171575D01*
X250444Y171633D01*
X250409Y171693D01*
X250377Y171755D01*
X250349Y171819D01*
X250324Y171884D01*
X250303Y171950D01*
X250285Y172018D01*
X250272Y172086D01*
X250262Y172155D01*
X250256Y172224D01*
X250254Y172294D01*
X250256Y172364D01*
X250262Y172433D01*
X250272Y172502D01*
X250285Y172570D01*
X250303Y172638D01*
X250324Y172704D01*
X250349Y172769D01*
X250377Y172833D01*
X250409Y172895D01*
X250444Y172955D01*
X250483Y173013D01*
X250525Y173068D01*
X250570Y173122D01*
X250618Y173172D01*
X250668Y173220D01*
X250722Y173265D01*
X250777Y173307D01*
X250835Y173346D01*
X250895Y173381D01*
X250957Y173413D01*
X251021Y173441D01*
X251086Y173466D01*
X251152Y173487D01*
X251220Y173505D01*
X251288Y173518D01*
X251357Y173528D01*
X251426Y173534D01*
X251496Y173536D01*
X251566Y173534D01*
X251635Y173528D01*
X251704Y173518D01*
X251772Y173505D01*
X251840Y173487D01*
X251906Y173466D01*
X251971Y173441D01*
X252035Y173413D01*
X252097Y173381D01*
X252157Y173346D01*
X252215Y173307D01*
X252270Y173265D01*
X252324Y173220D01*
X252374Y173172D01*
X252422Y173122D01*
X252467Y173068D01*
X252509Y173013D01*
X252548Y172955D01*
X252583Y172895D01*
X252615Y172833D01*
X252643Y172769D01*
X252668Y172704D01*
X252689Y172638D01*
X252707Y172570D01*
X252720Y172502D01*
X252730Y172433D01*
X252736Y172364D01*
X252738Y172294D01*
X252736Y172224D01*
X252730Y172155D01*
X252720Y172086D01*
X252707Y172018D01*
X252689Y171950D01*
X252668Y171884D01*
X252643Y171819D01*
X252615Y171755D01*
X252583Y171693D01*
X252548Y171633D01*
X252509Y171575D01*
X252467Y171520D01*
X252422Y171466D01*
X252374Y171416D01*
X252324Y171368D01*
X252270Y171323D01*
X252215Y171281D01*
X252157Y171242D01*
X252097Y171207D01*
X252035Y171175D01*
X251971Y171147D01*
X251906Y171122D01*
X251840Y171101D01*
X251772Y171083D01*
X251704Y171070D01*
X251635Y171060D01*
X251566Y171054D01*
X251496Y171052D01*
X255842Y125894D02*
X255842Y124652D01*
X255840Y124582D01*
X255834Y124513D01*
X255824Y124444D01*
X255811Y124376D01*
X255793Y124308D01*
X255772Y124242D01*
X255747Y124177D01*
X255719Y124113D01*
X255687Y124051D01*
X255652Y123991D01*
X255613Y123933D01*
X255571Y123878D01*
X255526Y123824D01*
X255478Y123774D01*
X255428Y123726D01*
X255374Y123681D01*
X255319Y123639D01*
X255261Y123600D01*
X255201Y123565D01*
X255139Y123533D01*
X255075Y123505D01*
X255010Y123480D01*
X254944Y123459D01*
X254876Y123441D01*
X254808Y123428D01*
X254739Y123418D01*
X254670Y123412D01*
X254600Y123410D01*
X254600Y123411D02*
X251496Y123411D01*
X251496Y123410D02*
X251426Y123412D01*
X251357Y123418D01*
X251288Y123428D01*
X251220Y123441D01*
X251152Y123459D01*
X251086Y123480D01*
X251021Y123505D01*
X250957Y123533D01*
X250895Y123565D01*
X250835Y123600D01*
X250777Y123639D01*
X250722Y123681D01*
X250668Y123726D01*
X250618Y123774D01*
X250570Y123824D01*
X250525Y123878D01*
X250483Y123933D01*
X250444Y123991D01*
X250409Y124051D01*
X250377Y124113D01*
X250349Y124177D01*
X250324Y124242D01*
X250303Y124308D01*
X250285Y124376D01*
X250272Y124444D01*
X250262Y124513D01*
X250256Y124582D01*
X250254Y124652D01*
X250254Y125894D01*
X250254Y129706D02*
X250256Y129779D01*
X250262Y129852D01*
X250271Y129925D01*
X250285Y129996D01*
X250302Y130068D01*
X250322Y130138D01*
X250347Y130207D01*
X250375Y130274D01*
X250406Y130340D01*
X250441Y130405D01*
X250479Y130467D01*
X250521Y130527D01*
X250565Y130585D01*
X250613Y130641D01*
X250663Y130694D01*
X250716Y130744D01*
X250772Y130792D01*
X250830Y130836D01*
X250890Y130878D01*
X250953Y130916D01*
X251017Y130951D01*
X251083Y130982D01*
X251150Y131010D01*
X251219Y131035D01*
X251289Y131055D01*
X251361Y131072D01*
X251432Y131086D01*
X251505Y131095D01*
X251578Y131101D01*
X251651Y131103D01*
X250254Y129706D02*
X250256Y129622D01*
X250262Y129539D01*
X250271Y129456D01*
X250285Y129373D01*
X250302Y129292D01*
X250324Y129211D01*
X250349Y129131D01*
X250377Y129053D01*
X250409Y128975D01*
X250445Y128900D01*
X250484Y128826D01*
X250527Y128754D01*
X250573Y128684D01*
X250622Y128617D01*
X250675Y128551D01*
X250730Y128489D01*
X250788Y128429D01*
X250849Y128371D01*
X250912Y128317D01*
X250978Y128265D01*
X251046Y128217D01*
X251117Y128172D01*
X251189Y128130D01*
X251264Y128092D01*
X251340Y128057D01*
X251417Y128026D01*
X251496Y127998D01*
X252737Y130637D02*
X252684Y130691D01*
X252627Y130742D01*
X252568Y130790D01*
X252507Y130835D01*
X252444Y130876D01*
X252378Y130915D01*
X252311Y130950D01*
X252242Y130982D01*
X252171Y131010D01*
X252100Y131034D01*
X252027Y131055D01*
X251953Y131072D01*
X251878Y131086D01*
X251803Y131095D01*
X251727Y131101D01*
X251651Y131103D01*
X252738Y130637D02*
X255842Y127999D01*
X255842Y131103D01*
X254290Y133485D02*
X254213Y133487D01*
X254135Y133493D01*
X254059Y133502D01*
X253982Y133516D01*
X253907Y133533D01*
X253833Y133554D01*
X253759Y133579D01*
X253687Y133607D01*
X253617Y133639D01*
X253548Y133674D01*
X253481Y133713D01*
X253416Y133755D01*
X253353Y133800D01*
X253292Y133848D01*
X253234Y133899D01*
X253179Y133953D01*
X253126Y134010D01*
X253077Y134069D01*
X253030Y134131D01*
X252986Y134195D01*
X252946Y134261D01*
X252909Y134329D01*
X252875Y134399D01*
X252845Y134470D01*
X252819Y134543D01*
X252796Y134617D01*
X252777Y134692D01*
X252762Y134767D01*
X252750Y134844D01*
X252742Y134921D01*
X252738Y134998D01*
X252738Y135076D01*
X252742Y135153D01*
X252750Y135230D01*
X252762Y135307D01*
X252777Y135382D01*
X252796Y135457D01*
X252819Y135531D01*
X252845Y135604D01*
X252875Y135675D01*
X252909Y135745D01*
X252946Y135813D01*
X252986Y135879D01*
X253030Y135943D01*
X253077Y136005D01*
X253126Y136064D01*
X253179Y136121D01*
X253234Y136175D01*
X253292Y136226D01*
X253353Y136274D01*
X253416Y136319D01*
X253481Y136361D01*
X253548Y136400D01*
X253617Y136435D01*
X253687Y136467D01*
X253759Y136495D01*
X253833Y136520D01*
X253907Y136541D01*
X253982Y136558D01*
X254059Y136572D01*
X254135Y136581D01*
X254213Y136587D01*
X254290Y136589D01*
X254367Y136587D01*
X254445Y136581D01*
X254521Y136572D01*
X254598Y136558D01*
X254673Y136541D01*
X254747Y136520D01*
X254821Y136495D01*
X254893Y136467D01*
X254963Y136435D01*
X255032Y136400D01*
X255099Y136361D01*
X255164Y136319D01*
X255227Y136274D01*
X255288Y136226D01*
X255346Y136175D01*
X255401Y136121D01*
X255454Y136064D01*
X255503Y136005D01*
X255550Y135943D01*
X255594Y135879D01*
X255634Y135813D01*
X255671Y135745D01*
X255705Y135675D01*
X255735Y135604D01*
X255761Y135531D01*
X255784Y135457D01*
X255803Y135382D01*
X255818Y135307D01*
X255830Y135230D01*
X255838Y135153D01*
X255842Y135076D01*
X255842Y134998D01*
X255838Y134921D01*
X255830Y134844D01*
X255818Y134767D01*
X255803Y134692D01*
X255784Y134617D01*
X255761Y134543D01*
X255735Y134470D01*
X255705Y134399D01*
X255671Y134329D01*
X255634Y134261D01*
X255594Y134195D01*
X255550Y134131D01*
X255503Y134069D01*
X255454Y134010D01*
X255401Y133953D01*
X255346Y133899D01*
X255288Y133848D01*
X255227Y133800D01*
X255164Y133755D01*
X255099Y133713D01*
X255032Y133674D01*
X254963Y133639D01*
X254893Y133607D01*
X254821Y133579D01*
X254747Y133554D01*
X254673Y133533D01*
X254598Y133516D01*
X254521Y133502D01*
X254445Y133493D01*
X254367Y133487D01*
X254290Y133485D01*
X251496Y133795D02*
X251426Y133797D01*
X251357Y133803D01*
X251288Y133813D01*
X251220Y133826D01*
X251152Y133844D01*
X251086Y133865D01*
X251021Y133890D01*
X250957Y133918D01*
X250895Y133950D01*
X250835Y133985D01*
X250777Y134024D01*
X250722Y134066D01*
X250668Y134111D01*
X250618Y134159D01*
X250570Y134209D01*
X250525Y134263D01*
X250483Y134318D01*
X250444Y134376D01*
X250409Y134436D01*
X250377Y134498D01*
X250349Y134562D01*
X250324Y134627D01*
X250303Y134693D01*
X250285Y134761D01*
X250272Y134829D01*
X250262Y134898D01*
X250256Y134967D01*
X250254Y135037D01*
X250256Y135107D01*
X250262Y135176D01*
X250272Y135245D01*
X250285Y135313D01*
X250303Y135381D01*
X250324Y135447D01*
X250349Y135512D01*
X250377Y135576D01*
X250409Y135638D01*
X250444Y135698D01*
X250483Y135756D01*
X250525Y135811D01*
X250570Y135865D01*
X250618Y135915D01*
X250668Y135963D01*
X250722Y136008D01*
X250777Y136050D01*
X250835Y136089D01*
X250895Y136124D01*
X250957Y136156D01*
X251021Y136184D01*
X251086Y136209D01*
X251152Y136230D01*
X251220Y136248D01*
X251288Y136261D01*
X251357Y136271D01*
X251426Y136277D01*
X251496Y136279D01*
X251566Y136277D01*
X251635Y136271D01*
X251704Y136261D01*
X251772Y136248D01*
X251840Y136230D01*
X251906Y136209D01*
X251971Y136184D01*
X252035Y136156D01*
X252097Y136124D01*
X252157Y136089D01*
X252215Y136050D01*
X252270Y136008D01*
X252324Y135963D01*
X252374Y135915D01*
X252422Y135865D01*
X252467Y135811D01*
X252509Y135756D01*
X252548Y135698D01*
X252583Y135638D01*
X252615Y135576D01*
X252643Y135512D01*
X252668Y135447D01*
X252689Y135381D01*
X252707Y135313D01*
X252720Y135245D01*
X252730Y135176D01*
X252736Y135107D01*
X252738Y135037D01*
X252736Y134967D01*
X252730Y134898D01*
X252720Y134829D01*
X252707Y134761D01*
X252689Y134693D01*
X252668Y134627D01*
X252643Y134562D01*
X252615Y134498D01*
X252583Y134436D01*
X252548Y134376D01*
X252509Y134318D01*
X252467Y134263D01*
X252422Y134209D01*
X252374Y134159D01*
X252324Y134111D01*
X252270Y134066D01*
X252215Y134024D01*
X252157Y133985D01*
X252097Y133950D01*
X252035Y133918D01*
X251971Y133890D01*
X251906Y133865D01*
X251840Y133844D01*
X251772Y133826D01*
X251704Y133813D01*
X251635Y133803D01*
X251566Y133797D01*
X251496Y133795D01*
D11*
X198768Y169463D02*
X101232Y169463D01*
X199768Y130537D02*
X199881Y130556D01*
X199993Y130578D01*
X200104Y130605D01*
X200214Y130635D01*
X200323Y130670D01*
X200431Y130708D01*
X200538Y130749D01*
X200643Y130794D01*
X200746Y130843D01*
X200848Y130895D01*
X200948Y130951D01*
X201046Y131010D01*
X201141Y131072D01*
X201235Y131138D01*
X201326Y131207D01*
X201415Y131278D01*
X201502Y131353D01*
X201586Y131431D01*
X201667Y131511D01*
X201745Y131595D01*
X201821Y131681D01*
X201893Y131769D01*
X201962Y131860D01*
X202029Y131953D01*
X202092Y132048D01*
X202152Y132146D01*
X202208Y132245D01*
X202261Y132346D01*
X202310Y132450D01*
X202356Y132554D01*
X202399Y132660D01*
X202437Y132768D01*
X202472Y132877D01*
X202504Y132987D01*
X202531Y133098D01*
X202555Y133210D01*
X202575Y133322D01*
X202591Y133435D01*
X202603Y133549D01*
X202611Y133663D01*
X202615Y133777D01*
X202616Y133892D01*
X202612Y134006D01*
X202605Y134120D01*
X202594Y134234D01*
X202578Y134347D01*
X101232Y169463D02*
X101102Y169446D01*
X100973Y169425D01*
X100844Y169400D01*
X100716Y169372D01*
X100589Y169339D01*
X100463Y169303D01*
X100338Y169262D01*
X100215Y169218D01*
X100093Y169171D01*
X99972Y169119D01*
X99853Y169065D01*
X99736Y169006D01*
X99621Y168944D01*
X99507Y168879D01*
X99395Y168810D01*
X99286Y168737D01*
X99179Y168662D01*
X99074Y168583D01*
X98972Y168501D01*
X98872Y168416D01*
X98775Y168329D01*
X98680Y168238D01*
X98588Y168144D01*
X98499Y168048D01*
X98413Y167949D01*
X98331Y167848D01*
X98251Y167744D01*
X98174Y167637D01*
X98101Y167529D01*
X98031Y167418D01*
X97964Y167305D01*
X97901Y167190D01*
X97841Y167074D01*
X97785Y166955D01*
X97732Y166835D01*
X97683Y166714D01*
X97638Y166591D01*
X97596Y166466D01*
X97558Y166341D01*
X97525Y166214D01*
X97494Y166087D01*
X97468Y165958D01*
X97446Y165829D01*
X97427Y165699D01*
X97413Y165569D01*
X97402Y165438D01*
X97396Y165307D01*
X97393Y165176D01*
X97394Y165045D01*
X97400Y164914D01*
X97409Y164784D01*
X97422Y164653D01*
X198768Y169463D02*
X198890Y169461D01*
X199012Y169455D01*
X199134Y169445D01*
X199255Y169432D01*
X199376Y169414D01*
X199496Y169393D01*
X199616Y169368D01*
X199735Y169339D01*
X199852Y169306D01*
X199969Y169269D01*
X200084Y169229D01*
X200198Y169185D01*
X200310Y169137D01*
X200421Y169086D01*
X200530Y169031D01*
X200638Y168973D01*
X200743Y168911D01*
X200847Y168846D01*
X200948Y168778D01*
X201047Y168707D01*
X201144Y168632D01*
X201238Y168554D01*
X201330Y168474D01*
X201419Y168390D01*
X201505Y168304D01*
X201589Y168215D01*
X201669Y168123D01*
X201747Y168029D01*
X201822Y167932D01*
X201893Y167833D01*
X201961Y167732D01*
X202026Y167628D01*
X202088Y167523D01*
X202146Y167415D01*
X202201Y167306D01*
X202252Y167195D01*
X202300Y167083D01*
X202344Y166969D01*
X202384Y166854D01*
X202421Y166737D01*
X202454Y166620D01*
X202483Y166501D01*
X202508Y166381D01*
X202529Y166261D01*
X202547Y166140D01*
X202560Y166019D01*
X202570Y165897D01*
X202576Y165775D01*
X202578Y165653D01*
X101233Y130537D02*
X101119Y130522D01*
X101005Y130510D01*
X100891Y130503D01*
X100777Y130499D01*
X100663Y130500D01*
X100548Y130504D01*
X100434Y130512D01*
X100321Y130524D01*
X100208Y130540D01*
X100095Y130560D01*
X99983Y130584D01*
X99872Y130611D01*
X99762Y130642D01*
X99653Y130677D01*
X99546Y130716D01*
X99439Y130758D01*
X99335Y130804D01*
X99232Y130854D01*
X99130Y130907D01*
X99031Y130963D01*
X98933Y131023D01*
X98838Y131086D01*
X98745Y131152D01*
X98654Y131222D01*
X98566Y131294D01*
X98480Y131370D01*
X98397Y131448D01*
X98316Y131529D01*
X98238Y131613D01*
X98164Y131699D01*
X98092Y131788D01*
X98023Y131880D01*
X97957Y131973D01*
X97895Y132069D01*
X97836Y132167D01*
X97780Y132267D01*
X97728Y132369D01*
X97680Y132472D01*
X97634Y132577D01*
X97593Y132684D01*
X97555Y132792D01*
X97521Y132901D01*
X97491Y133011D01*
X97464Y133122D01*
X97441Y133234D01*
X97422Y133347D01*
X101232Y130537D02*
X199768Y130537D01*
X202578Y134347D02*
X202578Y165653D01*
X97930Y156096D02*
X98088Y156094D01*
X98247Y156088D01*
X98405Y156078D01*
X98562Y156064D01*
X98720Y156047D01*
X98876Y156025D01*
X99033Y156000D01*
X99188Y155970D01*
X99343Y155937D01*
X99497Y155900D01*
X99650Y155859D01*
X99802Y155814D01*
X99952Y155765D01*
X100102Y155713D01*
X100250Y155657D01*
X100397Y155597D01*
X100542Y155534D01*
X100685Y155467D01*
X100827Y155397D01*
X100967Y155323D01*
X101105Y155245D01*
X101241Y155164D01*
X101375Y155080D01*
X101507Y154993D01*
X101637Y154902D01*
X101764Y154808D01*
X101889Y154711D01*
X102012Y154610D01*
X102132Y154507D01*
X102249Y154401D01*
X102364Y154292D01*
X102476Y154180D01*
X102585Y154065D01*
X102691Y153948D01*
X102794Y153828D01*
X102895Y153705D01*
X102992Y153580D01*
X103086Y153453D01*
X103177Y153323D01*
X103264Y153191D01*
X103348Y153057D01*
X103429Y152921D01*
X103507Y152783D01*
X103581Y152643D01*
X103651Y152501D01*
X103718Y152358D01*
X103781Y152213D01*
X103841Y152066D01*
X103897Y151918D01*
X103949Y151768D01*
X103998Y151618D01*
X104043Y151466D01*
X104084Y151313D01*
X104121Y151159D01*
X104154Y151004D01*
X104184Y150849D01*
X104209Y150692D01*
X104231Y150536D01*
X104248Y150378D01*
X104262Y150221D01*
X104272Y150063D01*
X104278Y149904D01*
X104280Y149746D01*
X104278Y149588D01*
X104272Y149429D01*
X104262Y149271D01*
X104248Y149114D01*
X104231Y148956D01*
X104209Y148800D01*
X104184Y148643D01*
X104154Y148488D01*
X104121Y148333D01*
X104084Y148179D01*
X104043Y148026D01*
X103998Y147874D01*
X103949Y147724D01*
X103897Y147574D01*
X103841Y147426D01*
X103781Y147279D01*
X103718Y147134D01*
X103651Y146991D01*
X103581Y146849D01*
X103507Y146709D01*
X103429Y146571D01*
X103348Y146435D01*
X103264Y146301D01*
X103177Y146169D01*
X103086Y146039D01*
X102992Y145912D01*
X102895Y145787D01*
X102794Y145664D01*
X102691Y145544D01*
X102585Y145427D01*
X102476Y145312D01*
X102364Y145200D01*
X102249Y145091D01*
X102132Y144985D01*
X102012Y144882D01*
X101889Y144781D01*
X101764Y144684D01*
X101637Y144590D01*
X101507Y144499D01*
X101375Y144412D01*
X101241Y144328D01*
X101105Y144247D01*
X100967Y144169D01*
X100827Y144095D01*
X100685Y144025D01*
X100542Y143958D01*
X100397Y143895D01*
X100250Y143835D01*
X100102Y143779D01*
X99952Y143727D01*
X99802Y143678D01*
X99650Y143633D01*
X99497Y143592D01*
X99343Y143555D01*
X99188Y143522D01*
X99033Y143492D01*
X98876Y143467D01*
X98720Y143445D01*
X98562Y143428D01*
X98405Y143414D01*
X98247Y143404D01*
X98088Y143398D01*
X97930Y143396D01*
X97422Y156096D02*
X97422Y164526D01*
X97422Y143396D02*
X97422Y133347D01*
D12*
X140920Y147460D02*
X140920Y155715D01*
X140920Y147460D02*
X140922Y147349D01*
X140928Y147239D01*
X140937Y147128D01*
X140951Y147018D01*
X140968Y146909D01*
X140989Y146800D01*
X141014Y146692D01*
X141043Y146585D01*
X141075Y146479D01*
X141111Y146374D01*
X141151Y146271D01*
X141194Y146169D01*
X141241Y146068D01*
X141292Y145969D01*
X141345Y145873D01*
X141402Y145778D01*
X141463Y145685D01*
X141526Y145594D01*
X141593Y145505D01*
X141663Y145419D01*
X141736Y145336D01*
X141811Y145254D01*
X141889Y145176D01*
X141971Y145101D01*
X142054Y145028D01*
X142140Y144958D01*
X142229Y144891D01*
X142320Y144828D01*
X142413Y144767D01*
X142508Y144710D01*
X142604Y144657D01*
X142703Y144606D01*
X142804Y144559D01*
X142906Y144516D01*
X143009Y144476D01*
X143114Y144440D01*
X143220Y144408D01*
X143327Y144379D01*
X143435Y144354D01*
X143544Y144333D01*
X143653Y144316D01*
X143763Y144302D01*
X143874Y144293D01*
X143984Y144287D01*
X144095Y144285D01*
X144206Y144287D01*
X144316Y144293D01*
X144427Y144302D01*
X144537Y144316D01*
X144646Y144333D01*
X144755Y144354D01*
X144863Y144379D01*
X144970Y144408D01*
X145076Y144440D01*
X145181Y144476D01*
X145284Y144516D01*
X145386Y144559D01*
X145487Y144606D01*
X145586Y144657D01*
X145682Y144710D01*
X145777Y144767D01*
X145870Y144828D01*
X145961Y144891D01*
X146050Y144958D01*
X146136Y145028D01*
X146219Y145101D01*
X146301Y145176D01*
X146379Y145254D01*
X146454Y145336D01*
X146527Y145419D01*
X146597Y145505D01*
X146664Y145594D01*
X146727Y145685D01*
X146788Y145778D01*
X146845Y145872D01*
X146898Y145969D01*
X146949Y146068D01*
X146996Y146169D01*
X147039Y146271D01*
X147079Y146374D01*
X147115Y146479D01*
X147147Y146585D01*
X147176Y146692D01*
X147201Y146800D01*
X147222Y146909D01*
X147239Y147018D01*
X147253Y147128D01*
X147262Y147239D01*
X147268Y147349D01*
X147270Y147460D01*
X147270Y155715D01*
X152731Y150635D02*
X156541Y150635D01*
X156641Y150633D01*
X156740Y150627D01*
X156840Y150617D01*
X156938Y150604D01*
X157037Y150586D01*
X157134Y150565D01*
X157230Y150540D01*
X157326Y150511D01*
X157420Y150478D01*
X157513Y150442D01*
X157604Y150402D01*
X157694Y150358D01*
X157782Y150311D01*
X157868Y150261D01*
X157952Y150207D01*
X158034Y150150D01*
X158113Y150090D01*
X158191Y150026D01*
X158265Y149960D01*
X158337Y149891D01*
X158406Y149819D01*
X158472Y149745D01*
X158536Y149667D01*
X158596Y149588D01*
X158653Y149506D01*
X158707Y149422D01*
X158757Y149336D01*
X158804Y149248D01*
X158848Y149158D01*
X158888Y149067D01*
X158924Y148974D01*
X158957Y148880D01*
X158986Y148784D01*
X159011Y148688D01*
X159032Y148591D01*
X159050Y148492D01*
X159063Y148394D01*
X159073Y148294D01*
X159079Y148195D01*
X159081Y148095D01*
X159081Y147460D01*
X159079Y147349D01*
X159073Y147239D01*
X159064Y147128D01*
X159050Y147018D01*
X159033Y146909D01*
X159012Y146800D01*
X158987Y146692D01*
X158958Y146585D01*
X158926Y146479D01*
X158890Y146374D01*
X158850Y146271D01*
X158807Y146169D01*
X158760Y146068D01*
X158709Y145969D01*
X158656Y145872D01*
X158599Y145778D01*
X158538Y145685D01*
X158475Y145594D01*
X158408Y145505D01*
X158338Y145419D01*
X158265Y145336D01*
X158190Y145254D01*
X158112Y145176D01*
X158030Y145101D01*
X157947Y145028D01*
X157861Y144958D01*
X157772Y144891D01*
X157681Y144828D01*
X157588Y144767D01*
X157493Y144710D01*
X157397Y144657D01*
X157298Y144606D01*
X157197Y144559D01*
X157095Y144516D01*
X156992Y144476D01*
X156887Y144440D01*
X156781Y144408D01*
X156674Y144379D01*
X156566Y144354D01*
X156457Y144333D01*
X156348Y144316D01*
X156238Y144302D01*
X156127Y144293D01*
X156017Y144287D01*
X155906Y144285D01*
X155795Y144287D01*
X155685Y144293D01*
X155574Y144302D01*
X155464Y144316D01*
X155355Y144333D01*
X155246Y144354D01*
X155138Y144379D01*
X155031Y144408D01*
X154925Y144440D01*
X154820Y144476D01*
X154717Y144516D01*
X154615Y144559D01*
X154514Y144606D01*
X154415Y144657D01*
X154319Y144710D01*
X154224Y144767D01*
X154131Y144828D01*
X154040Y144891D01*
X153951Y144958D01*
X153865Y145028D01*
X153782Y145101D01*
X153700Y145176D01*
X153622Y145254D01*
X153547Y145336D01*
X153474Y145419D01*
X153404Y145505D01*
X153337Y145594D01*
X153274Y145685D01*
X153213Y145778D01*
X153156Y145873D01*
X153103Y145969D01*
X153052Y146068D01*
X153005Y146169D01*
X152962Y146271D01*
X152922Y146374D01*
X152886Y146479D01*
X152854Y146585D01*
X152825Y146692D01*
X152800Y146800D01*
X152779Y146909D01*
X152762Y147018D01*
X152748Y147128D01*
X152739Y147239D01*
X152733Y147349D01*
X152731Y147460D01*
X152731Y150635D01*
X152733Y150775D01*
X152739Y150915D01*
X152748Y151055D01*
X152762Y151194D01*
X152779Y151333D01*
X152800Y151471D01*
X152825Y151609D01*
X152854Y151746D01*
X152886Y151882D01*
X152923Y152017D01*
X152963Y152151D01*
X153006Y152284D01*
X153054Y152416D01*
X153104Y152547D01*
X153159Y152676D01*
X153217Y152803D01*
X153278Y152929D01*
X153343Y153053D01*
X153412Y153175D01*
X153483Y153295D01*
X153558Y153413D01*
X153636Y153530D01*
X153718Y153644D01*
X153802Y153755D01*
X153890Y153864D01*
X153980Y153971D01*
X154074Y154076D01*
X154170Y154177D01*
X154269Y154276D01*
X154370Y154372D01*
X154475Y154466D01*
X154582Y154556D01*
X154691Y154644D01*
X154802Y154728D01*
X154916Y154810D01*
X155033Y154888D01*
X155151Y154963D01*
X155271Y155034D01*
X155393Y155103D01*
X155517Y155168D01*
X155643Y155229D01*
X155770Y155287D01*
X155899Y155342D01*
X156030Y155392D01*
X156162Y155440D01*
X156295Y155483D01*
X156429Y155523D01*
X156564Y155560D01*
X156700Y155592D01*
X156837Y155621D01*
X156975Y155646D01*
X157113Y155667D01*
X157252Y155684D01*
X157391Y155698D01*
X157531Y155707D01*
X157671Y155713D01*
X157811Y155715D01*
D10*
X182979Y294158D02*
X182979Y299746D01*
X184532Y299746D01*
X184609Y299744D01*
X184687Y299738D01*
X184763Y299729D01*
X184840Y299715D01*
X184915Y299698D01*
X184989Y299677D01*
X185063Y299652D01*
X185135Y299624D01*
X185205Y299592D01*
X185274Y299557D01*
X185341Y299518D01*
X185406Y299476D01*
X185469Y299431D01*
X185530Y299383D01*
X185588Y299332D01*
X185643Y299278D01*
X185696Y299221D01*
X185745Y299162D01*
X185792Y299100D01*
X185836Y299036D01*
X185876Y298970D01*
X185913Y298902D01*
X185947Y298832D01*
X185977Y298761D01*
X186003Y298688D01*
X186026Y298614D01*
X186045Y298539D01*
X186060Y298464D01*
X186072Y298387D01*
X186080Y298310D01*
X186084Y298233D01*
X186084Y298155D01*
X186080Y298078D01*
X186072Y298001D01*
X186060Y297924D01*
X186045Y297849D01*
X186026Y297774D01*
X186003Y297700D01*
X185977Y297627D01*
X185947Y297556D01*
X185913Y297486D01*
X185876Y297418D01*
X185836Y297352D01*
X185792Y297288D01*
X185745Y297226D01*
X185696Y297167D01*
X185643Y297110D01*
X185588Y297056D01*
X185530Y297005D01*
X185469Y296957D01*
X185406Y296912D01*
X185341Y296870D01*
X185274Y296831D01*
X185205Y296796D01*
X185135Y296764D01*
X185063Y296736D01*
X184989Y296711D01*
X184915Y296690D01*
X184840Y296673D01*
X184763Y296659D01*
X184687Y296650D01*
X184609Y296644D01*
X184532Y296642D01*
X182979Y296642D01*
X184842Y296642D02*
X186084Y294158D01*
X188430Y298504D02*
X189982Y299746D01*
X189982Y294158D01*
X188430Y294158D02*
X191534Y294158D01*
X193916Y299125D02*
X193916Y299746D01*
X197021Y299746D01*
X195468Y294158D01*
X102979Y294158D02*
X102979Y299746D01*
X104532Y299746D01*
X104609Y299744D01*
X104687Y299738D01*
X104763Y299729D01*
X104840Y299715D01*
X104915Y299698D01*
X104989Y299677D01*
X105063Y299652D01*
X105135Y299624D01*
X105205Y299592D01*
X105274Y299557D01*
X105341Y299518D01*
X105406Y299476D01*
X105469Y299431D01*
X105530Y299383D01*
X105588Y299332D01*
X105643Y299278D01*
X105696Y299221D01*
X105745Y299162D01*
X105792Y299100D01*
X105836Y299036D01*
X105876Y298970D01*
X105913Y298902D01*
X105947Y298832D01*
X105977Y298761D01*
X106003Y298688D01*
X106026Y298614D01*
X106045Y298539D01*
X106060Y298464D01*
X106072Y298387D01*
X106080Y298310D01*
X106084Y298233D01*
X106084Y298155D01*
X106080Y298078D01*
X106072Y298001D01*
X106060Y297924D01*
X106045Y297849D01*
X106026Y297774D01*
X106003Y297700D01*
X105977Y297627D01*
X105947Y297556D01*
X105913Y297486D01*
X105876Y297418D01*
X105836Y297352D01*
X105792Y297288D01*
X105745Y297226D01*
X105696Y297167D01*
X105643Y297110D01*
X105588Y297056D01*
X105530Y297005D01*
X105469Y296957D01*
X105406Y296912D01*
X105341Y296870D01*
X105274Y296831D01*
X105205Y296796D01*
X105135Y296764D01*
X105063Y296736D01*
X104989Y296711D01*
X104915Y296690D01*
X104840Y296673D01*
X104763Y296659D01*
X104687Y296650D01*
X104609Y296644D01*
X104532Y296642D01*
X102979Y296642D01*
X104842Y296642D02*
X106084Y294158D01*
X108430Y298504D02*
X109982Y299746D01*
X109982Y294158D01*
X108430Y294158D02*
X111534Y294158D01*
X113916Y295710D02*
X113918Y295787D01*
X113924Y295865D01*
X113933Y295941D01*
X113947Y296018D01*
X113964Y296093D01*
X113985Y296167D01*
X114010Y296241D01*
X114038Y296313D01*
X114070Y296383D01*
X114105Y296452D01*
X114144Y296519D01*
X114186Y296584D01*
X114231Y296647D01*
X114279Y296708D01*
X114330Y296766D01*
X114384Y296821D01*
X114441Y296874D01*
X114500Y296923D01*
X114562Y296970D01*
X114626Y297014D01*
X114692Y297054D01*
X114760Y297091D01*
X114830Y297125D01*
X114901Y297155D01*
X114974Y297181D01*
X115048Y297204D01*
X115123Y297223D01*
X115198Y297238D01*
X115275Y297250D01*
X115352Y297258D01*
X115429Y297262D01*
X115507Y297262D01*
X115584Y297258D01*
X115661Y297250D01*
X115738Y297238D01*
X115813Y297223D01*
X115888Y297204D01*
X115962Y297181D01*
X116035Y297155D01*
X116106Y297125D01*
X116176Y297091D01*
X116244Y297054D01*
X116310Y297014D01*
X116374Y296970D01*
X116436Y296923D01*
X116495Y296874D01*
X116552Y296821D01*
X116606Y296766D01*
X116657Y296708D01*
X116705Y296647D01*
X116750Y296584D01*
X116792Y296519D01*
X116831Y296452D01*
X116866Y296383D01*
X116898Y296313D01*
X116926Y296241D01*
X116951Y296167D01*
X116972Y296093D01*
X116989Y296018D01*
X117003Y295941D01*
X117012Y295865D01*
X117018Y295787D01*
X117020Y295710D01*
X117018Y295633D01*
X117012Y295555D01*
X117003Y295479D01*
X116989Y295402D01*
X116972Y295327D01*
X116951Y295253D01*
X116926Y295179D01*
X116898Y295107D01*
X116866Y295037D01*
X116831Y294968D01*
X116792Y294901D01*
X116750Y294836D01*
X116705Y294773D01*
X116657Y294712D01*
X116606Y294654D01*
X116552Y294599D01*
X116495Y294546D01*
X116436Y294497D01*
X116374Y294450D01*
X116310Y294406D01*
X116244Y294366D01*
X116176Y294329D01*
X116106Y294295D01*
X116035Y294265D01*
X115962Y294239D01*
X115888Y294216D01*
X115813Y294197D01*
X115738Y294182D01*
X115661Y294170D01*
X115584Y294162D01*
X115507Y294158D01*
X115429Y294158D01*
X115352Y294162D01*
X115275Y294170D01*
X115198Y294182D01*
X115123Y294197D01*
X115048Y294216D01*
X114974Y294239D01*
X114901Y294265D01*
X114830Y294295D01*
X114760Y294329D01*
X114692Y294366D01*
X114626Y294406D01*
X114562Y294450D01*
X114500Y294497D01*
X114441Y294546D01*
X114384Y294599D01*
X114330Y294654D01*
X114279Y294712D01*
X114231Y294773D01*
X114186Y294836D01*
X114144Y294901D01*
X114105Y294968D01*
X114070Y295037D01*
X114038Y295107D01*
X114010Y295179D01*
X113985Y295253D01*
X113964Y295327D01*
X113947Y295402D01*
X113933Y295479D01*
X113924Y295555D01*
X113918Y295633D01*
X113916Y295710D01*
X114226Y298504D02*
X114228Y298574D01*
X114234Y298643D01*
X114244Y298712D01*
X114257Y298780D01*
X114275Y298848D01*
X114296Y298914D01*
X114321Y298979D01*
X114349Y299043D01*
X114381Y299105D01*
X114416Y299165D01*
X114455Y299223D01*
X114497Y299278D01*
X114542Y299332D01*
X114590Y299382D01*
X114640Y299430D01*
X114694Y299475D01*
X114749Y299517D01*
X114807Y299556D01*
X114867Y299591D01*
X114929Y299623D01*
X114993Y299651D01*
X115058Y299676D01*
X115124Y299697D01*
X115192Y299715D01*
X115260Y299728D01*
X115329Y299738D01*
X115398Y299744D01*
X115468Y299746D01*
X115538Y299744D01*
X115607Y299738D01*
X115676Y299728D01*
X115744Y299715D01*
X115812Y299697D01*
X115878Y299676D01*
X115943Y299651D01*
X116007Y299623D01*
X116069Y299591D01*
X116129Y299556D01*
X116187Y299517D01*
X116242Y299475D01*
X116296Y299430D01*
X116346Y299382D01*
X116394Y299332D01*
X116439Y299278D01*
X116481Y299223D01*
X116520Y299165D01*
X116555Y299105D01*
X116587Y299043D01*
X116615Y298979D01*
X116640Y298914D01*
X116661Y298848D01*
X116679Y298780D01*
X116692Y298712D01*
X116702Y298643D01*
X116708Y298574D01*
X116710Y298504D01*
X116708Y298434D01*
X116702Y298365D01*
X116692Y298296D01*
X116679Y298228D01*
X116661Y298160D01*
X116640Y298094D01*
X116615Y298029D01*
X116587Y297965D01*
X116555Y297903D01*
X116520Y297843D01*
X116481Y297785D01*
X116439Y297730D01*
X116394Y297676D01*
X116346Y297626D01*
X116296Y297578D01*
X116242Y297533D01*
X116187Y297491D01*
X116129Y297452D01*
X116069Y297417D01*
X116007Y297385D01*
X115943Y297357D01*
X115878Y297332D01*
X115812Y297311D01*
X115744Y297293D01*
X115676Y297280D01*
X115607Y297270D01*
X115538Y297264D01*
X115468Y297262D01*
X115398Y297264D01*
X115329Y297270D01*
X115260Y297280D01*
X115192Y297293D01*
X115124Y297311D01*
X115058Y297332D01*
X114993Y297357D01*
X114929Y297385D01*
X114867Y297417D01*
X114807Y297452D01*
X114749Y297491D01*
X114694Y297533D01*
X114640Y297578D01*
X114590Y297626D01*
X114542Y297676D01*
X114497Y297730D01*
X114455Y297785D01*
X114416Y297843D01*
X114381Y297903D01*
X114349Y297965D01*
X114321Y298029D01*
X114296Y298094D01*
X114275Y298160D01*
X114257Y298228D01*
X114244Y298296D01*
X114234Y298365D01*
X114228Y298434D01*
X114226Y298504D01*
D13*
X136665Y299840D03*
D11*
X138824Y303777D02*
X138824Y317493D01*
X161176Y317493D02*
X161176Y302507D01*
X140221Y317493D02*
X138824Y317493D01*
X159779Y317493D02*
X161176Y317493D01*
X140221Y302507D02*
X138824Y303777D01*
X159779Y302507D02*
X161176Y302507D01*
D10*
X145777Y325710D02*
X145777Y328194D01*
X145779Y328271D01*
X145785Y328349D01*
X145794Y328425D01*
X145808Y328502D01*
X145825Y328577D01*
X145846Y328651D01*
X145871Y328725D01*
X145899Y328797D01*
X145931Y328867D01*
X145966Y328936D01*
X146005Y329003D01*
X146047Y329068D01*
X146092Y329131D01*
X146140Y329192D01*
X146191Y329250D01*
X146245Y329305D01*
X146302Y329358D01*
X146361Y329407D01*
X146423Y329454D01*
X146487Y329498D01*
X146553Y329538D01*
X146621Y329575D01*
X146691Y329609D01*
X146762Y329639D01*
X146835Y329665D01*
X146909Y329688D01*
X146984Y329707D01*
X147059Y329722D01*
X147136Y329734D01*
X147213Y329742D01*
X147290Y329746D01*
X147368Y329746D01*
X147445Y329742D01*
X147522Y329734D01*
X147599Y329722D01*
X147674Y329707D01*
X147749Y329688D01*
X147823Y329665D01*
X147896Y329639D01*
X147967Y329609D01*
X148037Y329575D01*
X148105Y329538D01*
X148171Y329498D01*
X148235Y329454D01*
X148297Y329407D01*
X148356Y329358D01*
X148413Y329305D01*
X148467Y329250D01*
X148518Y329192D01*
X148566Y329131D01*
X148611Y329068D01*
X148653Y329003D01*
X148692Y328936D01*
X148727Y328867D01*
X148759Y328797D01*
X148787Y328725D01*
X148812Y328651D01*
X148833Y328577D01*
X148850Y328502D01*
X148864Y328425D01*
X148873Y328349D01*
X148879Y328271D01*
X148881Y328194D01*
X148881Y325710D01*
X148879Y325633D01*
X148873Y325555D01*
X148864Y325479D01*
X148850Y325402D01*
X148833Y325327D01*
X148812Y325253D01*
X148787Y325179D01*
X148759Y325107D01*
X148727Y325037D01*
X148692Y324968D01*
X148653Y324901D01*
X148611Y324836D01*
X148566Y324773D01*
X148518Y324712D01*
X148467Y324654D01*
X148413Y324599D01*
X148356Y324546D01*
X148297Y324497D01*
X148235Y324450D01*
X148171Y324406D01*
X148105Y324366D01*
X148037Y324329D01*
X147967Y324295D01*
X147896Y324265D01*
X147823Y324239D01*
X147749Y324216D01*
X147674Y324197D01*
X147599Y324182D01*
X147522Y324170D01*
X147445Y324162D01*
X147368Y324158D01*
X147290Y324158D01*
X147213Y324162D01*
X147136Y324170D01*
X147059Y324182D01*
X146984Y324197D01*
X146909Y324216D01*
X146835Y324239D01*
X146762Y324265D01*
X146691Y324295D01*
X146621Y324329D01*
X146553Y324366D01*
X146487Y324406D01*
X146423Y324450D01*
X146361Y324497D01*
X146302Y324546D01*
X146245Y324599D01*
X146191Y324654D01*
X146140Y324712D01*
X146092Y324773D01*
X146047Y324836D01*
X146005Y324901D01*
X145966Y324968D01*
X145931Y325037D01*
X145899Y325107D01*
X145871Y325179D01*
X145846Y325253D01*
X145825Y325327D01*
X145808Y325402D01*
X145794Y325479D01*
X145785Y325555D01*
X145779Y325633D01*
X145777Y325710D01*
X148260Y325400D02*
X149502Y324158D01*
X154223Y328349D02*
X154221Y328422D01*
X154215Y328495D01*
X154206Y328568D01*
X154192Y328639D01*
X154175Y328711D01*
X154155Y328781D01*
X154130Y328850D01*
X154102Y328917D01*
X154071Y328983D01*
X154036Y329048D01*
X153998Y329110D01*
X153956Y329170D01*
X153912Y329228D01*
X153864Y329284D01*
X153814Y329337D01*
X153761Y329387D01*
X153705Y329435D01*
X153647Y329479D01*
X153587Y329521D01*
X153525Y329559D01*
X153460Y329594D01*
X153394Y329625D01*
X153327Y329653D01*
X153258Y329678D01*
X153188Y329698D01*
X153116Y329715D01*
X153045Y329729D01*
X152972Y329738D01*
X152899Y329744D01*
X152826Y329746D01*
X152742Y329744D01*
X152659Y329738D01*
X152576Y329729D01*
X152494Y329715D01*
X152412Y329698D01*
X152331Y329676D01*
X152251Y329651D01*
X152173Y329623D01*
X152095Y329591D01*
X152020Y329555D01*
X151946Y329516D01*
X151874Y329473D01*
X151804Y329427D01*
X151737Y329378D01*
X151671Y329325D01*
X151609Y329270D01*
X151549Y329212D01*
X151491Y329151D01*
X151437Y329088D01*
X151385Y329022D01*
X151337Y328954D01*
X151292Y328883D01*
X151250Y328811D01*
X151212Y328736D01*
X151177Y328660D01*
X151146Y328583D01*
X151118Y328504D01*
X153757Y327263D02*
X153811Y327316D01*
X153862Y327373D01*
X153910Y327432D01*
X153955Y327493D01*
X153996Y327556D01*
X154035Y327622D01*
X154070Y327689D01*
X154102Y327758D01*
X154130Y327829D01*
X154154Y327900D01*
X154175Y327973D01*
X154192Y328047D01*
X154206Y328122D01*
X154215Y328197D01*
X154221Y328273D01*
X154223Y328349D01*
X153758Y327262D02*
X151119Y324158D01*
X154223Y324158D01*
D14*
X156350Y382700D02*
X169050Y382700D01*
X175400Y376350D01*
X175400Y363650D01*
X169050Y357300D01*
X175400Y376350D02*
X181750Y382700D01*
X194450Y382700D01*
X200800Y376350D01*
X200800Y363650D01*
X194450Y357300D01*
X181750Y357300D01*
X175400Y363650D01*
X130950Y382700D02*
X124600Y376350D01*
X130950Y382700D02*
X143650Y382700D01*
X150000Y376350D01*
X150000Y363650D01*
X143650Y357300D01*
X130950Y357300D01*
X124600Y363650D01*
X150000Y376350D02*
X156350Y382700D01*
X150000Y363650D02*
X156350Y357300D01*
X169050Y357300D01*
X92850Y382700D02*
X80150Y382700D01*
X92850Y382700D02*
X99200Y376350D01*
X99200Y363650D01*
X92850Y357300D01*
X99200Y376350D02*
X105550Y382700D01*
X118250Y382700D01*
X124600Y376350D01*
X124600Y363650D01*
X118250Y357300D01*
X105550Y357300D01*
X99200Y363650D01*
X73800Y363650D02*
X73800Y376350D01*
X80150Y382700D01*
X73800Y363650D02*
X80150Y357300D01*
X92850Y357300D01*
X207150Y382700D02*
X219850Y382700D01*
X226200Y376350D01*
X226200Y363650D01*
X219850Y357300D01*
X200800Y376350D02*
X207150Y382700D01*
X200800Y363650D02*
X207150Y357300D01*
X219850Y357300D01*
D12*
X106800Y57900D02*
X106800Y16100D01*
X193200Y16100D01*
X193200Y57900D01*
X106800Y57900D01*
D10*
X109746Y227395D02*
X109746Y228637D01*
X109746Y227395D02*
X109744Y227325D01*
X109738Y227256D01*
X109728Y227187D01*
X109715Y227119D01*
X109697Y227051D01*
X109676Y226985D01*
X109651Y226920D01*
X109623Y226856D01*
X109591Y226794D01*
X109556Y226734D01*
X109517Y226676D01*
X109475Y226621D01*
X109430Y226567D01*
X109382Y226517D01*
X109332Y226469D01*
X109278Y226424D01*
X109223Y226382D01*
X109165Y226343D01*
X109105Y226308D01*
X109043Y226276D01*
X108979Y226248D01*
X108914Y226223D01*
X108848Y226202D01*
X108780Y226184D01*
X108712Y226171D01*
X108643Y226161D01*
X108574Y226155D01*
X108504Y226153D01*
X108504Y226154D02*
X105400Y226154D01*
X105400Y226153D02*
X105330Y226155D01*
X105261Y226161D01*
X105192Y226171D01*
X105124Y226184D01*
X105056Y226202D01*
X104990Y226223D01*
X104925Y226248D01*
X104861Y226276D01*
X104799Y226308D01*
X104739Y226343D01*
X104681Y226382D01*
X104626Y226424D01*
X104572Y226469D01*
X104522Y226517D01*
X104474Y226567D01*
X104429Y226621D01*
X104387Y226676D01*
X104348Y226734D01*
X104313Y226794D01*
X104281Y226856D01*
X104253Y226920D01*
X104228Y226985D01*
X104207Y227051D01*
X104189Y227119D01*
X104176Y227187D01*
X104166Y227256D01*
X104160Y227325D01*
X104158Y227395D01*
X104158Y228637D01*
X104158Y230742D02*
X104779Y230742D01*
X104158Y230742D02*
X104158Y233846D01*
X109746Y232294D01*
X145723Y280254D02*
X145723Y285842D01*
X147275Y285842D01*
X147352Y285840D01*
X147430Y285834D01*
X147506Y285825D01*
X147583Y285811D01*
X147658Y285794D01*
X147732Y285773D01*
X147806Y285748D01*
X147878Y285720D01*
X147948Y285688D01*
X148017Y285653D01*
X148084Y285614D01*
X148149Y285572D01*
X148212Y285527D01*
X148273Y285479D01*
X148331Y285428D01*
X148386Y285374D01*
X148439Y285317D01*
X148488Y285258D01*
X148535Y285196D01*
X148579Y285132D01*
X148619Y285066D01*
X148656Y284998D01*
X148690Y284928D01*
X148720Y284857D01*
X148746Y284784D01*
X148769Y284710D01*
X148788Y284635D01*
X148803Y284560D01*
X148815Y284483D01*
X148823Y284406D01*
X148827Y284329D01*
X148827Y284251D01*
X148823Y284174D01*
X148815Y284097D01*
X148803Y284020D01*
X148788Y283945D01*
X148769Y283870D01*
X148746Y283796D01*
X148720Y283723D01*
X148690Y283652D01*
X148656Y283582D01*
X148619Y283514D01*
X148579Y283448D01*
X148535Y283384D01*
X148488Y283322D01*
X148439Y283263D01*
X148386Y283206D01*
X148331Y283152D01*
X148273Y283101D01*
X148212Y283053D01*
X148149Y283008D01*
X148084Y282966D01*
X148017Y282927D01*
X147948Y282892D01*
X147878Y282860D01*
X147806Y282832D01*
X147732Y282807D01*
X147658Y282786D01*
X147583Y282769D01*
X147506Y282755D01*
X147430Y282746D01*
X147352Y282740D01*
X147275Y282738D01*
X145723Y282738D01*
X147585Y282738D02*
X148827Y280254D01*
X151173Y285221D02*
X151173Y285842D01*
X154277Y285842D01*
X152725Y280254D01*
D11*
X162700Y234294D02*
X162700Y225706D01*
X137300Y225706D02*
X137300Y234294D01*
X147316Y237088D02*
X152684Y237088D01*
D15*
X133998Y219840D03*
D10*
X145613Y251806D02*
X145613Y255842D01*
X145613Y251806D02*
X145615Y251729D01*
X145621Y251651D01*
X145630Y251575D01*
X145644Y251498D01*
X145661Y251423D01*
X145682Y251349D01*
X145707Y251275D01*
X145735Y251203D01*
X145767Y251133D01*
X145802Y251064D01*
X145841Y250997D01*
X145883Y250932D01*
X145928Y250869D01*
X145976Y250808D01*
X146027Y250750D01*
X146081Y250695D01*
X146138Y250642D01*
X146197Y250593D01*
X146259Y250546D01*
X146323Y250502D01*
X146389Y250462D01*
X146457Y250425D01*
X146527Y250391D01*
X146598Y250361D01*
X146671Y250335D01*
X146745Y250312D01*
X146820Y250293D01*
X146895Y250278D01*
X146972Y250266D01*
X147049Y250258D01*
X147126Y250254D01*
X147204Y250254D01*
X147281Y250258D01*
X147358Y250266D01*
X147435Y250278D01*
X147510Y250293D01*
X147585Y250312D01*
X147659Y250335D01*
X147732Y250361D01*
X147803Y250391D01*
X147873Y250425D01*
X147941Y250462D01*
X148007Y250502D01*
X148071Y250546D01*
X148133Y250593D01*
X148192Y250642D01*
X148249Y250695D01*
X148303Y250750D01*
X148354Y250808D01*
X148402Y250869D01*
X148447Y250932D01*
X148489Y250997D01*
X148528Y251064D01*
X148563Y251133D01*
X148595Y251203D01*
X148623Y251275D01*
X148648Y251349D01*
X148669Y251423D01*
X148686Y251498D01*
X148700Y251575D01*
X148709Y251651D01*
X148715Y251729D01*
X148717Y251806D01*
X148718Y251806D02*
X148718Y255842D01*
X151282Y250254D02*
X152835Y250254D01*
X152912Y250256D01*
X152990Y250262D01*
X153066Y250271D01*
X153143Y250285D01*
X153218Y250302D01*
X153292Y250323D01*
X153366Y250348D01*
X153438Y250376D01*
X153508Y250408D01*
X153577Y250443D01*
X153644Y250482D01*
X153709Y250524D01*
X153772Y250569D01*
X153833Y250617D01*
X153891Y250668D01*
X153946Y250722D01*
X153999Y250779D01*
X154048Y250838D01*
X154095Y250900D01*
X154139Y250964D01*
X154179Y251030D01*
X154216Y251098D01*
X154250Y251168D01*
X154280Y251239D01*
X154306Y251312D01*
X154329Y251386D01*
X154348Y251461D01*
X154363Y251536D01*
X154375Y251613D01*
X154383Y251690D01*
X154387Y251767D01*
X154387Y251845D01*
X154383Y251922D01*
X154375Y251999D01*
X154363Y252076D01*
X154348Y252151D01*
X154329Y252226D01*
X154306Y252300D01*
X154280Y252373D01*
X154250Y252444D01*
X154216Y252514D01*
X154179Y252582D01*
X154139Y252648D01*
X154095Y252712D01*
X154048Y252774D01*
X153999Y252833D01*
X153946Y252890D01*
X153891Y252944D01*
X153833Y252995D01*
X153772Y253043D01*
X153709Y253088D01*
X153644Y253130D01*
X153577Y253169D01*
X153508Y253204D01*
X153438Y253236D01*
X153366Y253264D01*
X153292Y253289D01*
X153218Y253310D01*
X153143Y253327D01*
X153066Y253341D01*
X152990Y253350D01*
X152912Y253356D01*
X152835Y253358D01*
X153145Y255842D02*
X151282Y255842D01*
X153145Y255842D02*
X153215Y255840D01*
X153284Y255834D01*
X153353Y255824D01*
X153421Y255811D01*
X153489Y255793D01*
X153555Y255772D01*
X153620Y255747D01*
X153684Y255719D01*
X153746Y255687D01*
X153806Y255652D01*
X153864Y255613D01*
X153919Y255571D01*
X153973Y255526D01*
X154023Y255478D01*
X154071Y255428D01*
X154116Y255374D01*
X154158Y255319D01*
X154197Y255261D01*
X154232Y255201D01*
X154264Y255139D01*
X154292Y255075D01*
X154317Y255010D01*
X154338Y254944D01*
X154356Y254876D01*
X154369Y254808D01*
X154379Y254739D01*
X154385Y254670D01*
X154387Y254600D01*
X154385Y254530D01*
X154379Y254461D01*
X154369Y254392D01*
X154356Y254324D01*
X154338Y254256D01*
X154317Y254190D01*
X154292Y254125D01*
X154264Y254061D01*
X154232Y253999D01*
X154197Y253939D01*
X154158Y253881D01*
X154116Y253826D01*
X154071Y253772D01*
X154023Y253722D01*
X153973Y253674D01*
X153919Y253629D01*
X153864Y253587D01*
X153806Y253548D01*
X153746Y253513D01*
X153684Y253481D01*
X153620Y253453D01*
X153555Y253428D01*
X153489Y253407D01*
X153421Y253389D01*
X153353Y253376D01*
X153284Y253366D01*
X153215Y253360D01*
X153145Y253358D01*
X151903Y253358D01*
D12*
X265238Y114125D02*
X274763Y114125D01*
D10*
X280254Y125613D02*
X285842Y125613D01*
X280254Y125613D02*
X280254Y127165D01*
X280256Y127241D01*
X280261Y127317D01*
X280271Y127393D01*
X280284Y127468D01*
X280301Y127542D01*
X280321Y127616D01*
X280345Y127688D01*
X280372Y127759D01*
X280403Y127829D01*
X280437Y127897D01*
X280475Y127963D01*
X280516Y128027D01*
X280559Y128090D01*
X280606Y128150D01*
X280656Y128207D01*
X280709Y128262D01*
X280764Y128315D01*
X280821Y128365D01*
X280881Y128412D01*
X280944Y128455D01*
X281008Y128496D01*
X281074Y128534D01*
X281142Y128568D01*
X281212Y128599D01*
X281283Y128626D01*
X281356Y128650D01*
X281429Y128670D01*
X281503Y128687D01*
X281578Y128700D01*
X281654Y128710D01*
X281730Y128715D01*
X281806Y128717D01*
X281806Y128718D02*
X284290Y128718D01*
X284290Y128717D02*
X284366Y128715D01*
X284442Y128710D01*
X284518Y128700D01*
X284593Y128687D01*
X284667Y128670D01*
X284741Y128650D01*
X284813Y128626D01*
X284884Y128599D01*
X284954Y128568D01*
X285022Y128534D01*
X285088Y128496D01*
X285152Y128455D01*
X285215Y128412D01*
X285275Y128365D01*
X285332Y128315D01*
X285387Y128262D01*
X285440Y128207D01*
X285490Y128150D01*
X285537Y128090D01*
X285580Y128027D01*
X285621Y127963D01*
X285659Y127897D01*
X285693Y127829D01*
X285724Y127759D01*
X285751Y127688D01*
X285775Y127616D01*
X285795Y127542D01*
X285812Y127468D01*
X285825Y127393D01*
X285835Y127317D01*
X285840Y127241D01*
X285842Y127165D01*
X285842Y125613D01*
X285842Y131282D02*
X285842Y132835D01*
X285840Y132912D01*
X285834Y132990D01*
X285825Y133066D01*
X285811Y133143D01*
X285794Y133218D01*
X285773Y133292D01*
X285748Y133366D01*
X285720Y133438D01*
X285688Y133508D01*
X285653Y133577D01*
X285614Y133644D01*
X285572Y133709D01*
X285527Y133772D01*
X285479Y133833D01*
X285428Y133891D01*
X285374Y133946D01*
X285317Y133999D01*
X285258Y134048D01*
X285196Y134095D01*
X285132Y134139D01*
X285066Y134179D01*
X284998Y134216D01*
X284928Y134250D01*
X284857Y134280D01*
X284784Y134306D01*
X284710Y134329D01*
X284635Y134348D01*
X284560Y134363D01*
X284483Y134375D01*
X284406Y134383D01*
X284329Y134387D01*
X284251Y134387D01*
X284174Y134383D01*
X284097Y134375D01*
X284020Y134363D01*
X283945Y134348D01*
X283870Y134329D01*
X283796Y134306D01*
X283723Y134280D01*
X283652Y134250D01*
X283582Y134216D01*
X283514Y134179D01*
X283448Y134139D01*
X283384Y134095D01*
X283322Y134048D01*
X283263Y133999D01*
X283206Y133946D01*
X283152Y133891D01*
X283101Y133833D01*
X283053Y133772D01*
X283008Y133709D01*
X282966Y133644D01*
X282927Y133577D01*
X282892Y133508D01*
X282860Y133438D01*
X282832Y133366D01*
X282807Y133292D01*
X282786Y133218D01*
X282769Y133143D01*
X282755Y133066D01*
X282746Y132990D01*
X282740Y132912D01*
X282738Y132835D01*
X280254Y133145D02*
X280254Y131282D01*
X280254Y133145D02*
X280256Y133215D01*
X280262Y133284D01*
X280272Y133353D01*
X280285Y133421D01*
X280303Y133489D01*
X280324Y133555D01*
X280349Y133620D01*
X280377Y133684D01*
X280409Y133746D01*
X280444Y133806D01*
X280483Y133864D01*
X280525Y133919D01*
X280570Y133973D01*
X280618Y134023D01*
X280668Y134071D01*
X280722Y134116D01*
X280777Y134158D01*
X280835Y134197D01*
X280895Y134232D01*
X280957Y134264D01*
X281021Y134292D01*
X281086Y134317D01*
X281152Y134338D01*
X281220Y134356D01*
X281288Y134369D01*
X281357Y134379D01*
X281426Y134385D01*
X281496Y134387D01*
X281566Y134385D01*
X281635Y134379D01*
X281704Y134369D01*
X281772Y134356D01*
X281840Y134338D01*
X281906Y134317D01*
X281971Y134292D01*
X282035Y134264D01*
X282097Y134232D01*
X282157Y134197D01*
X282215Y134158D01*
X282270Y134116D01*
X282324Y134071D01*
X282374Y134023D01*
X282422Y133973D01*
X282467Y133919D01*
X282509Y133864D01*
X282548Y133806D01*
X282583Y133746D01*
X282615Y133684D01*
X282643Y133620D01*
X282668Y133555D01*
X282689Y133489D01*
X282707Y133421D01*
X282720Y133353D01*
X282730Y133284D01*
X282736Y133215D01*
X282738Y133145D01*
X282738Y131903D01*
X280254Y165723D02*
X285842Y165723D01*
X280254Y165723D02*
X280254Y167275D01*
X280256Y167352D01*
X280262Y167430D01*
X280271Y167506D01*
X280285Y167583D01*
X280302Y167658D01*
X280323Y167732D01*
X280348Y167806D01*
X280376Y167878D01*
X280408Y167948D01*
X280443Y168017D01*
X280482Y168084D01*
X280524Y168149D01*
X280569Y168212D01*
X280617Y168273D01*
X280668Y168331D01*
X280722Y168386D01*
X280779Y168439D01*
X280838Y168488D01*
X280900Y168535D01*
X280964Y168579D01*
X281030Y168619D01*
X281098Y168656D01*
X281168Y168690D01*
X281239Y168720D01*
X281312Y168746D01*
X281386Y168769D01*
X281461Y168788D01*
X281536Y168803D01*
X281613Y168815D01*
X281690Y168823D01*
X281767Y168827D01*
X281845Y168827D01*
X281922Y168823D01*
X281999Y168815D01*
X282076Y168803D01*
X282151Y168788D01*
X282226Y168769D01*
X282300Y168746D01*
X282373Y168720D01*
X282444Y168690D01*
X282514Y168656D01*
X282582Y168619D01*
X282648Y168579D01*
X282712Y168535D01*
X282774Y168488D01*
X282833Y168439D01*
X282890Y168386D01*
X282944Y168331D01*
X282995Y168273D01*
X283043Y168212D01*
X283088Y168149D01*
X283130Y168084D01*
X283169Y168017D01*
X283204Y167948D01*
X283236Y167878D01*
X283264Y167806D01*
X283289Y167732D01*
X283310Y167658D01*
X283327Y167583D01*
X283341Y167506D01*
X283350Y167430D01*
X283356Y167352D01*
X283358Y167275D01*
X283358Y165723D01*
X283358Y167585D02*
X285842Y168827D01*
X284600Y171173D02*
X280254Y172415D01*
X284600Y171173D02*
X284600Y174277D01*
X283358Y173346D02*
X285842Y173346D01*
X195842Y227395D02*
X195842Y228637D01*
X195842Y227395D02*
X195840Y227325D01*
X195834Y227256D01*
X195824Y227187D01*
X195811Y227119D01*
X195793Y227051D01*
X195772Y226985D01*
X195747Y226920D01*
X195719Y226856D01*
X195687Y226794D01*
X195652Y226734D01*
X195613Y226676D01*
X195571Y226621D01*
X195526Y226567D01*
X195478Y226517D01*
X195428Y226469D01*
X195374Y226424D01*
X195319Y226382D01*
X195261Y226343D01*
X195201Y226308D01*
X195139Y226276D01*
X195075Y226248D01*
X195010Y226223D01*
X194944Y226202D01*
X194876Y226184D01*
X194808Y226171D01*
X194739Y226161D01*
X194670Y226155D01*
X194600Y226153D01*
X194600Y226154D02*
X191496Y226154D01*
X191426Y226156D01*
X191357Y226162D01*
X191288Y226172D01*
X191220Y226185D01*
X191152Y226203D01*
X191086Y226224D01*
X191021Y226249D01*
X190957Y226277D01*
X190895Y226309D01*
X190835Y226344D01*
X190777Y226383D01*
X190722Y226425D01*
X190668Y226470D01*
X190618Y226518D01*
X190570Y226568D01*
X190525Y226622D01*
X190483Y226677D01*
X190444Y226735D01*
X190409Y226795D01*
X190377Y226857D01*
X190349Y226921D01*
X190324Y226986D01*
X190303Y227052D01*
X190285Y227120D01*
X190272Y227188D01*
X190262Y227257D01*
X190256Y227326D01*
X190254Y227396D01*
X190254Y227395D02*
X190254Y228637D01*
X191496Y230742D02*
X190254Y232294D01*
X195842Y232294D01*
X195842Y230742D02*
X195842Y233846D01*
D12*
X34763Y114125D02*
X25238Y114125D01*
D10*
X40254Y120864D02*
X45842Y120864D01*
X45842Y123347D01*
X45842Y125619D02*
X45842Y128102D01*
X45842Y125619D02*
X40254Y125619D01*
X40254Y128102D01*
X42738Y127481D02*
X42738Y125619D01*
X40254Y130362D02*
X45842Y130362D01*
X40254Y130362D02*
X40254Y131915D01*
X40256Y131991D01*
X40261Y132067D01*
X40271Y132143D01*
X40284Y132218D01*
X40301Y132292D01*
X40321Y132366D01*
X40345Y132438D01*
X40372Y132509D01*
X40403Y132579D01*
X40437Y132647D01*
X40475Y132713D01*
X40516Y132777D01*
X40559Y132840D01*
X40606Y132900D01*
X40656Y132957D01*
X40709Y133012D01*
X40764Y133065D01*
X40821Y133115D01*
X40881Y133162D01*
X40944Y133205D01*
X41008Y133246D01*
X41074Y133284D01*
X41142Y133318D01*
X41212Y133349D01*
X41283Y133376D01*
X41356Y133400D01*
X41429Y133420D01*
X41503Y133437D01*
X41578Y133450D01*
X41654Y133460D01*
X41730Y133465D01*
X41806Y133467D01*
X44290Y133467D01*
X44366Y133465D01*
X44442Y133460D01*
X44518Y133450D01*
X44593Y133437D01*
X44667Y133420D01*
X44741Y133400D01*
X44813Y133376D01*
X44884Y133349D01*
X44954Y133318D01*
X45022Y133284D01*
X45088Y133246D01*
X45152Y133205D01*
X45215Y133162D01*
X45275Y133115D01*
X45332Y133065D01*
X45387Y133012D01*
X45440Y132957D01*
X45490Y132900D01*
X45537Y132840D01*
X45580Y132777D01*
X45621Y132713D01*
X45659Y132647D01*
X45693Y132579D01*
X45724Y132509D01*
X45751Y132438D01*
X45775Y132366D01*
X45795Y132292D01*
X45812Y132218D01*
X45825Y132143D01*
X45835Y132067D01*
X45840Y131991D01*
X45842Y131915D01*
X45842Y130362D01*
X40254Y137739D02*
X40256Y137812D01*
X40262Y137885D01*
X40271Y137958D01*
X40285Y138029D01*
X40302Y138101D01*
X40322Y138171D01*
X40347Y138240D01*
X40375Y138307D01*
X40406Y138373D01*
X40441Y138438D01*
X40479Y138500D01*
X40521Y138560D01*
X40565Y138618D01*
X40613Y138674D01*
X40663Y138727D01*
X40716Y138777D01*
X40772Y138825D01*
X40830Y138869D01*
X40890Y138911D01*
X40953Y138949D01*
X41017Y138984D01*
X41083Y139015D01*
X41150Y139043D01*
X41219Y139068D01*
X41289Y139088D01*
X41361Y139105D01*
X41432Y139119D01*
X41505Y139128D01*
X41578Y139134D01*
X41651Y139136D01*
X40254Y137739D02*
X40256Y137655D01*
X40262Y137572D01*
X40271Y137489D01*
X40285Y137406D01*
X40302Y137325D01*
X40324Y137244D01*
X40349Y137164D01*
X40377Y137086D01*
X40409Y137008D01*
X40445Y136933D01*
X40484Y136859D01*
X40527Y136787D01*
X40573Y136717D01*
X40622Y136650D01*
X40675Y136584D01*
X40730Y136522D01*
X40788Y136462D01*
X40849Y136404D01*
X40912Y136350D01*
X40978Y136298D01*
X41046Y136250D01*
X41117Y136205D01*
X41189Y136163D01*
X41264Y136125D01*
X41340Y136090D01*
X41417Y136059D01*
X41496Y136031D01*
X42737Y138670D02*
X42684Y138724D01*
X42627Y138775D01*
X42568Y138823D01*
X42507Y138868D01*
X42444Y138909D01*
X42378Y138948D01*
X42311Y138983D01*
X42242Y139015D01*
X42171Y139043D01*
X42100Y139067D01*
X42027Y139088D01*
X41953Y139105D01*
X41878Y139119D01*
X41803Y139128D01*
X41727Y139134D01*
X41651Y139136D01*
X42738Y138670D02*
X45842Y136032D01*
X45842Y139136D01*
X45842Y165723D02*
X40254Y165723D01*
X40254Y167275D01*
X40256Y167352D01*
X40262Y167430D01*
X40271Y167506D01*
X40285Y167583D01*
X40302Y167658D01*
X40323Y167732D01*
X40348Y167806D01*
X40376Y167878D01*
X40408Y167948D01*
X40443Y168017D01*
X40482Y168084D01*
X40524Y168149D01*
X40569Y168212D01*
X40617Y168273D01*
X40668Y168331D01*
X40722Y168386D01*
X40779Y168439D01*
X40838Y168488D01*
X40900Y168535D01*
X40964Y168579D01*
X41030Y168619D01*
X41098Y168656D01*
X41168Y168690D01*
X41239Y168720D01*
X41312Y168746D01*
X41386Y168769D01*
X41461Y168788D01*
X41536Y168803D01*
X41613Y168815D01*
X41690Y168823D01*
X41767Y168827D01*
X41845Y168827D01*
X41922Y168823D01*
X41999Y168815D01*
X42076Y168803D01*
X42151Y168788D01*
X42226Y168769D01*
X42300Y168746D01*
X42373Y168720D01*
X42444Y168690D01*
X42514Y168656D01*
X42582Y168619D01*
X42648Y168579D01*
X42712Y168535D01*
X42774Y168488D01*
X42833Y168439D01*
X42890Y168386D01*
X42944Y168331D01*
X42995Y168273D01*
X43043Y168212D01*
X43088Y168149D01*
X43130Y168084D01*
X43169Y168017D01*
X43204Y167948D01*
X43236Y167878D01*
X43264Y167806D01*
X43289Y167732D01*
X43310Y167658D01*
X43327Y167583D01*
X43341Y167506D01*
X43350Y167430D01*
X43356Y167352D01*
X43358Y167275D01*
X43358Y165723D01*
X43358Y167585D02*
X45842Y168827D01*
X45842Y171173D02*
X45842Y173036D01*
X45840Y173106D01*
X45834Y173175D01*
X45824Y173244D01*
X45811Y173312D01*
X45793Y173380D01*
X45772Y173446D01*
X45747Y173511D01*
X45719Y173575D01*
X45687Y173637D01*
X45652Y173697D01*
X45613Y173755D01*
X45571Y173810D01*
X45526Y173864D01*
X45478Y173914D01*
X45428Y173962D01*
X45374Y174007D01*
X45319Y174049D01*
X45261Y174088D01*
X45201Y174123D01*
X45139Y174155D01*
X45075Y174183D01*
X45010Y174208D01*
X44944Y174229D01*
X44876Y174247D01*
X44808Y174260D01*
X44739Y174270D01*
X44670Y174276D01*
X44600Y174278D01*
X44600Y174277D02*
X43979Y174277D01*
X43979Y174278D02*
X43909Y174276D01*
X43840Y174270D01*
X43771Y174260D01*
X43703Y174247D01*
X43635Y174229D01*
X43569Y174208D01*
X43504Y174183D01*
X43440Y174155D01*
X43378Y174123D01*
X43318Y174088D01*
X43260Y174049D01*
X43205Y174007D01*
X43151Y173962D01*
X43101Y173914D01*
X43053Y173864D01*
X43008Y173810D01*
X42966Y173755D01*
X42927Y173697D01*
X42892Y173637D01*
X42860Y173575D01*
X42832Y173511D01*
X42807Y173446D01*
X42786Y173380D01*
X42768Y173312D01*
X42755Y173244D01*
X42745Y173175D01*
X42739Y173106D01*
X42737Y173036D01*
X42738Y173036D02*
X42738Y171173D01*
X40254Y171173D01*
X40254Y174277D01*
X72634Y165723D02*
X78222Y165723D01*
X72634Y165723D02*
X72634Y167275D01*
X72636Y167352D01*
X72642Y167430D01*
X72651Y167506D01*
X72665Y167583D01*
X72682Y167658D01*
X72703Y167732D01*
X72728Y167806D01*
X72756Y167878D01*
X72788Y167948D01*
X72823Y168017D01*
X72862Y168084D01*
X72904Y168149D01*
X72949Y168212D01*
X72997Y168273D01*
X73048Y168331D01*
X73102Y168386D01*
X73159Y168439D01*
X73218Y168488D01*
X73280Y168535D01*
X73344Y168579D01*
X73410Y168619D01*
X73478Y168656D01*
X73548Y168690D01*
X73619Y168720D01*
X73692Y168746D01*
X73766Y168769D01*
X73841Y168788D01*
X73916Y168803D01*
X73993Y168815D01*
X74070Y168823D01*
X74147Y168827D01*
X74225Y168827D01*
X74302Y168823D01*
X74379Y168815D01*
X74456Y168803D01*
X74531Y168788D01*
X74606Y168769D01*
X74680Y168746D01*
X74753Y168720D01*
X74824Y168690D01*
X74894Y168656D01*
X74962Y168619D01*
X75028Y168579D01*
X75092Y168535D01*
X75154Y168488D01*
X75213Y168439D01*
X75270Y168386D01*
X75324Y168331D01*
X75375Y168273D01*
X75423Y168212D01*
X75468Y168149D01*
X75510Y168084D01*
X75549Y168017D01*
X75584Y167948D01*
X75616Y167878D01*
X75644Y167806D01*
X75669Y167732D01*
X75690Y167658D01*
X75707Y167583D01*
X75721Y167506D01*
X75730Y167430D01*
X75736Y167352D01*
X75738Y167275D01*
X75738Y165723D01*
X75738Y167585D02*
X78222Y168827D01*
X75118Y171173D02*
X75118Y173036D01*
X75117Y173036D02*
X75119Y173106D01*
X75125Y173175D01*
X75135Y173244D01*
X75148Y173312D01*
X75166Y173380D01*
X75187Y173446D01*
X75212Y173511D01*
X75240Y173575D01*
X75272Y173637D01*
X75307Y173697D01*
X75346Y173755D01*
X75388Y173810D01*
X75433Y173864D01*
X75481Y173914D01*
X75531Y173962D01*
X75585Y174007D01*
X75640Y174049D01*
X75698Y174088D01*
X75758Y174123D01*
X75820Y174155D01*
X75884Y174183D01*
X75949Y174208D01*
X76015Y174229D01*
X76083Y174247D01*
X76151Y174260D01*
X76220Y174270D01*
X76289Y174276D01*
X76359Y174278D01*
X76359Y174277D02*
X76670Y174277D01*
X76747Y174275D01*
X76825Y174269D01*
X76901Y174260D01*
X76978Y174246D01*
X77053Y174229D01*
X77127Y174208D01*
X77201Y174183D01*
X77273Y174155D01*
X77343Y174123D01*
X77412Y174088D01*
X77479Y174049D01*
X77544Y174007D01*
X77607Y173962D01*
X77668Y173914D01*
X77726Y173863D01*
X77781Y173809D01*
X77834Y173752D01*
X77883Y173693D01*
X77930Y173631D01*
X77974Y173567D01*
X78014Y173501D01*
X78051Y173433D01*
X78085Y173363D01*
X78115Y173292D01*
X78141Y173219D01*
X78164Y173145D01*
X78183Y173070D01*
X78198Y172995D01*
X78210Y172918D01*
X78218Y172841D01*
X78222Y172764D01*
X78222Y172686D01*
X78218Y172609D01*
X78210Y172532D01*
X78198Y172455D01*
X78183Y172380D01*
X78164Y172305D01*
X78141Y172231D01*
X78115Y172158D01*
X78085Y172087D01*
X78051Y172017D01*
X78014Y171949D01*
X77974Y171883D01*
X77930Y171819D01*
X77883Y171757D01*
X77834Y171698D01*
X77781Y171641D01*
X77726Y171587D01*
X77668Y171536D01*
X77607Y171488D01*
X77544Y171443D01*
X77479Y171401D01*
X77412Y171362D01*
X77343Y171327D01*
X77273Y171295D01*
X77201Y171267D01*
X77127Y171242D01*
X77053Y171221D01*
X76978Y171204D01*
X76901Y171190D01*
X76825Y171181D01*
X76747Y171175D01*
X76670Y171173D01*
X75118Y171173D01*
X75020Y171175D01*
X74923Y171181D01*
X74826Y171190D01*
X74729Y171204D01*
X74633Y171221D01*
X74538Y171242D01*
X74444Y171266D01*
X74350Y171295D01*
X74258Y171327D01*
X74167Y171362D01*
X74078Y171401D01*
X73990Y171444D01*
X73904Y171490D01*
X73820Y171539D01*
X73738Y171592D01*
X73658Y171647D01*
X73580Y171706D01*
X73505Y171768D01*
X73432Y171833D01*
X73362Y171901D01*
X73294Y171971D01*
X73229Y172044D01*
X73167Y172119D01*
X73108Y172197D01*
X73053Y172277D01*
X73000Y172359D01*
X72951Y172443D01*
X72905Y172529D01*
X72862Y172617D01*
X72823Y172706D01*
X72788Y172797D01*
X72756Y172889D01*
X72727Y172983D01*
X72703Y173077D01*
X72682Y173172D01*
X72665Y173268D01*
X72651Y173365D01*
X72642Y173462D01*
X72636Y173559D01*
X72634Y173657D01*
D12*
X64763Y114125D02*
X55238Y114125D01*
D10*
X70254Y120864D02*
X75842Y120864D01*
X75842Y123347D01*
X75842Y125619D02*
X75842Y128102D01*
X75842Y125619D02*
X70254Y125619D01*
X70254Y128102D01*
X72738Y127481D02*
X72738Y125619D01*
X70254Y130362D02*
X75842Y130362D01*
X70254Y130362D02*
X70254Y131915D01*
X70256Y131991D01*
X70261Y132067D01*
X70271Y132143D01*
X70284Y132218D01*
X70301Y132292D01*
X70321Y132366D01*
X70345Y132438D01*
X70372Y132509D01*
X70403Y132579D01*
X70437Y132647D01*
X70475Y132713D01*
X70516Y132777D01*
X70559Y132840D01*
X70606Y132900D01*
X70656Y132957D01*
X70709Y133012D01*
X70764Y133065D01*
X70821Y133115D01*
X70881Y133162D01*
X70944Y133205D01*
X71008Y133246D01*
X71074Y133284D01*
X71142Y133318D01*
X71212Y133349D01*
X71283Y133376D01*
X71356Y133400D01*
X71429Y133420D01*
X71503Y133437D01*
X71578Y133450D01*
X71654Y133460D01*
X71730Y133465D01*
X71806Y133467D01*
X74290Y133467D01*
X74366Y133465D01*
X74442Y133460D01*
X74518Y133450D01*
X74593Y133437D01*
X74667Y133420D01*
X74741Y133400D01*
X74813Y133376D01*
X74884Y133349D01*
X74954Y133318D01*
X75022Y133284D01*
X75088Y133246D01*
X75152Y133205D01*
X75215Y133162D01*
X75275Y133115D01*
X75332Y133065D01*
X75387Y133012D01*
X75440Y132957D01*
X75490Y132900D01*
X75537Y132840D01*
X75580Y132777D01*
X75621Y132713D01*
X75659Y132647D01*
X75693Y132579D01*
X75724Y132509D01*
X75751Y132438D01*
X75775Y132366D01*
X75795Y132292D01*
X75812Y132218D01*
X75825Y132143D01*
X75835Y132067D01*
X75840Y131991D01*
X75842Y131915D01*
X75842Y130362D01*
X71496Y136032D02*
X70254Y137584D01*
X75842Y137584D01*
X75842Y136032D02*
X75842Y139136D01*
M02*
