G04 EAGLE Gerber RS-274X export*
G75*
%MOMM*%
%FSLAX34Y34*%
%LPD*%
%INSoldermask Top*%
%IPPOS*%
%AMOC8*
5,1,8,0,0,1.08239X$1,22.5*%
G01*
%ADD10R,1.203200X1.303200*%
%ADD11R,0.803200X1.403200*%
%ADD12R,1.303200X1.203200*%
%ADD13R,0.503200X0.863200*%
%ADD14P,1.671555X8X112.500000*%
%ADD15R,0.803200X1.653200*%
%ADD16R,0.503200X1.653200*%
%ADD17C,0.853200*%
%ADD18C,1.000000*%
%ADD19R,1.403200X1.003200*%
%ADD20R,0.753200X1.403200*%
%ADD21C,0.505344*%
%ADD22C,0.959600*%


D10*
X240000Y58500D03*
X240000Y41500D03*
X60000Y58500D03*
X60000Y41500D03*
X240000Y161500D03*
X240000Y178500D03*
X240000Y121500D03*
X240000Y138500D03*
D11*
X105550Y122000D03*
X118250Y122000D03*
X130950Y122000D03*
X143650Y122000D03*
X156350Y122000D03*
X169050Y122000D03*
X181750Y122000D03*
X194450Y122000D03*
X194450Y178000D03*
X181750Y178000D03*
X169050Y178000D03*
X156350Y178000D03*
X143650Y178000D03*
X130950Y178000D03*
X118250Y178000D03*
X105550Y178000D03*
D12*
X181500Y310000D03*
X198500Y310000D03*
X101500Y310000D03*
X118500Y310000D03*
D13*
X156500Y319200D03*
X150000Y300800D03*
X143500Y300800D03*
X156500Y300800D03*
X150000Y319200D03*
X143500Y319200D03*
D14*
X86500Y370000D03*
X111900Y370000D03*
X137300Y370000D03*
X162700Y370000D03*
X188100Y370000D03*
X213500Y370000D03*
D15*
X117500Y67050D03*
X125500Y67050D03*
D16*
X132500Y67050D03*
X137500Y67050D03*
X142500Y67050D03*
X147500Y67050D03*
X152500Y67050D03*
X157500Y67050D03*
X162500Y67050D03*
X167500Y67050D03*
D15*
X174500Y67050D03*
X182500Y67050D03*
X117500Y67050D03*
X125500Y67050D03*
X174500Y67050D03*
X182500Y67050D03*
D17*
X121100Y52600D03*
X178900Y52600D03*
D18*
X106800Y52400D02*
X106800Y63400D01*
X106800Y19100D02*
X106800Y13100D01*
X193200Y52400D02*
X193200Y63400D01*
X193200Y19100D02*
X193200Y13100D01*
D19*
X120000Y221000D03*
X120000Y239000D03*
D12*
X158500Y270000D03*
X141500Y270000D03*
D20*
X140500Y216999D03*
X150000Y216999D03*
X159500Y216999D03*
X159500Y243001D03*
X140500Y243001D03*
D21*
X266510Y124720D02*
X273490Y124720D01*
X273490Y117740D01*
X266510Y117740D01*
X266510Y124720D01*
X266510Y122540D02*
X273490Y122540D01*
X273490Y142260D02*
X266510Y142260D01*
X273490Y142260D02*
X273490Y135280D01*
X266510Y135280D01*
X266510Y142260D01*
X266510Y140080D02*
X273490Y140080D01*
D10*
X270000Y178500D03*
X270000Y161500D03*
D19*
X180000Y221000D03*
X180000Y239000D03*
D21*
X33490Y124720D02*
X26510Y124720D01*
X33490Y124720D02*
X33490Y117740D01*
X26510Y117740D01*
X26510Y124720D01*
X26510Y122540D02*
X33490Y122540D01*
X33490Y142260D02*
X26510Y142260D01*
X33490Y142260D02*
X33490Y135280D01*
X26510Y135280D01*
X26510Y142260D01*
X26510Y140080D02*
X33490Y140080D01*
D10*
X30000Y161500D03*
X30000Y178500D03*
X60000Y161500D03*
X60000Y178500D03*
D21*
X56510Y124720D02*
X63490Y124720D01*
X63490Y117740D01*
X56510Y117740D01*
X56510Y124720D01*
X56510Y122540D02*
X63490Y122540D01*
X63490Y142260D02*
X56510Y142260D01*
X63490Y142260D02*
X63490Y135280D01*
X56510Y135280D01*
X56510Y142260D01*
X56510Y140080D02*
X63490Y140080D01*
D22*
X235769Y366833D03*
X30000Y70000D03*
X259840Y74760D03*
X116840Y337820D03*
M02*
